<svg width="137" height="122" viewBox="0 0 137 122" fill="none" xmlns="http://www.w3.org/2000/svg">
<path d="M73.6341 58.075L46.3756 78.385L4.2314 30.8607L73.6341 58.075Z" fill="#4F3E7F"/>
<path d="M3.31808 31.2397C3.18723 30.9329 3.21546 30.571 3.40471 30.2843C3.66142 29.904 4.14657 29.7569 4.57455 29.9292L73.9789 57.1441C74.3244 57.2741 74.5663 57.5894 74.6229 57.9488C74.6796 58.3083 74.5352 58.6748 74.2384 58.8858L46.9793 79.1962C46.5707 79.4974 45.9852 79.4345 45.6449 79.0397L3.49456 31.5274C3.42357 31.4366 3.3617 31.3419 3.31808 31.2397ZM71.5868 58.3359L7.70529 33.2894L46.4929 77.0236L71.5868 58.3359Z" fill="#4F3E7F"/>
<path d="M71.3033 65.6229L4.23131 30.8638L65.3052 92.2846L71.3033 65.6229Z" fill="#4F3E7F"/>
<path d="M3.31693 31.2404C3.18248 30.925 3.20668 30.5546 3.41757 30.2703C3.69692 29.8701 4.22386 29.7491 4.6653 29.9804L71.745 64.7421C72.1564 64.9532 72.3802 65.4279 72.2718 65.8771L66.273 92.5409C66.1966 92.8894 65.9323 93.1741 65.585 93.264C65.2416 93.3632 64.8646 93.258 64.6158 93.0011L3.53089 31.5664C3.43794 31.474 3.36834 31.361 3.31693 31.2404ZM70.1616 66.1545L9.38074 34.6581L64.7326 90.3097L70.1616 66.1545Z" fill="#4F3E7F"/>
<path d="M73.7944 58.09L4.23127 30.8092L78.6873 36.8453L73.7944 58.09Z" fill="#4F3E7F"/>
<path d="M3.31901 31.1902C3.23953 31.0039 3.21492 30.7947 3.25311 30.5814C3.35934 30.0984 3.79751 29.7626 4.28728 29.8002L78.7395 35.836C79.0289 35.8582 79.302 36.0189 79.4773 36.2531C79.6566 36.4967 79.7209 36.799 79.6517 37.0911L74.7682 58.3306C74.7042 58.6096 74.526 58.8482 74.2688 58.9771C74.0116 59.1061 73.7198 59.1287 73.4482 59.0222L3.89258 31.7525C3.62107 31.646 3.42631 31.4418 3.31901 31.1902ZM77.444 37.746L10.9149 32.3641L73.0741 56.7315L77.444 37.746Z" fill="#4F3E7F"/>
<path d="M65.0297 38.0724C58.5892 37.663 52.1623 37.0831 45.7489 36.3326C44.467 36.1844 44.2305 38.185 45.5124 38.3333C51.9258 39.0838 58.3527 39.6637 64.7932 40.073C66.0656 40.1483 66.3152 38.1532 65.0297 38.0724Z" fill="#4F3E7F"/>
<path d="M51.5871 41.7082C51.7736 41.5648 51.9307 41.3019 51.953 41.0511C51.9714 40.7911 51.9149 40.5073 51.7384 40.2953C51.5698 40.1021 51.3332 39.9261 51.0791 39.9111C50.2945 39.8643 49.5098 39.8176 48.7252 39.7708C48.4488 39.7541 48.1963 39.7933 47.9811 39.9706C47.7946 40.114 47.6374 40.3769 47.6151 40.6276C47.5968 40.8877 47.6532 41.1715 47.8297 41.3834C47.9983 41.5767 48.2349 41.7527 48.4891 41.7677C49.2737 41.8144 50.0583 41.8612 50.8429 41.908C51.1062 41.9192 51.3679 41.8762 51.5871 41.7082Z" fill="#4F3E7F"/>
<path d="M58.8984 78.2343C53.7806 73.2749 48.6201 68.3659 43.4079 63.5112C42.4647 62.6277 41.296 64.227 42.2353 65.1013C47.4475 69.956 52.6171 74.8611 57.7258 79.8244C58.6548 80.7247 59.8144 79.1292 58.8984 78.2343Z" fill="#4F3E7F"/>
<path d="M74.9019 54.9996L47.665 75.295L5.4956 27.7185L74.9019 54.9996Z" fill="white"/>
<path d="M4.58306 28.097C4.45198 27.7901 4.47986 27.428 4.66877 27.1415C4.92501 26.7612 5.40981 26.6146 5.83775 26.7872L75.2367 54.0727C75.5821 54.2029 75.8242 54.5185 75.8812 54.8782C75.9381 55.2378 75.7941 55.6043 75.4977 55.8151L48.2692 76.1071C47.8611 76.4081 47.2758 76.3446 46.9353 75.9494L4.75574 28.3757C4.68867 28.2941 4.62675 28.1993 4.58306 28.097ZM72.8467 55.2627L8.97021 30.1513L47.7811 73.9334L72.8467 55.2627Z" fill="#4F3E7F"/>
<path d="M72.5568 62.5413L5.4956 27.7288L66.5824 89.2014L72.5568 62.5413Z" fill="white"/>
<path d="M4.58173 28.1044C4.44712 27.7889 4.47101 27.4184 4.68157 27.1342C4.96047 26.7342 5.48703 26.6136 5.92841 26.8453L72.9979 61.6607C73.4092 61.8721 73.6332 62.347 73.5252 62.7962L67.5501 89.4585C67.474 89.807 67.21 90.0915 66.8629 90.1812C66.5198 90.2801 66.143 90.1746 65.8941 89.9175L4.80492 28.4268C4.70286 28.3381 4.6332 28.225 4.58173 28.1044ZM71.4255 63.0683L10.6539 31.5232L66.0088 87.2259L71.4255 63.0683Z" fill="#4F3E7F"/>
<path d="M75.0753 55.0149L5.49576 27.6645L79.935 33.7587L75.0753 55.0149Z" fill="white"/>
<path d="M4.58407 28.0451C4.50445 27.8586 4.47965 27.6493 4.51765 27.4359C4.62342 26.9528 5.06117 26.6172 5.55087 26.6552L79.9861 32.749C80.2755 32.7715 80.5486 32.9324 80.7241 33.167C80.9035 33.4108 80.9681 33.7133 80.8992 34.0055L76.0266 55.2547C75.9629 55.5337 75.785 55.7723 75.5279 55.9011C75.2708 56.0299 74.9791 56.0523 74.7076 55.9455L5.15402 28.5988C4.8956 28.4975 4.69157 28.2969 4.58407 28.0451ZM78.6966 34.6682L12.1791 29.2261L74.3486 53.6682L78.6966 34.6682Z" fill="#4F3E7F"/>
<path d="M66.2931 34.975C59.8529 34.561 53.4261 33.9764 47.0128 33.2211C45.7309 33.0719 45.4958 35.0734 46.7777 35.2226C53.191 35.9779 59.6178 36.5626 66.058 36.9766C67.3303 37.0527 67.5785 35.0567 66.2931 34.975Z" fill="#4F3E7F"/>
<path d="M52.8477 38.5965C53.0341 38.4531 53.191 38.1902 53.2131 37.9394C53.2313 37.6793 53.1747 37.3953 52.998 37.1832C52.8293 36.9897 52.5926 36.8135 52.3385 36.7983C51.554 36.751 50.7695 36.7037 49.985 36.6563C49.7086 36.6394 49.4562 36.6785 49.2411 36.8557C49.0547 36.9991 48.8978 37.262 48.8757 37.5128C48.8575 37.7729 48.9142 38.0569 49.0908 38.269C49.2595 38.4624 49.4962 38.6386 49.7503 38.6538C50.5348 38.7012 51.3193 38.7485 52.1038 38.7958C52.371 38.8165 52.6327 38.7737 52.8477 38.5965Z" fill="#4F3E7F"/>
<path d="M60.1621 75.136C55.0439 70.1729 49.8832 65.2603 44.6708 60.4019C43.7275 59.5177 42.5607 61.1162 43.5 61.9912C48.7124 66.8496 53.8822 71.7584 58.9913 76.7253C59.9164 77.6171 61.0872 76.0278 60.1621 75.136Z" fill="#4F3E7F"/>
<path d="M76.7643 60.9209C76.72 60.8157 76.7475 60.6749 76.8675 60.5219C77.1184 60.19 77.7005 59.9233 78.1496 59.9335C81.4304 59.9683 84.6653 60.1519 87.7336 60.4809C88.1536 60.5249 88.2381 60.8287 87.9316 61.1571C87.625 61.4855 87.0387 61.7163 86.6167 61.6678C83.6061 61.3468 80.438 61.1674 77.2222 61.1321C76.9736 61.1345 76.8183 61.049 76.7643 60.9209ZM93.5678 62.5593C93.5081 62.4175 93.5793 62.2259 93.7896 62.0296C94.1315 61.7078 94.7314 61.509 95.1203 61.5822C97.0018 61.9533 98.8362 62.3927 100.582 62.88C100.94 62.9825 100.931 63.3205 100.553 63.6356C100.176 63.9507 99.5777 64.1273 99.2199 64.0249C97.5091 63.5442 95.7009 63.1153 93.8639 62.747C93.7021 62.7236 93.6064 62.6508 93.5678 62.5593ZM119.777 113.425C119.742 113.343 119.752 113.236 119.813 113.124C120.046 112.698 120.271 112.28 120.493 111.852C120.66 111.529 121.201 111.215 121.688 111.16C122.175 111.106 122.442 111.328 122.275 111.651C122.055 112.083 121.824 112.514 121.582 112.945C121.406 113.273 120.861 113.577 120.372 113.627C120.052 113.665 119.841 113.576 119.777 113.425ZM106.3 66.4348C106.229 66.2655 106.353 66.0193 106.652 65.8017C107.067 65.4979 107.662 65.3656 107.971 65.5051C109.883 66.337 111.685 67.2644 113.333 68.2669C113.608 68.4311 113.469 68.7967 113.027 69.0855C112.584 69.3742 112.007 69.4719 111.732 69.3078C110.113 68.3249 108.342 67.4172 106.468 66.6011C106.384 66.5558 106.327 66.4988 106.3 66.4348ZM123.085 106.284C123.058 106.22 123.056 106.14 123.087 106.057C123.94 103.78 124.589 101.508 125.025 99.299C125.082 98.9951 125.551 98.6412 126.074 98.5178C126.586 98.3938 126.964 98.542 126.9 98.8543C126.458 101.103 125.795 103.419 124.93 105.744C124.814 106.062 124.304 106.396 123.797 106.48C123.421 106.541 123.158 106.458 123.085 106.284ZM115.307 71.7179C115.223 71.5166 115.413 71.221 115.804 70.9914C116.264 70.717 116.833 70.65 117.073 70.8342C118.811 72.2032 120.354 73.7026 121.651 75.2892C121.829 75.5052 121.577 75.8861 121.097 76.1369C120.616 76.3877 120.071 76.4072 119.884 76.1951C118.611 74.6412 117.102 73.1706 115.396 71.8259C115.351 71.7963 115.325 71.759 115.307 71.7179ZM125.624 95.0771C125.608 95.0405 125.602 95 125.605 94.9556C125.727 93.1856 125.696 91.4372 125.512 89.764C125.48 89.4813 125.879 89.1141 126.401 88.9372C126.924 88.7603 127.372 88.8461 127.395 89.1327C127.572 90.8411 127.606 92.6208 127.487 94.4268C127.471 94.7243 127.026 95.0842 126.513 95.2304C126.066 95.3541 125.71 95.2829 125.624 95.0771ZM122.639 80.3138C122.537 80.0714 122.839 79.707 123.322 79.4876C123.823 79.2603 124.339 79.2746 124.463 79.5185C125.088 80.6935 125.631 81.9302 126.066 83.1958C126.154 83.4552 125.813 83.8305 125.304 84.0394C124.793 84.2438 124.301 84.2087 124.212 83.9447C123.788 82.7065 123.255 81.4927 122.639 80.3406C122.645 80.3276 122.641 80.3184 122.639 80.3138Z" fill="#404054"/>
</svg>
