<svg width="109" height="37" viewBox="0 0 109 37" fill="none" xmlns="http://www.w3.org/2000/svg">
<path d="M4.94932 35.2457C8.09932 35.7857 11.4393 35.5857 14.6293 35.6057C17.9593 35.6257 21.2893 35.6457 24.6093 35.6657C31.3493 35.7057 38.0893 35.7457 44.8293 35.7857C58.2193 35.8657 71.6193 35.9257 85.0093 35.9857C92.4893 36.0157 99.9993 36.2257 107.469 35.7957C108.549 35.7357 108.549 34.1957 107.469 34.1257C100.829 33.6957 94.1593 33.7857 87.4993 33.7557C80.7593 33.7257 74.0193 33.7057 67.2793 33.6757C53.8993 33.6257 40.4993 33.6057 27.1093 33.5657C23.4493 33.5557 19.7893 33.5457 16.1293 33.5357C12.4493 33.5257 8.58932 33.2157 4.94932 33.8157C4.24932 33.9357 4.24932 35.1257 4.94932 35.2457Z" fill="#6FFFEE"/>
<path d="M56.3295 7.54538C55.1895 4.86538 53.1395 2.86538 50.4495 1.72538C47.7295 0.575378 44.7495 0.225378 41.8395 0.715378C35.8395 1.72538 31.5695 6.85538 30.6895 12.7354C30.4395 14.4154 30.4295 16.0754 30.7995 17.7354C31.1095 19.1654 31.8795 21.1354 33.0695 22.0654C33.6695 22.5354 34.4095 22.0954 34.2995 21.3554C34.1895 20.5854 33.8395 19.8654 33.6695 19.0954C33.4995 18.3454 33.3795 17.5654 33.3195 16.8054C33.1795 15.2354 33.1995 13.6754 33.5595 12.1354C34.2595 9.10538 36.0295 6.24538 38.6695 4.54538C44.2195 0.975378 51.7695 3.20538 56.0595 7.74538C56.1995 7.90538 56.3995 7.71538 56.3295 7.54538Z" fill="#6FFFEE"/>
<path d="M33.3895 21.8657C30.8295 17.9457 25.4395 16.7457 21.1995 18.4757C18.9195 19.4057 17.0795 21.1257 15.8795 23.2757C15.2995 24.3057 14.8095 25.4757 14.5995 26.6357C14.3595 27.9757 14.4995 29.0857 15.0295 30.3357C15.4195 31.2557 16.9095 30.9557 17.1195 30.0657C17.5295 28.3257 17.7295 26.4657 18.5795 24.8657C19.4395 23.2457 20.7795 21.9057 22.3995 21.0357C25.7295 19.2457 30.0195 20.1557 32.9795 22.2757C33.2295 22.4257 33.5395 22.0957 33.3895 21.8657Z" fill="#6FFFEE"/>
<path d="M13.9895 29.1456C9.36947 26.3756 1.82947 28.1456 0.0594721 33.5956C-0.350528 34.8756 1.46947 35.5356 2.14947 34.4756C3.32947 32.6556 4.87947 31.0456 6.92947 30.1856C9.05947 29.2956 11.4495 29.1956 13.5895 30.0856C14.1495 30.3156 14.4695 29.4356 13.9895 29.1456Z" fill="#6FFFEE"/>
<path d="M56.2894 9.94544C57.3194 9.44544 58.1794 8.72544 59.1594 8.11544C60.1794 7.48544 61.2594 7.04544 62.4094 6.70544C64.7194 6.02544 67.1594 5.98544 69.4494 6.77544C71.6394 7.52544 73.5794 9.00544 74.9094 10.9054C76.2794 12.8554 76.9594 15.1754 77.4494 17.4854C77.6494 18.4054 79.2094 18.4554 79.3594 17.4854C80.2494 11.7554 75.5794 6.05544 70.2794 4.36544C67.5794 3.50544 64.4794 3.60544 61.8194 4.55544C59.5194 5.37544 56.5294 7.11544 55.9194 9.65544C55.8594 9.88544 56.0894 10.0354 56.2894 9.94544Z" fill="#6FFFEE"/>
<path d="M78.0894 19.3258C83.3594 18.4158 88.8494 19.3658 93.6294 21.7058C95.9194 22.8258 98.0394 24.2858 99.8694 26.0758C101.769 27.9358 103.119 30.1858 104.929 32.1158C105.599 32.8358 106.629 32.0658 106.469 31.2158C105.939 28.4158 103.849 26.0258 101.789 24.1558C99.6494 22.2058 97.1894 20.6258 94.5294 19.4858C89.2894 17.2158 83.3294 16.8458 77.9194 18.7458C77.5494 18.8658 77.6994 19.3958 78.0894 19.3258Z" fill="#6FFFEE"/>
<path d="M44.9795 9.56543C40.4995 9.85543 37.2695 15.4054 39.2495 19.4454" stroke="#6FFFEE" stroke-miterlimit="10" stroke-linecap="round"/>
<path d="M78.6794 23.6257C83.7294 21.7557 89.8594 23.3357 93.3794 27.4057" stroke="#6FFFEE" stroke-miterlimit="10" stroke-linecap="round"/>
<path d="M69.7295 13.1455C71.1295 14.1455 72.0595 15.7655 72.2195 17.4855" stroke="#6FFFEE" stroke-miterlimit="10" stroke-linecap="round"/>
</svg>
