<svg width="255" height="229" viewBox="0 0 255 229" fill="none" xmlns="http://www.w3.org/2000/svg">
<g clip-path="url(#clip0_258_308)">
<path d="M109.119 23.2312C95.0489 35.2382 85.685 52.7858 82.9853 72.0128C80.5288 89.4943 84.0068 107.452 91.7046 122.937C99.3051 138.236 111.089 151.235 125.366 159.169C139.582 167.077 155.743 169.325 171.407 166.283C186.826 163.295 201.456 155.308 212.911 143.698C224.33 132.114 232.235 116.841 234.947 100.086C237.646 83.3718 235.567 65.9697 229.474 50.3791C223.406 34.8415 213.203 21.0758 199.887 12.2293C186.389 3.26371 170.215 -0.465327 154.503 0.72479C138.828 1.91491 123.481 7.83904 111.113 18.4575C108.024 21.1022 105.544 24.2494 102.893 27.3702C102.126 28.2826 103.367 29.6446 104.145 28.7322C106.723 25.704 109.934 23.1387 112.95 20.6659C115.929 18.2327 119.079 16.0641 122.374 14.1599C129.063 10.2854 136.165 7.42912 143.583 5.73651C158.419 2.35128 174.191 3.56785 188.274 9.74323C202.21 15.8525 213.763 27.1057 221.497 41.0301C229.219 54.9412 233.244 71.2458 232.892 87.4975C232.539 103.762 227.529 119.644 218.177 132.418C208.838 145.179 195.935 154.739 181.731 159.883C167.491 165.04 151.913 165.794 137.514 160.915C122.69 155.89 109.751 145.218 100.497 131.743C91.3033 118.322 85.5148 101.991 85.004 85.1702C84.4568 66.6705 90.1967 47.7609 100.716 33.2018C103.282 29.6446 106.152 26.3784 109.301 23.4164C109.423 23.3106 109.241 23.1122 109.119 23.2312Z" fill="#31DAE7"/>
<path d="M92.3491 49.5064C88.5306 58.7893 94.9272 67.8342 100.29 74.4989C103.233 78.1486 106.358 81.9437 108.024 86.5191C109.982 91.9143 108.547 96.9789 107.745 102.44C107.112 106.725 107.149 111.578 109.678 115.188C112.22 118.811 116.257 119.604 120.222 119.155C123.846 118.758 128.26 117.145 131.75 118.956C134.948 120.609 135.812 124.722 135.885 128.239C136.079 137.231 130.206 149.066 137.952 156.114C138.816 156.895 140.384 155.863 139.642 154.7C137.405 151.235 137.393 146.554 137.879 142.494C138.402 138.236 139.618 134.111 139.752 129.786C139.861 126.031 139.351 121.905 137.283 118.771C134.997 115.307 131.337 113.905 127.506 114.05C123.809 114.196 119.93 115.783 116.233 115.016C112.281 114.196 110.906 109.898 110.858 105.971C110.797 100.681 112.633 95.5904 111.916 90.2613C111.308 85.7785 109.131 81.8644 106.577 78.3602C100.728 70.3203 89.5035 61.3944 92.6045 49.6254C92.6531 49.4535 92.4099 49.3345 92.3491 49.5064Z" fill="#31DAE7"/>
<path d="M171.589 163.573C174.568 152.134 173.729 139.783 169.084 128.993C166.712 123.479 163.405 118.546 159.489 114.222C155.123 109.409 150.149 105.217 146.246 99.9277C142.719 95.154 139.849 88.9125 140.627 82.6181C141.309 77.1436 144.604 72.5815 148.009 68.707C151.706 64.4754 155.853 60.7464 159.088 56.052C162.274 51.4238 164.949 45.6319 164.621 39.6945C164.438 36.349 163.332 33.2811 161.447 30.6364C159.635 28.1107 157.3 26.1801 155.123 24.0379C153.165 22.1205 151.511 20.1237 150.757 17.3203C150.089 14.8343 150.125 12.3351 152.095 10.5763C153.469 9.34656 151.706 6.96633 150.222 7.93164C146.003 10.6821 146.051 16.5798 147.875 20.9568C150.076 26.2594 155.099 28.9438 158.285 33.3869C161.678 38.1342 160.778 44.1244 158.346 49.1097C155.683 54.5446 151.584 58.6042 147.596 62.8489C143.874 66.816 140.165 71.0872 138.098 76.3634C135.787 82.2214 136.104 88.5158 138.414 94.3209C143.388 106.804 155.391 113.098 162.395 123.902C169.68 135.129 172.878 149.727 170.823 163.308C170.713 163.903 171.443 164.141 171.589 163.573Z" fill="#31DAE7"/>
<path d="M196.75 25.9156C190.353 28.4678 189.417 37.0102 190.049 43.4368C190.511 48.1444 191.63 52.9577 191.071 57.705C190.523 62.3068 187.812 65.3746 185.282 68.8656C182.777 72.3038 181.087 76.1386 181.269 80.6213C181.451 84.8793 183.154 89.0183 186.17 91.7952C192.25 97.402 200.349 96.3838 206.308 91.2134C209.64 88.3174 212.206 84.562 214.638 80.7933C216.219 78.3337 217.788 75.8741 219.357 73.4013C220.95 70.9153 222.737 68.4822 224.099 65.8374C224.878 64.3035 222.932 62.5051 221.801 63.9068C218.943 67.411 216.608 71.55 214.079 75.3319C211.939 78.5453 209.847 81.8115 207.39 84.7603C202.976 90.0629 196.604 94.2812 190.146 90.2745C187.07 88.3703 185.051 84.9719 184.711 81.1371C184.346 77.051 185.963 73.7187 188.262 70.6244C190.499 67.6094 192.798 64.7267 193.722 60.8918C194.67 56.9116 194.208 52.7329 193.6 48.7394C192.506 41.5723 190.523 31.6414 197.029 26.6033C197.321 26.3785 197.151 25.7569 196.75 25.9156Z" fill="#31DAE7"/>
<path d="M227.346 103.128C218.432 98.3012 207.342 96.1061 198.975 103.353C195.607 106.262 193.15 110.427 192.627 115.122C192.019 120.57 194.342 125.581 196.835 130.117C198.27 132.722 199.814 135.301 200.726 138.183C201.711 141.251 201.711 143.817 200.86 146.898C200.143 149.463 203.596 151.01 204.825 148.709C207.208 144.253 205.895 138.593 204.083 134.203C202.222 129.694 199.17 125.793 197.638 121.112C194.634 111.869 201.772 104.344 209.677 102.586C215.429 101.303 221.424 102.467 227.067 103.829C227.444 103.908 227.723 103.326 227.346 103.128Z" fill="#31DAE7"/>
<path d="M104.109 43.3839C101.093 44.0451 100.181 48.594 101.518 51.6089C102.856 54.6239 105.531 56.5942 107.733 58.9348C109.922 61.2753 111.782 64.6738 110.773 67.8342" stroke="#31DAE7" stroke-miterlimit="10" stroke-linecap="round"/>
<path d="M139.983 54.8487C142.889 53.3147 144.896 49.9427 145.005 46.4253C145.115 42.9078 143.315 39.4036 140.518 37.6581" stroke="#31DAE7" stroke-miterlimit="10" stroke-linecap="round"/>
<path d="M91.0358 90.8035C91.9843 99.5574 94.988 108.034 99.6699 115.227" stroke="#31DAE7" stroke-miterlimit="10" stroke-linecap="round"/>
<path d="M107.55 128.477C110.055 132.339 113.424 135.552 117.279 137.734" stroke="#31DAE7" stroke-miterlimit="10" stroke-linecap="round"/>
<path d="M200.714 31.7472C197.893 39.483 197.394 48.1973 199.328 56.2504" stroke="#31DAE7" stroke-miterlimit="10" stroke-linecap="round"/>
<path d="M195.68 75.4244C193.405 76.0327 191.715 78.5584 191.861 81.0973C192.007 83.6362 193.989 85.8975 196.324 86.1884" stroke="#31DAE7" stroke-miterlimit="10" stroke-linecap="round"/>
<path d="M205.53 113.958C203.596 120.146 204.715 127.353 208.412 132.51" stroke="#31DAE7" stroke-miterlimit="10" stroke-linecap="round"/>
<path d="M210.905 111.273C213.896 109.673 217.484 109.435 220.633 110.639" stroke="#31DAE7" stroke-miterlimit="10" stroke-linecap="round"/>
<path d="M155.002 125.806C161.946 134.111 165.338 145.774 164.062 156.908" stroke="#31DAE7" stroke-miterlimit="10" stroke-linecap="round"/>
<path d="M119.869 99.1475C118.75 101.594 119.091 104.741 120.708 106.817C122.326 108.906 125.123 109.792 127.53 108.999" stroke="#31DAE7" stroke-miterlimit="10" stroke-linecap="round"/>
<path d="M164.682 13.1946C172.148 12.3219 179.907 15.1253 185.428 20.6527" stroke="#31DAE7" stroke-miterlimit="10" stroke-linecap="round"/>
<path d="M8.34224 82.023C0.267461 89.8117 -2.28631 102.625 2.17671 113.31C6.56676 123.823 17.0615 130.487 27.6293 129.39C38.7686 128.239 47.9743 119.432 50.5281 107.584C52.9481 96.3706 48.5823 84.8 40.0455 78.1353C30.6695 70.8227 15.3712 71.2988 7.62475 81.2825C6.91942 82.1949 7.86797 83.914 8.90163 83.0809C12.6836 80.0527 16.794 77.6989 21.4516 76.813C26.0119 75.9534 30.9127 76.6014 35.0717 78.8229C43.2924 83.2131 48.704 92.8002 48.0959 102.797C47.4879 113.297 40.7021 122.553 31.3748 125.33C21.9623 128.147 11.9175 124.061 6.46947 115.254C0.364747 105.363 1.76324 91.6498 9.36374 83.1338C10.0204 82.4065 9.0354 81.3619 8.34224 82.023Z" fill="#31DAE7"/>
<path d="M15.7847 91.1605C12.9269 93.1837 11.419 96.8863 11.6135 100.549C11.8324 104.45 13.839 107.875 17.2075 109.369C20.3328 110.771 24.2 110.295 26.9726 108.206C29.9034 105.997 31.3384 102.334 30.8641 98.4996C30.3534 94.4664 27.7023 90.1291 23.8108 89.3886C22.8501 89.2035 22.0232 90.7638 23.0812 91.2531C25.6593 92.4432 27.6172 94.6251 28.3468 97.6136C29.04 100.443 28.4076 103.432 26.3403 105.389C24.431 107.201 21.5003 107.888 19.056 107.254C16.3806 106.553 14.5565 104.305 13.9363 101.422C13.2309 98.1558 14.1673 94.44 16.5873 92.2978C17.1832 91.782 16.4171 90.7109 15.7847 91.1605Z" fill="#31DAE7"/>
<path d="M17.9372 95.9077C15.3469 96.9259 14.9091 101.091 17.171 102.757C17.5115 103.009 18.0101 102.824 18.2169 102.467C18.4358 102.057 18.2898 101.581 17.9493 101.329C17.9128 101.303 17.8885 101.29 17.852 101.263C17.925 101.329 17.9372 101.343 17.9007 101.303C17.852 101.25 17.8034 101.21 17.7548 101.171C17.7183 101.131 17.6818 101.091 17.6453 101.038C17.6088 100.999 17.5237 100.853 17.6331 101.025C17.5723 100.933 17.5115 100.84 17.4629 100.734C17.4386 100.681 17.4143 100.602 17.3778 100.549C17.3413 100.496 17.4264 100.708 17.3656 100.536C17.3291 100.417 17.2926 100.298 17.2683 100.166C17.2562 100.113 17.244 100.047 17.2318 99.9938C17.2197 99.888 17.2197 99.8483 17.2318 99.9805C17.2075 99.7161 17.1954 99.4648 17.2197 99.2004C17.2197 99.1607 17.2562 98.9623 17.2197 99.1739C17.2318 99.121 17.2318 99.0549 17.244 99.002C17.2683 98.8698 17.2926 98.7508 17.3291 98.6317C17.3534 98.5656 17.3656 98.4995 17.3899 98.4334C17.4386 98.2747 17.3291 98.5656 17.4021 98.4069C17.4507 98.3012 17.4994 98.1954 17.5602 98.1028C17.5845 98.0499 17.621 98.0102 17.6453 97.9573C17.7183 97.8251 17.5602 98.0499 17.6818 97.9044C17.7548 97.8119 17.8399 97.7193 17.925 97.64C17.9493 97.6135 18.0831 97.5077 17.9493 97.6135C17.998 97.5739 18.0345 97.5474 18.0831 97.5077C18.1317 97.4813 18.1804 97.4416 18.229 97.4152C18.2533 97.402 18.4722 97.2962 18.3142 97.3623C18.6547 97.2168 18.8979 96.873 18.7884 96.4499C18.6911 96.0531 18.2898 95.7622 17.9372 95.9077Z" fill="#31DAE7"/>
<path d="M32.4207 108.391C31.5816 110.335 32.0437 112.821 33.5152 114.275C35.0718 115.796 37.3945 115.836 39.097 114.54C40.0212 113.839 40.7873 112.768 40.9454 111.538C41.0062 111.128 40.8481 110.705 40.4468 110.586C40.0698 110.467 39.6807 110.731 39.5713 111.128C39.0483 113.019 37.1513 114.262 35.4487 113.654C33.7827 113.059 32.9314 110.705 33.6003 108.933C33.8678 108.206 32.7247 107.677 32.4207 108.391Z" fill="#31DAE7"/>
<path d="M35.4365 106.936C36.3851 105.693 38.6348 106.381 38.8537 107.981" stroke="#31DAE7" stroke-miterlimit="10" stroke-linecap="round"/>
<path d="M35.8136 110.559C36.2149 110.665 36.6284 110.771 37.0297 110.877" stroke="#31DAE7" stroke-miterlimit="10" stroke-linecap="round"/>
<path d="M35.9352 90.2877C34.9745 91.3456 35.1082 93.3291 36.1905 94.2283C37.285 95.1275 39.0727 94.7441 39.7537 93.4481" stroke="#31DAE7" stroke-miterlimit="10" stroke-linecap="round"/>
<path d="M19.6761 117.528C21.5246 116.761 23.8351 117.885 24.5648 119.882" stroke="#31DAE7" stroke-miterlimit="10" stroke-linecap="round"/>
<path d="M100.923 13.0359C79.4587 13.8822 49.7134 37.3011 37.1512 68.9053" stroke="#31DAE7" stroke-miterlimit="10" stroke-linecap="round"/>
<path d="M25.5012 136.438C26.2795 154.025 33.0896 170.991 43.4384 184.518C53.7873 198.059 67.529 208.268 82.3895 215.237C110.469 228.394 142.987 230.021 172.051 219.706C201.128 209.392 226.507 187.243 242.049 158.614" stroke="#31DAE7" stroke-miterlimit="10" stroke-linecap="round"/>
<path d="M242.547 59.715C255.304 81.7454 257.043 113.455 248.871 137.734" stroke="#31DAE7" stroke-miterlimit="10" stroke-linecap="round"/>
<path d="M196.701 207.197C196.251 206.02 195.108 205.081 193.892 205.134C192.822 205.187 191.788 205.769 191.229 206.787C190.669 207.818 190.657 209.511 191.411 210.516C191.897 211.494 192.834 212.235 193.892 212.182C194.925 212.129 195.813 211.534 196.312 210.582C197.029 209.709 197.102 208.215 196.701 207.197Z" fill="#31DAE7"/>
<path d="M129.44 222.854C126.095 222.854 126.095 228.5 129.44 228.5C132.784 228.5 132.784 222.854 129.44 222.854Z" fill="#31DAE7"/>
<path d="M35.8014 169.959C32.4572 169.959 32.4572 175.606 35.8014 175.606C39.1456 175.606 39.1456 169.959 35.8014 169.959Z" fill="#31DAE7"/>
<path d="M51.1483 189.173L51.1362 189.16C50.4552 188.221 49.0323 188.115 48.1081 188.538C47.1353 188.988 46.357 190.099 46.4056 191.289C46.4542 192.347 46.9285 193.352 47.7798 193.894C48.7405 194.502 50.3943 194.449 51.1362 193.418L51.1483 193.405C52.4495 192.387 52.4495 190.191 51.1483 189.173Z" fill="#31DAE7"/>
<path d="M50.0295 47.1658C48.9229 45.4996 47.0015 45.4996 45.8949 47.1658C45.5057 47.7608 45.4206 48.4484 45.4935 49.1361C45.6273 50.5245 46.5272 51.8866 47.9622 51.8204C49.4215 51.7543 50.2849 50.6303 50.4308 49.1361C50.5038 48.4484 50.4065 47.7344 50.0295 47.1658Z" fill="#31DAE7"/>
<path d="M76.3821 21.9221C76.1997 21.565 76.0294 21.1948 75.8227 20.851C75.1538 19.7402 73.9256 19.2377 72.7825 19.7666C71.7731 20.2294 70.9097 21.6708 71.3718 22.8874C71.5907 23.4824 71.8461 24.051 72.1136 24.6329C72.6974 25.8891 74.412 26.3519 75.4944 25.5982C76.6496 24.7783 77.0388 23.2444 76.3821 21.9221Z" fill="#31DAE7"/>
<path d="M254.733 88.0661C254.441 86.9289 253.383 85.9636 252.264 86.0297C251.23 86.0826 250.33 86.6909 249.929 87.7355C249.43 89.005 249.868 90.486 250.975 91.2133C251.802 91.7555 252.726 91.7555 253.553 91.2133C254.526 90.5786 255.037 89.2695 254.733 88.0661Z" fill="#31DAE7"/>
<path d="M252.264 115.333C249.832 115.333 249.832 120.464 252.264 120.464C255.912 120.464 255.912 115.333 252.264 115.333Z" fill="#31DAE7"/>
</g>
<defs>
<clipPath id="clip0_258_308">
<rect width="255" height="228" fill="white" transform="translate(0 0.5)"/>
</clipPath>
</defs>
</svg>
