<svg width="228" height="172" viewBox="0 0 228 172" fill="none" xmlns="http://www.w3.org/2000/svg">
<path d="M17.1601 115.564C15.1442 116.806 13.9845 117.444 12.8885 119.384C12.0468 120.876 11.3667 122.536 10.9263 124.191C10.3783 126.248 10.5593 128.428 9.98683 130.485C9.40455 132.572 8.39656 134.659 6.83076 136.186C5.13285 137.836 3.13646 139.127 1.29175 140.585C2.01593 140.983 6.31699 144.405 12.9667 143.256C12.1741 144.705 10.6034 145.446 9.60516 146.669C13.9209 147.445 16.0152 147.042 19.959 145.49C23.1395 144.233 23.3304 143.296 25.5421 141.636C25.2729 142.751 24.9598 144.042 24.5047 145.107C25.4344 144.425 28.4388 143.266 30.4548 139.721C33.7038 134.006 35.2794 126.621 31.7661 120.68C29.941 117.596 27.1911 115.873 24.1965 114.081" fill="white"/>
<path d="M17.2483 115.701C16.715 116.064 16.1523 116.398 15.6434 116.776L14.885 117.351C14.6501 117.562 14.4446 117.798 14.2244 118.019C13.9895 118.225 13.8134 118.485 13.6519 118.755L13.1528 119.521L12.3503 121.289C12.0469 121.868 11.905 122.482 11.7093 123.081L11.4304 123.979L11.357 124.2C11.3521 124.225 11.3277 124.303 11.3326 124.289L11.313 124.407L11.2347 124.888L11.0781 125.845L11.0047 126.788L10.8481 128.723C10.7747 129.39 10.6475 130.034 10.5056 130.746C10.2952 131.369 10.1729 131.978 9.89397 132.611C9.61506 133.24 9.3753 133.898 8.99364 134.467L8.46518 135.351L7.8095 136.156L7.47188 136.559C7.40337 136.638 7.39848 136.667 7.27126 136.78L7.08532 136.942L6.36114 137.58L4.90299 138.857C4.41857 139.279 3.88032 139.667 3.37633 140.075L1.835 141.283L1.71756 139.81L2.41728 140.232C2.63258 140.355 2.83809 140.492 3.05339 140.6C3.48887 140.811 3.90479 141.066 4.35496 141.229C4.80023 141.41 5.23572 141.621 5.70546 141.734C6.17031 141.852 6.61558 142.049 7.09021 142.107L8.50433 142.348C8.97896 142.377 9.45848 142.377 9.93801 142.397C10.1729 142.397 10.4126 142.427 10.6475 142.412L11.357 142.323L12.776 142.161L12.9032 142.147C13.4904 142.078 14.0238 142.505 14.0923 143.094C14.1167 143.35 14.058 143.59 13.9357 143.792L13.5296 144.435L13.0745 144.999C12.7516 145.338 12.4286 145.648 12.1057 145.923L11.2151 146.698C10.9509 146.944 10.716 147.189 10.5203 147.43L9.8059 145.49C10.4909 145.574 11.1907 145.702 11.8659 145.731C12.2035 145.756 12.546 145.795 12.8788 145.78C13.2115 145.77 13.5394 145.795 13.8672 145.756C14.1901 145.716 14.518 145.702 14.836 145.653L15.8049 145.466C16.4459 145.284 17.0869 145.103 17.7377 144.852C18.0606 144.744 18.3933 144.607 18.7163 144.474L19.2056 144.278L19.3279 144.229L19.3866 144.204L19.416 144.194L19.4356 144.189C19.3915 144.209 19.5334 144.145 19.3426 144.229H19.3475L19.3524 144.224L19.597 144.101L20.5708 143.615C20.8839 143.453 21.2705 143.301 21.4417 143.114C21.6619 142.937 21.887 142.77 22.1121 142.608C22.3519 142.402 22.6161 142.137 22.8705 141.906C23.3696 141.435 24.0253 140.89 24.5978 140.384C25.229 139.829 26.193 139.893 26.7459 140.531C27.0786 140.914 27.1863 141.415 27.0835 141.872L27.0493 142.004L26.6285 143.836L25.9972 145.751L23.536 143.787L24.1721 143.369L24.6908 143.055C25.0039 142.854 25.3318 142.667 25.6107 142.456C25.9043 142.255 26.1881 142.049 26.4474 141.823C26.7263 141.612 26.9759 141.376 27.2156 141.135C27.475 140.909 27.7049 140.654 27.9153 140.389C28.1404 140.129 28.3606 139.873 28.5368 139.574C28.7129 139.284 28.9331 139.014 29.0897 138.715C29.2805 138.376 29.4958 138.008 29.6622 137.683C29.9998 137.05 30.3032 136.368 30.6115 135.68C30.9051 134.993 31.1693 134.291 31.4041 133.579C31.6243 132.867 31.825 132.145 31.9815 131.418C32.1234 130.691 32.2556 129.96 32.3241 129.223C32.4757 127.75 32.4121 126.272 32.1528 124.829C32.0207 124.107 31.8396 123.39 31.5754 122.703C31.4678 122.349 31.3112 122.015 31.1546 121.677L30.9295 121.166L30.6555 120.69C30.4549 120.341 30.2592 119.988 30.0488 119.717C29.8383 119.428 29.6475 119.123 29.3833 118.843C28.9087 118.254 28.3802 117.699 27.8126 117.169C27.245 116.644 26.6334 116.143 26.007 115.657L24.1036 114.213C24.0302 114.159 24.0204 114.056 24.0742 113.982C24.1183 113.919 24.2064 113.904 24.27 113.933C25.7281 114.601 27.1569 115.338 28.5319 116.246C29.212 116.703 29.8873 117.194 30.5038 117.768C31.1057 118.323 31.7613 119.045 32.2017 119.659L32.5883 120.179L32.921 120.729C33.1461 121.097 33.3614 121.465 33.5327 121.858C33.9192 122.629 34.2226 123.439 34.4624 124.269C34.9566 125.929 35.1278 127.667 35.0985 129.385C35.0789 130.245 35.0104 131.099 34.8832 131.944C34.751 132.788 34.57 133.623 34.3596 134.443C34.1345 135.263 33.8801 136.073 33.5914 136.868C33.2978 137.659 32.9553 138.435 32.5736 139.225C32.3877 139.618 32.2066 139.942 32.0207 140.305C31.8103 140.718 31.5509 141.086 31.3112 141.474C31.0714 141.867 30.7827 142.215 30.4891 142.564C30.2053 142.923 29.8971 143.261 29.5643 143.566C29.2414 143.89 28.9087 144.194 28.5417 144.454C28.1894 144.744 27.8224 144.995 27.4554 145.23C27.0884 145.486 26.7165 145.682 26.3544 145.903L25.8407 146.193L25.4639 146.418L25.415 146.448C24.6272 146.919 23.6094 146.659 23.1397 145.869C22.8803 145.427 22.8461 144.906 23.0075 144.454L23.5507 142.942L24.0253 141.258L26.4768 142.883C25.9385 143.315 25.4541 143.664 24.8669 144.17C24.5733 144.415 24.3042 144.656 23.9813 144.906L22.8608 145.653C22.4693 145.932 22.161 146.026 21.8234 146.188L20.8301 146.635L20.5806 146.747L20.4533 146.801L20.4191 146.816L20.3555 146.841L20.2234 146.89L19.6949 147.076C19.3426 147.199 18.9952 147.332 18.6233 147.44C17.9089 147.68 17.1456 147.867 16.3774 148.044L15.1981 148.225C14.8018 148.275 14.4005 148.284 13.9993 148.309C13.603 148.338 13.2066 148.299 12.8152 148.294C12.4188 148.294 12.0372 148.235 11.6506 148.196C10.8726 148.132 10.1484 147.97 9.39977 147.847H9.3802C8.7392 147.744 8.3086 147.145 8.41136 146.507C8.44561 146.276 8.54836 146.075 8.69026 145.913C9.01321 145.545 9.35084 145.216 9.68357 144.931L10.6377 144.16C10.9313 143.919 11.1955 143.684 11.4402 143.448L11.7534 143.089L12.0078 142.721L13.1626 144.351L11.5283 144.484L10.7111 144.548C10.442 144.558 10.1631 144.523 9.89397 144.508C9.34594 144.469 8.80281 144.445 8.25967 144.386L6.65472 144.057C6.11648 143.963 5.61249 143.733 5.09382 143.576C4.57025 143.423 4.08583 143.168 3.59163 142.947C3.08764 142.736 2.63258 142.441 2.15794 142.181C1.92307 142.049 1.70288 141.896 1.4778 141.754L0.875945 141.361L0.787869 141.302C0.391525 141.042 0.283877 140.507 0.543212 140.114C0.60193 140.026 0.675327 139.947 0.75851 139.888L2.31452 138.764C2.8283 138.381 3.36165 138.027 3.86075 137.62L5.37762 136.412L6.13605 135.808L6.32689 135.656C6.32689 135.67 6.41007 135.562 6.45411 135.523L6.75259 135.189L7.35933 134.526L7.86333 133.765C8.23031 133.274 8.46029 132.714 8.7343 132.174C9.01321 131.644 9.18447 130.976 9.41934 130.387C9.54656 129.837 9.71293 129.209 9.81079 128.6L10.0554 126.67L10.1876 125.678L10.3882 124.731L10.4909 124.254L10.5154 124.137C10.5399 124.043 10.5448 124.043 10.5594 123.994L10.6426 123.758L10.9851 122.816C11.22 122.192 11.4108 121.549 11.7387 120.994L12.6243 119.266L13.2164 118.431C13.4023 118.151 13.6079 117.886 13.8721 117.67C14.1167 117.444 14.3516 117.203 14.6109 116.992L15.4232 116.438C15.9712 116.069 16.5339 115.77 17.0869 115.431C17.1652 115.382 17.263 115.406 17.3071 115.485C17.3413 115.559 17.3168 115.657 17.2483 115.701Z" fill="#3E266D"/>
<path d="M31.7664 120.68C29.9412 117.596 27.1913 115.873 24.1967 114.081L23.6242 114.198C26.4329 118.878 29.0849 124.672 28.6935 129.886C28.3754 134.128 25.3564 137.541 22.5282 140.433C20.9379 142.063 16.8032 145.127 16.0546 141.125C15.7659 139.598 11.9884 141.302 11.0048 141.444C9.89411 141.606 8.7589 141.675 7.63348 141.597C5.63219 141.464 3.58197 141.037 1.89385 140.114C1.68834 140.271 1.48772 140.423 1.29199 140.58C2.01617 140.978 6.31723 144.4 12.967 143.251C12.1743 144.7 10.6036 145.441 9.60541 146.664C13.9211 147.44 16.0154 147.037 19.9593 145.485C23.1398 144.228 23.3306 143.291 25.5423 141.631C25.2732 142.746 24.96 144.037 24.505 145.102C25.4347 144.42 28.439 143.261 30.455 139.716C33.7089 134.006 35.2796 126.626 31.7664 120.68Z" fill="white"/>
<path d="M31.6292 120.768L30.9344 119.703L30.1515 118.73L29.2805 117.827L28.3313 117.002C27.6658 116.487 26.9808 116.005 26.2713 115.544C25.5618 115.092 24.8327 114.665 24.0987 114.248L24.2357 114.272L23.673 114.405L23.81 114.09C24.3825 115.028 24.9648 115.956 25.4835 116.928C26.0364 117.876 26.4915 118.883 26.9857 119.875C27.4309 120.886 27.886 121.897 28.2236 122.958C28.4242 123.479 28.5857 124.014 28.7178 124.559C28.8402 125.104 29.0408 125.634 29.0995 126.199L29.3393 127.878L29.3735 129.592C29.3686 129.758 29.3931 129.827 29.3588 130.068L29.305 130.475L29.2023 131.29C29.124 131.835 28.9087 132.439 28.757 133.014C28.5662 133.574 28.3117 134.084 28.0915 134.624C27.8273 135.13 27.5288 135.621 27.245 136.122L26.2664 137.521L25.2144 138.837C24.4755 139.692 23.7513 140.497 22.9586 141.312C22.1072 142.142 21.2167 142.863 20.1206 143.448C19.5677 143.728 18.9805 143.998 18.2172 144.071C17.8404 144.101 17.4245 144.096 16.9939 143.939C16.7786 143.885 16.5829 143.767 16.3969 143.634C16.1963 143.517 16.0349 143.369 15.9076 143.202C15.5945 142.878 15.4624 142.539 15.296 142.191C15.2324 142.024 15.1981 141.862 15.1492 141.7L15.0807 141.449L15.0464 141.327C15.0709 141.405 14.9926 141.135 15.0954 141.498L15.0905 141.484L15.0807 141.459L15.066 141.41L15.0269 141.317C15.0171 141.297 14.9926 141.209 15.0073 141.292C15.0318 141.39 15.0954 141.484 15.1737 141.533C15.1981 141.582 15.2569 141.572 15.1981 141.572C15.1492 141.552 14.9339 141.562 14.7431 141.582C13.8623 141.695 12.8788 142.073 11.7729 142.417C11.5381 142.505 10.9705 142.598 10.7796 142.608L9.96738 142.701C9.4585 142.785 8.80771 142.76 8.21564 142.775H7.76058C7.66761 142.77 7.65293 142.785 7.49146 142.765L7.28595 142.746L6.47369 142.672C5.95502 142.647 5.31402 142.495 4.73663 142.402C4.13478 142.304 3.57696 142.093 2.99957 141.935C2.42708 141.739 1.87415 141.464 1.31144 141.224L2.68152 141.12L2.10413 141.582L1.93287 139.451L2.65216 139.888C2.85767 140.006 3.06318 140.143 3.27359 140.251C3.6944 140.462 4.10052 140.708 4.54091 140.87C4.98129 141.042 5.4021 141.253 5.85716 141.361C6.30732 141.474 6.74281 141.665 7.20277 141.724L8.57773 141.96C9.04258 141.989 9.50743 141.989 9.96738 142.009C10.1974 142.009 10.4273 142.034 10.6573 142.019L11.3521 141.931L12.732 141.769L12.8984 141.749C13.6959 141.656 14.4152 142.225 14.5082 143.026C14.5473 143.364 14.4642 143.698 14.2978 143.968L13.8672 144.656L13.3779 145.255C13.0403 145.613 12.7075 145.932 12.3846 146.217L11.5038 146.988L11.1417 147.337L10.853 147.67L9.89888 145.078C10.579 145.156 11.269 145.299 11.9246 145.328C12.2574 145.353 12.5901 145.397 12.9081 145.382C13.2311 145.373 13.5589 145.402 13.8721 145.368C14.1853 145.333 14.5033 145.319 14.8165 145.274L15.7511 145.098C16.3774 144.931 17.0086 144.754 17.6594 144.528C17.9823 144.43 18.3102 144.302 18.638 144.179L19.1273 143.993L19.2496 143.949L19.3084 143.924L19.3377 143.909L19.3524 143.904C19.3035 143.929 19.4698 143.855 19.2399 143.954L19.2447 143.949L19.4943 143.836L20.4827 143.374C20.8008 143.222 21.1922 143.075 21.3586 142.913C21.5739 142.755 21.7941 142.603 22.0191 142.456C22.2687 142.264 22.5378 142.009 22.7972 141.793C23.306 141.346 23.9911 140.811 24.5929 140.34L24.6174 140.32C25.3024 139.785 26.2957 139.908 26.8291 140.595C27.1471 141.007 27.2303 141.533 27.1031 141.999L26.5942 143.806L25.8994 145.687L23.6339 143.875C24.3189 143.438 24.7838 143.242 25.2731 142.962C25.7477 142.692 26.2077 142.431 26.6236 142.112C27.064 141.818 27.4407 141.464 27.8518 141.13C28.209 140.752 28.6151 140.404 28.9185 139.976C29.2463 139.53 29.5497 139.176 29.8579 138.641C30.1858 138.135 30.4353 137.664 30.7142 137.173C30.9687 136.672 31.2427 136.171 31.4678 135.646C31.7124 135.13 31.9277 134.605 32.1283 134.07C32.5296 133.004 32.8623 131.909 33.0678 130.785C33.195 130.225 33.2538 129.655 33.3272 129.086C33.3516 128.516 33.4152 127.942 33.3859 127.367C33.3859 126.793 33.3369 126.223 33.2684 125.649C33.1999 125.074 33.0825 124.51 32.9357 123.955C32.7791 123.4 32.6128 122.85 32.3828 122.315C32.192 121.765 31.8886 121.269 31.639 120.748L31.6292 120.768ZM31.9033 120.596C32.1822 121.122 32.5149 121.618 32.7351 122.172C32.9944 122.708 33.195 123.272 33.3761 123.837C33.5522 124.402 33.6893 124.986 33.8214 125.57C33.9339 126.159 34.0367 126.749 34.0856 127.348C34.1639 127.947 34.1443 128.546 34.1639 129.145C34.1492 129.744 34.1541 130.348 34.0856 130.947C34.0465 131.551 33.9535 132.145 33.8605 132.744C33.748 133.333 33.6501 133.932 33.4984 134.516C33.3614 135.106 33.1999 135.69 33.014 136.269C32.8476 136.854 32.6177 137.413 32.4121 137.988C32.1773 138.552 31.9375 139.147 31.688 139.662C31.4727 140.183 31.1106 140.791 30.7974 141.327C30.4794 141.891 30.0537 142.382 29.6622 142.903C29.2218 143.374 28.7912 143.87 28.2823 144.268C27.7979 144.7 27.2695 145.068 26.7557 145.422C26.2517 145.765 25.6792 146.109 25.3954 146.325C24.7397 146.826 23.8002 146.688 23.3109 146.035C23.0125 145.638 22.9391 145.142 23.0761 144.7L23.1299 144.518L23.6045 142.971L23.9911 141.263L26.5013 142.922C25.9875 143.389 25.5226 143.752 24.955 144.273C24.6663 144.533 24.4119 144.783 24.0889 145.044C23.722 145.314 23.3452 145.584 22.9684 145.839C22.5672 146.143 22.2687 146.242 21.936 146.413L20.9524 146.88L20.7078 146.998L20.5267 147.076L20.4631 147.101L20.331 147.15L19.8026 147.351C19.4552 147.484 19.1028 147.621 18.731 147.739C18.0117 148.004 17.2386 148.201 16.4508 148.382L15.2422 148.584C14.836 148.633 14.425 148.648 14.014 148.677C13.6079 148.706 13.2017 148.672 12.8005 148.672C12.3895 148.672 12.0078 148.618 11.6164 148.584C10.8237 148.52 10.0897 148.368 9.32638 148.245L9.2432 148.23C8.40648 148.098 7.83398 147.307 7.97099 146.467C8.02481 146.148 8.16671 145.868 8.37222 145.652L8.89579 145.098L9.41935 144.631L10.3784 143.855C10.6671 143.62 10.9264 143.399 11.1466 143.178L11.4353 142.854C11.5038 142.746 11.5772 142.638 11.6604 142.535L13.2213 144.734L11.5479 144.867L10.716 144.931C10.4371 144.94 10.1533 144.906 9.87441 144.891C9.3166 144.852 8.75389 144.828 8.20096 144.769L6.55198 144.435C5.99906 144.337 5.48528 144.106 4.95193 143.944C4.41368 143.787 3.91948 143.531 3.41059 143.305C2.89682 143.094 2.42708 142.79 1.94266 142.53C1.70289 142.392 1.4827 142.24 1.25273 142.093L0.670444 141.71L0.562795 141.636C-0.0145933 141.253 -0.176066 140.477 0.200704 139.898C0.283887 139.775 0.386643 139.662 0.499185 139.579L1.1255 139.107C1.50717 138.822 1.98669 138.783 2.39282 138.955L2.50047 139.004C2.93596 139.196 3.35188 139.426 3.80694 139.598C4.27668 139.731 4.74152 139.937 5.22105 140.021C5.71526 140.109 6.13117 140.251 6.70367 140.3L7.51593 140.399L7.72144 140.423C7.69697 140.423 7.8193 140.423 7.85844 140.428L8.22543 140.433C8.71474 140.433 9.16491 140.492 9.73251 140.423L10.5448 140.354C10.8922 140.325 10.8677 140.335 11.1515 140.261C12.1399 139.996 13.2115 139.593 14.5082 139.451C14.8556 139.431 15.1932 139.397 15.6777 139.515C15.893 139.549 16.1914 139.692 16.4508 139.873C16.622 140.021 16.7786 140.212 16.896 140.413C16.9694 140.541 16.9499 140.526 16.9694 140.57L17.0037 140.669L17.0233 140.718L17.0282 140.742L17.0869 140.949L17.1065 141.022L17.1456 141.174C17.1701 141.273 17.1896 141.381 17.219 141.469C17.2973 141.611 17.3511 141.798 17.4343 141.862C17.5762 142.034 17.7034 142.098 18.0459 142.093C18.3787 142.088 18.819 141.921 19.235 141.724C20.0815 141.312 20.9378 140.674 21.662 140.006C22.4155 139.274 23.1788 138.484 23.8883 137.703L24.9208 136.495L25.8603 135.233L26.6725 133.908C26.8878 133.446 27.1471 132.984 27.3331 132.523C27.4701 132.047 27.6805 131.629 27.7881 131.099L27.9349 130.289L28.0083 129.886C28.0279 129.857 28.023 129.655 28.0279 129.547L28.0768 127.981L27.93 126.405C27.9105 125.875 27.7539 125.354 27.6707 124.829C27.5875 124.303 27.4652 123.778 27.3037 123.267C27.0395 122.222 26.6676 121.21 26.2957 120.194C25.8847 119.192 25.4737 118.185 24.9697 117.223C24.5049 116.241 23.9715 115.293 23.4479 114.336L23.443 114.321C23.3892 114.223 23.4284 114.095 23.5262 114.041C23.5458 114.032 23.5654 114.022 23.5849 114.022L24.1574 113.914H24.1721C24.2211 113.904 24.2651 113.914 24.2993 113.938L26.4425 115.313C27.1471 115.784 27.8371 116.285 28.5074 116.816L29.4763 117.655L30.3815 118.568L31.1987 119.57L31.9033 120.596Z" fill="#3E266D"/>
<path d="M228 78.6447L214.681 35.2445L56.643 58.8669L56.3494 155.581L56.9072 155.497C56.5744 156.268 56.4521 157.019 56.5598 157.751C58.0326 167.684 101.875 174.823 153.493 167.11C184.926 162.411 211.97 153.288 227.995 144.631V78.6447H228Z" fill="white"/>
<path d="M228 143.963C227.584 144.184 227.168 144.41 226.747 144.626C222.95 146.561 219.031 148.25 215.082 149.851C211.124 151.441 207.111 152.89 203.065 154.23C194.972 156.916 186.727 159.16 178.413 161.046C174.254 161.993 170.085 162.872 165.897 163.648C161.713 164.453 157.51 165.101 153.282 165.735C149.059 166.309 144.837 166.864 140.594 167.262C136.357 167.684 132.11 168.028 127.857 168.258C123.61 168.509 119.353 168.637 115.096 168.695C110.844 168.769 106.592 168.72 102.345 168.563C93.8551 168.249 85.3656 167.512 77.0766 165.956C72.9517 165.155 68.8268 164.188 65.0102 162.676C63.1214 161.924 61.2523 161.026 59.843 159.857C59.114 159.298 58.61 158.546 58.3702 158.188L58.1598 157.451L58.1549 157.348C58.15 157.275 58.1304 157.206 58.15 157.127C58.1402 156.833 58.2674 156.489 58.3898 156.135L58.4338 156.018C58.517 155.777 58.5464 155.512 58.5023 155.247C58.4485 154.854 58.2381 154.535 57.9592 154.294L57.8613 59.9127L214.25 35.9319L228 79.9949V77.26L215.263 35.0677C215.175 34.7829 214.891 34.5963 214.593 34.6405L56.4619 57.6589C55.8845 57.7424 55.4343 58.2432 55.4294 58.8521V58.8619L54.7395 155.576C54.7395 155.654 54.7444 155.738 54.7542 155.821C54.7884 156.057 54.8765 156.268 54.9988 156.45C54.9744 156.626 54.9205 156.793 54.9205 156.975C54.8961 157.162 54.9157 157.363 54.9254 157.559L54.9499 157.849L54.9548 157.923C54.9744 158.031 54.9157 157.775 55.0086 158.188L55.0331 158.286L55.2484 159.062C55.542 159.744 55.997 160.594 56.4081 161.006C56.824 161.551 57.2888 161.949 57.7586 162.361C59.6571 163.933 61.7171 164.885 63.7869 165.735C67.9314 167.399 72.1884 168.411 76.4503 169.26C80.7171 170.09 85.0133 170.63 89.3143 171.047C93.6154 171.455 97.9262 171.71 102.227 171.853C110.839 172.147 119.466 171.956 128.048 171.347C132.34 171.057 136.626 170.664 140.903 170.178C145.179 169.717 149.436 169.103 153.688 168.47C157.921 167.782 162.173 167.07 166.386 166.206C170.604 165.361 174.802 164.453 178.971 163.397C187.314 161.316 195.564 158.87 203.667 155.978C211.76 153.086 219.741 149.811 227.305 145.677C227.54 145.544 227.77 145.412 228.005 145.279V143.963H228Z" fill="#3E266D"/>
<path d="M228 30.0889L129.961 13.8169L9.52197 74.1667L144.606 117.724L228 60.8063V30.0889Z" fill="white"/>
<path d="M228 60.3693L144.479 116.811L13.0352 73.9113L70.4608 45.4427L100.598 30.408L130.216 15.4863L163.293 20.7597L180.091 23.4406L196.899 26.0675L227.995 30.8696V29.3278L197.261 23.8678L180.507 20.9218L163.743 18.0297L130.221 12.2457C129.903 12.1917 129.57 12.2309 129.257 12.3881L129.247 12.393L99.1052 27.4129L69.0174 42.5507L8.92493 72.9686L8.91515 72.9735C8.60688 73.1306 8.36222 73.4056 8.24968 73.7591C8.0246 74.4613 8.41605 75.2076 9.11576 75.4334L144.362 118.514L144.371 118.519C144.606 118.593 144.866 118.559 145.081 118.411L228.01 61.2482V60.3693H228Z" fill="#3E266D"/>
<path d="M228 21.2703L129.961 13.8168L7.70654 61.9552L9.52189 74.1665L144.606 117.724L228 60.8062V21.2703Z" fill="white"/>
<path d="M228 60.3742L144.479 116.825L10.6816 73.1797L9.18921 62.8194L69.4236 39.3885L100.01 27.4128L130.216 15.4568L196.087 20.0477L228 22.1296V20.4013L196.268 17.6418L130.084 12.1965C129.854 12.1769 129.609 12.2112 129.379 12.2996L129.364 12.3045L98.7774 24.2851L68.2394 36.3786L7.21728 60.6983L7.20749 60.7032C6.63989 60.929 6.28758 61.5232 6.38055 62.1516L8.24483 74.3532V74.363C8.31823 74.8295 8.64607 75.2419 9.1256 75.3941L144.362 118.495L144.372 118.5C144.601 118.573 144.856 118.539 145.066 118.397L228 61.2433V60.3742Z" fill="#3E266D"/>
<path d="M228 21.2704L129.961 13.8169L129.257 14.0919L144.636 117.704L228 60.8063V21.2704Z" fill="white"/>
<path d="M228 59.1271L145.267 116.246L129.448 14.1999L129.986 13.9839C135.481 14.5632 140.981 15.0984 146.476 15.6386C151.98 16.1885 157.495 16.7188 163.005 17.2147C174.029 18.2114 185.043 19.2769 196.077 20.1853L228 22.8956V19.6599L196.278 17.5289C185.239 16.7531 174.185 16.1394 163.137 15.4618C157.612 15.1181 152.083 14.8038 146.559 14.5191C141.034 14.2195 135.505 13.9151 129.976 13.6598C129.956 13.6598 129.927 13.6598 129.903 13.6696L129.198 13.9397C129.13 13.9642 129.081 14.0428 129.09 14.1213L143.804 117.832C143.824 117.955 143.868 118.073 143.936 118.181C144.195 118.568 144.714 118.667 145.101 118.411L145.11 118.406L227.995 62.4807V59.1271H228Z" fill="#3E266D"/>
<path d="M228 18.182L128.151 1.60559L7.70654 61.9554L142.796 105.513L228 47.3577V18.182Z" fill="white"/>
<path d="M228.001 46.9304L142.67 104.599L11.2259 61.7L68.6516 33.2313L98.7883 18.1967L128.406 3.27004L161.484 8.54346L178.277 11.2244L195.085 13.8513L227.996 18.9332V17.4307L195.447 11.6466L178.693 8.70058L161.929 5.80855L128.411 0.0244751C128.093 -0.0295357 127.76 0.00974491 127.447 0.166867L127.438 0.171777L97.2959 15.1917L67.2081 30.3295L7.11564 60.7572L7.10586 60.7621C6.79759 60.9193 6.55293 61.1942 6.44039 61.5477C6.21531 62.2499 6.60676 62.9962 7.30158 63.2221L142.543 106.303L142.552 106.308C142.787 106.382 143.047 106.347 143.262 106.2L228.001 47.7897V46.9304Z" fill="#3E266D"/>
<path d="M141.039 48.0746C141.353 50.181 137.746 52.4642 132.99 53.1762C128.224 53.8881 124.114 52.7588 123.801 50.6475C123.488 48.541 127.094 46.2579 131.85 45.5459C136.616 44.8339 140.731 45.9633 141.039 48.0746Z" fill="white"/>
<path d="M141.206 48.0647C141.206 48.0647 141.22 48.2218 141.201 48.5361C141.167 48.8847 140.986 49.3217 140.653 49.798C140.315 50.2792 139.801 50.7653 139.165 51.2465C138.529 51.7325 137.756 52.2186 136.865 52.6655C135.975 53.1074 134.967 53.5149 133.856 53.7948C133.572 53.8586 133.313 53.9372 132.995 53.9961C132.716 54.0452 132.432 54.0943 132.144 54.1434C131.532 54.2318 130.915 54.2956 130.284 54.3251C129.022 54.3791 127.691 54.3349 126.311 54.0059C125.621 53.8439 124.916 53.5935 124.212 53.1565C124.036 53.0534 123.864 52.9257 123.693 52.7735C123.517 52.6409 123.351 52.4641 123.194 52.2727C123.033 52.0959 122.905 51.8553 122.778 51.6196C122.71 51.5067 122.675 51.3692 122.631 51.2366L122.578 51.0353L122.548 50.9322L122.534 50.8782L122.529 50.8536C122.519 50.78 122.538 50.9813 122.509 50.6818L122.485 50.4412C122.48 50.3577 122.46 50.3135 122.48 50.1171C122.504 49.798 122.568 49.4248 122.656 49.2235C122.734 48.9829 122.832 48.7472 122.945 48.5606C123.052 48.3495 123.179 48.158 123.307 47.9911C123.825 47.3037 124.408 46.7832 125.005 46.3462C126.198 45.4722 127.461 44.9026 128.714 44.5C129.966 44.1268 131.248 43.9157 132.388 43.8764C133.607 43.8371 134.737 43.9844 135.75 44.23C137.781 44.7504 139.351 45.5753 140.252 46.3904C140.702 46.8077 140.956 47.23 141.074 47.5443C141.176 47.8585 141.196 48.0353 141.196 48.0353L141.206 48.0647ZM140.883 48.0942C140.883 48.0942 140.844 47.9518 140.741 47.7063C140.619 47.4657 140.354 47.1465 139.904 46.8863C139.009 46.3364 137.399 46.2185 135.613 46.4935C134.713 46.6163 133.753 46.8077 132.785 47.014C131.742 47.2153 130.734 47.4411 129.687 47.7603C128.65 48.0598 127.588 48.4182 126.663 48.9191C126.194 49.1597 125.787 49.4641 125.499 49.7636C125.416 49.8373 125.357 49.9109 125.313 49.9797C125.249 50.0533 125.215 50.1171 125.186 50.1761C125.127 50.2693 125.166 50.2202 125.122 50.2153C125.098 50.1711 125.098 50.2939 125.098 50.3675L125.093 50.6081C125.068 50.3184 125.083 50.5296 125.078 50.4657V50.4756L125.083 50.4903V50.5198C125.083 50.5443 125.073 50.5689 125.093 50.5934C125.122 50.6425 125.117 50.7014 125.171 50.7604C125.205 50.8242 125.249 50.8929 125.328 50.9617C125.386 51.0353 125.46 51.1041 125.557 51.1728C125.915 51.4478 126.394 51.6933 126.918 51.87C127.965 52.2334 129.134 52.3954 130.265 52.4494C130.837 52.474 131.395 52.4691 131.933 52.4494C132.217 52.4298 132.506 52.4052 132.785 52.3856C133.049 52.361 133.313 52.3316 133.572 52.307C134.62 52.1794 135.618 52.0173 136.528 51.7816C137.433 51.5509 138.25 51.2465 138.916 50.8733C139.581 50.505 140.1 50.068 140.423 49.6359C141.088 48.7472 140.844 48.0844 140.878 48.0795L140.883 48.0942Z" fill="#3E266D"/>
<path d="M25.136 113.722C25.5764 116.693 23.5359 119.467 20.5707 119.909C17.6104 120.356 14.8457 118.303 14.4054 115.328C13.965 112.357 16.0103 109.583 18.9755 109.141C21.9359 108.699 24.6956 110.752 25.136 113.722Z" fill="white"/>
<path d="M25.2975 113.717C25.2975 113.717 25.2975 113.85 25.3072 114.1C25.2926 114.356 25.366 114.709 25.273 115.195C25.2387 115.431 25.2241 115.706 25.1556 115.991C25.0773 116.27 24.9892 116.575 24.8962 116.899C24.769 117.213 24.6075 117.537 24.4412 117.896C24.2454 118.225 23.9959 118.559 23.7366 118.912C23.1347 119.526 22.3714 120.199 21.3634 120.498L20.9866 120.626L20.7958 120.685L20.7028 120.714L20.5316 120.734C20.2967 120.758 20.0618 120.783 19.8221 120.812C19.6068 120.857 19.3132 120.837 19 120.807C18.7015 120.773 18.3688 120.763 18.085 120.69C16.9351 120.424 15.8244 119.82 14.9143 118.932C14.5081 118.446 14.0677 117.964 13.8035 117.365C13.6469 117.076 13.4855 116.791 13.4121 116.472L13.2702 116L13.2017 115.765L13.1674 115.647L13.1527 115.588L13.1478 115.559L13.1429 115.544C13.138 115.48 13.1527 115.662 13.1234 115.397C13.0842 114.827 12.9374 114.444 13.0451 113.614C13.0744 112.833 13.3044 112.225 13.5001 111.576C14.0188 110.334 14.8751 109.239 15.9761 108.508C17.0966 107.855 18.3737 107.442 19.5236 107.545C19.9052 107.54 20.6147 107.688 21.1774 107.864C21.7499 108.031 22.1463 108.36 22.572 108.591C22.9488 108.915 23.2962 109.22 23.58 109.539C23.8393 109.887 24.0791 110.207 24.2748 110.511C24.4363 110.835 24.5831 111.139 24.725 111.419C24.8375 111.704 24.906 111.979 24.9892 112.21C25.1751 112.667 25.1605 113.069 25.2338 113.315C25.2828 113.57 25.3072 113.703 25.3072 113.703L25.2975 113.717ZM24.9745 113.747C24.9745 113.747 24.9354 113.624 24.8571 113.393C24.7641 113.172 24.7201 112.809 24.4363 112.446C24.309 112.259 24.1818 112.053 24.0106 111.856C23.8099 111.689 23.5947 111.503 23.3647 111.306C23.12 111.144 22.8166 111.022 22.5475 110.874C22.2442 110.766 21.9163 110.702 21.608 110.614C21.2802 110.609 20.9279 110.531 20.649 110.57C20.3603 110.624 20.1988 110.565 19.6606 110.673C18.9707 110.732 18.3786 111.036 17.7767 111.356C17.1944 111.724 16.6758 112.225 16.2354 112.858C16.0788 113.197 15.8684 113.565 15.8244 113.855C15.6727 114.071 15.7265 114.763 15.702 115.259C15.6776 114.999 15.6971 115.195 15.6923 115.136V115.146V115.166L15.702 115.205L15.7167 115.279L15.7461 115.431L15.7999 115.735C15.8146 115.946 15.9076 116.128 15.9858 116.32C16.0984 116.722 16.3626 117.046 16.5828 117.405C17.1308 118.028 17.8061 118.554 18.5841 118.843C18.77 118.917 18.9413 118.932 19.1223 118.991L19.3915 119.069C19.4844 119.094 19.6263 119.079 19.7438 119.089C19.9835 119.089 20.2184 119.094 20.4533 119.099H20.4973H20.5169H20.5316C20.556 119.099 20.3848 119.113 20.4582 119.104L20.5316 119.094L20.6783 119.069L20.9719 119.02C21.7597 118.922 22.4594 118.578 23.0956 118.2C23.3696 117.964 23.6632 117.744 23.9029 117.498C24.1035 117.223 24.3286 116.973 24.4852 116.703C24.6124 116.413 24.7347 116.148 24.8473 115.897C24.9207 115.637 24.9452 115.392 24.9941 115.171C25.1164 114.739 24.9941 114.351 25.0039 114.105C24.9892 113.855 24.9794 113.722 24.9794 113.722L24.9745 113.747Z" fill="#3E266D"/>
<path d="M22.3617 109.75C23.9178 112.563 23.9275 115.716 20.7421 117.911C19.5776 118.716 18.2319 119.05 16.8374 119.099C17.9041 119.791 19.2155 120.115 20.5709 119.909C23.5361 119.467 25.5765 116.698 25.1361 113.722C24.8719 111.969 23.8052 110.541 22.3617 109.75Z" fill="white"/>
<path d="M22.5084 109.681L22.9439 110.403C23.0956 110.634 23.2082 110.904 23.3207 111.179C23.4234 111.454 23.58 111.724 23.6241 112.018L23.8198 112.897C23.8589 113.197 23.8491 113.501 23.8687 113.811C23.903 114.12 23.8296 114.424 23.7758 114.734C23.717 115.043 23.6828 115.362 23.536 115.647C23.4137 115.937 23.2913 116.236 23.1592 116.526L22.6161 117.302C22.4448 117.577 22.2197 117.793 21.9898 117.999L21.2998 118.637L20.5414 119.153C20.3408 119.31 19.9787 119.452 19.6753 119.595C19.3573 119.747 19.0392 119.87 18.7407 119.933C18.4325 120.007 18.1242 120.125 17.8159 120.154L16.8813 120.287L17.4832 118.107C17.7523 118.205 17.997 118.352 18.271 118.431C18.5499 118.47 18.8043 118.608 19.0881 118.588C19.367 118.588 19.6362 118.637 19.9053 118.564L20.3065 118.505L20.3555 118.5H20.3701C20.4974 118.475 20.1989 118.534 20.2282 118.524H20.2331L20.238 118.519L20.2723 118.51L20.4044 118.465L20.6588 118.377L21.1726 118.195C21.3585 118.136 21.3683 118.048 21.476 117.989C21.5592 117.925 21.6375 117.861 21.7255 117.817C21.8136 117.763 21.9115 117.645 22.0044 117.567C22.0974 117.478 22.1953 117.405 22.2931 117.326C22.3812 117.233 22.4497 117.125 22.5329 117.032L22.7922 116.757C22.8558 116.649 22.9195 116.536 22.988 116.433C23.0614 116.329 23.1494 116.231 23.2082 116.118C23.2571 116.001 23.306 115.883 23.3647 115.77C23.5115 115.549 23.5702 115.298 23.6436 115.043C23.7464 114.793 23.7513 114.523 23.7904 114.253L23.8492 113.884L23.81 113.334C23.7855 113.099 23.7806 112.838 23.6975 112.534C23.6192 112.244 23.5458 111.93 23.4039 111.645C23.1543 111.046 22.7776 110.472 22.298 109.887L22.5084 109.681ZM22.4399 109.608C22.8265 109.681 23.2179 109.794 23.5898 109.971C23.947 110.158 24.3238 110.369 24.6369 110.653C24.9697 110.923 25.2682 111.243 25.5226 111.601C25.777 111.945 26.0021 112.367 26.2027 112.829L26.3936 113.349C26.4914 113.668 26.4914 113.82 26.5355 114.071C26.6187 114.523 26.6872 114.989 26.6187 115.451C26.5893 115.922 26.5502 116.393 26.3936 116.84C26.33 117.066 26.2517 117.292 26.1734 117.518C26.0902 117.739 25.963 117.94 25.8504 118.151C25.7379 118.362 25.6107 118.559 25.4835 118.765L25.0186 119.305C24.8522 119.477 24.6957 119.654 24.5195 119.811C24.3287 119.953 24.1378 120.096 23.9372 120.228C23.7366 120.356 23.5605 120.498 23.3354 120.611C23.0956 120.724 22.8461 120.822 22.6014 120.915C22.3763 120.994 22.0778 121.127 21.9066 121.146L21.3683 121.235L21.0943 121.279L20.9622 121.303L20.928 121.308L20.7714 121.338H20.7469H20.6588H19.9738C19.5187 121.362 19.0637 121.249 18.6233 121.166C18.1731 121.107 17.767 120.891 17.3462 120.749C16.9401 120.572 16.5682 120.316 16.1865 120.096C15.6336 119.771 15.4379 119.059 15.7608 118.5C15.9712 118.136 16.348 117.93 16.7345 117.915H16.7835L17.5174 117.896C17.767 117.906 17.9921 117.837 18.2318 117.812C18.4814 117.788 18.6967 117.739 18.8924 117.68C19.1028 117.606 19.2936 117.616 19.5628 117.459L20.2429 117.13L20.8448 116.703C21.0552 116.57 21.2607 116.423 21.4075 116.236L21.9262 115.716L22.3127 115.102C22.4693 114.906 22.5231 114.665 22.6112 114.434C22.6895 114.199 22.802 113.968 22.8069 113.712C22.8314 113.462 22.8852 113.212 22.895 112.951L22.8461 112.171C22.8461 111.901 22.7433 111.66 22.7042 111.395C22.6552 111.135 22.6014 110.869 22.4889 110.604L22.2002 109.814C22.1708 109.73 22.2148 109.632 22.298 109.603C22.3225 109.593 22.3567 109.588 22.3812 109.598L22.4399 109.608Z" fill="#3E266D"/>
<path d="M18.584 111.125C18.9901 111.65 18.6574 112.593 17.8353 113.231C17.0182 113.869 16.0249 113.968 15.6139 113.442C15.2126 112.917 15.5405 111.974 16.3674 111.336C17.1894 110.693 18.1828 110.599 18.584 111.125Z" fill="white"/>
<path d="M18.7308 111.041C18.7308 111.041 18.7455 111.076 18.7699 111.144C18.7993 111.203 18.8433 111.306 18.8776 111.483C18.902 111.64 18.9314 111.822 18.9265 112.043C18.9363 112.264 18.9167 112.529 18.8531 112.814C18.7895 113.104 18.6769 113.418 18.4714 113.683C18.4029 113.761 18.4127 113.801 18.2757 113.919L18.1338 114.071C18.0653 114.164 17.8794 114.302 17.6934 114.424C17.3362 114.655 16.9692 114.851 16.4359 114.906C15.9466 114.964 15.1833 114.886 14.5961 114.238L14.4786 114.066L14.4738 114.061L14.464 114.051L14.4444 114.027L14.4052 113.982L14.3319 113.894C14.2438 113.742 14.1263 113.447 14.0725 113.212C13.9942 112.804 13.9844 112.49 14.0236 112.19C14.0921 111.581 14.3025 111.105 14.5912 110.732C14.8848 110.364 15.2322 110.099 15.6285 109.937L15.8389 109.897C15.9466 109.873 16.064 109.838 16.1766 109.829C16.4114 109.779 16.6267 109.809 16.8078 109.838C17.1845 109.907 17.5173 110.04 17.7766 110.192C18.0311 110.32 18.2317 110.491 18.3589 110.609C18.5008 110.732 18.5791 110.84 18.628 110.919C18.6769 110.992 18.7063 111.027 18.7063 111.027L18.7161 111.041C18.7259 111.041 18.7259 111.041 18.7308 111.041ZM18.4616 111.223C18.447 111.248 18.3687 111.105 18.1338 111.154C18.0311 111.169 17.894 111.248 17.7815 111.4C17.6739 111.537 17.5809 111.748 17.5271 111.969C17.4879 112.063 17.4879 112.18 17.5026 112.259C17.5075 112.303 17.5173 112.323 17.5075 112.362L17.3949 112.539C17.3509 112.667 17.2873 112.789 17.2188 112.858C17.1454 112.927 17.0426 112.971 16.9692 112.951C16.9105 112.941 16.9007 112.937 16.8371 112.829C16.8176 112.74 16.7246 112.598 16.6806 112.593L16.7148 112.706L16.7344 112.76L16.7442 112.789V112.804V112.809V112.814C16.6952 112.74 16.8567 112.986 16.6316 112.647C16.4359 112.5 16.3234 112.593 16.4212 112.642C16.4946 112.701 16.705 112.721 16.8665 112.711C16.9399 112.706 17.0133 112.725 17.1601 112.652L17.3509 112.573C17.3264 112.613 17.4292 112.554 17.4586 112.549C17.6494 112.475 17.8647 112.406 18.0408 112.308C18.2317 112.215 18.3883 112.082 18.4812 111.945C18.5889 111.807 18.6084 111.65 18.5938 111.552C18.5938 111.454 18.5546 111.365 18.4959 111.306C18.4861 111.257 18.4714 111.233 18.4616 111.223Z" fill="#3E266D"/>
<path d="M12.7809 123.886C12.5216 124.598 12.4139 125.261 12.3356 126.017C12.1399 128.025 11.7338 129.876 10.8481 131.703C10.1435 133.156 9.35081 134.565 8.48473 135.93C7.74097 137.104 6.5862 138.302 6.12135 139.618C6.0822 139.721 8.35751 139.294 8.48473 139.269C10.1826 138.901 11.6163 138.179 12.8641 136.952C13.2017 136.618 13.4464 135.621 13.9503 135.518C14.7186 135.361 13.7693 137.403 14.425 137.644C15.4036 138.003 16.529 136.878 17.1749 136.294C19.5089 134.182 21.7402 131.978 22.4106 128.762C22.8216 126.798 23.4283 124.47 21.7989 122.968C20.8301 122.074 19.69 122.384 18.5156 122.182C17.3266 121.976 16.3969 120.891 15.1541 120.955C13.7546 121.023 13.187 122.747 12.7809 123.886Z" fill="white"/>
<path d="M12.9376 123.925C12.9376 123.925 12.874 124.146 12.7516 124.559C12.6048 124.976 12.5412 125.565 12.4336 126.371C12.3553 127.166 12.2281 128.148 11.9883 129.263C11.8366 129.813 11.7387 130.416 11.499 131.015C11.3864 131.325 11.3082 131.619 11.1565 131.968C11.0195 132.268 10.8727 132.572 10.7308 132.886C10.4372 133.51 10.1289 134.163 9.81575 134.836C9.65428 135.169 9.4928 135.513 9.32644 135.862L9.19922 136.122L9.13561 136.25L9.02306 136.436L8.7099 136.937C8.29399 137.605 7.7851 138.297 7.41812 138.935C7.22239 139.264 7.12942 139.588 6.96795 139.913C7.0071 138.896 7.02667 139.451 6.61075 138.857C6.12144 138.646 6.33674 138.768 6.25355 138.729L6.18994 138.724C6.18016 138.724 6.19484 138.724 6.20952 138.719L6.33184 138.7L6.62054 138.651L7.23218 138.533L7.85361 138.4L8.16677 138.332L8.24016 138.312C8.24016 138.312 8.34292 138.287 8.24016 138.312L8.39674 138.263C8.78819 138.125 9.27751 138.012 9.61024 137.845C10.261 137.546 10.951 137.153 11.5283 136.618L11.9687 136.22L12.0225 136.171L12.0519 136.147L12.0666 136.132C12.0372 136.166 12.1547 136.038 12.003 136.205L12.1057 136.068C12.14 135.989 12.0715 136.093 12.1449 135.955C12.2232 135.793 12.3455 135.533 12.507 135.263C12.6293 135.096 12.6929 134.958 12.9278 134.752C13.0305 134.659 13.1186 134.57 13.3192 134.482C13.4024 134.438 13.4954 134.403 13.5835 134.369L13.7254 134.325L13.9945 134.3L14.1021 134.295C14.3615 134.305 14.6697 134.403 14.885 134.565C15.2227 134.816 15.3841 135.189 15.4184 135.336C15.5309 135.749 15.4967 135.896 15.5065 136.088L15.4575 136.834C15.4331 137.001 15.4869 137.217 15.4428 136.991C15.4331 136.952 15.4233 136.942 15.3988 136.883C15.3694 136.814 15.3205 136.75 15.2667 136.696C15.2227 136.652 15.1493 136.569 15.071 136.52C15.0318 136.495 14.9878 136.471 14.9389 136.451C14.8312 136.417 15.0954 136.49 14.6746 136.372H14.6942L15.0318 136.421C15.0269 136.387 14.934 136.353 14.8899 136.372C14.8508 136.382 14.9437 136.333 14.9682 136.323C15.0563 136.279 15.1786 136.205 15.3058 136.102C15.5701 135.906 15.8441 135.631 16.1817 135.302L17.1408 134.345C17.4295 134.025 17.7328 133.721 18.0019 133.402C19.1127 132.12 19.9739 130.824 20.4485 129.493C20.5855 129.164 20.6491 128.821 20.7568 128.492C20.8449 128.099 20.9378 127.701 21.0259 127.313C21.1874 126.562 21.3097 125.88 21.2901 125.359C21.2608 124.834 21.2412 124.426 20.9672 124.082L20.9231 124.009L20.9036 123.97L20.8987 123.95C21.0993 124.112 20.9476 123.989 20.9868 124.024L20.977 124.014L20.7715 123.827C20.5855 123.645 20.6491 123.739 20.6149 123.665C20.4877 123.577 20.2724 123.469 19.9788 123.41C19.421 123.267 18.5842 123.199 17.9139 122.884C17.0771 122.511 16.7199 122.104 16.2649 121.824C15.8588 121.544 15.4282 121.387 15.1052 121.382C14.9878 121.397 14.8703 121.406 14.7529 121.421C14.6893 121.46 14.6208 121.49 14.5523 121.519C14.4055 121.559 14.2587 121.721 14.1217 121.814C13.6079 122.334 13.3584 122.938 13.192 123.321C13.0305 123.714 12.9376 123.925 12.9376 123.925ZM12.6244 123.837V123.827C12.6244 123.827 12.6978 123.606 12.8299 123.194C12.9816 122.781 13.1578 122.163 13.6569 121.426C13.8183 121.259 13.9358 121.058 14.1853 120.901C14.3125 120.822 14.4446 120.744 14.5817 120.67C14.6893 120.636 14.8067 120.601 14.9242 120.567C15.5554 120.41 16.1866 120.528 16.7787 120.739C17.3316 120.935 17.9628 121.21 18.3249 121.244C18.8485 121.333 19.3573 121.2 20.1647 121.171C20.5611 121.156 21.0308 121.185 21.5788 121.348C21.8528 121.446 22.2736 121.652 22.3617 121.716L22.5966 121.863L22.6113 121.873C22.6602 121.912 22.5232 121.794 22.7287 121.966L22.763 122.001L22.8364 122.069L22.9734 122.207C23.8052 122.894 24.27 124.058 24.4119 125.074C24.5587 126.13 24.4217 127.073 24.2798 127.947C24.2064 128.413 24.1428 128.772 24.0303 129.233C23.8933 129.709 23.7905 130.215 23.6046 130.682C22.8804 132.601 21.569 134.212 20.1794 135.523C19.8369 135.862 19.4699 136.166 19.1078 136.495L18.0509 137.394C17.7133 137.678 17.3169 138.027 16.8178 138.346C16.578 138.503 16.2942 138.66 15.9566 138.788C15.7609 138.852 15.6484 138.911 15.3792 138.955C15.1101 138.999 14.7921 139.004 14.5523 138.98L14.2147 138.906L14.1902 138.901C13.7547 138.778 14.0092 138.842 13.8868 138.798C13.8183 138.764 13.7498 138.724 13.6862 138.685C13.5541 138.602 13.4269 138.498 13.3486 138.4C13.2654 138.297 13.1871 138.184 13.1235 138.071C13.0648 137.963 13.0452 137.895 13.0159 137.806C12.8397 137.138 12.9376 136.883 12.9522 136.598L13.0354 135.975C13.0501 135.935 13.0305 135.847 13.0746 136.043C13.0893 136.078 13.1773 136.353 13.4367 136.525C13.603 136.657 13.8575 136.736 14.0679 136.721C14.0826 136.721 14.0189 136.721 14.0043 136.721H13.9945C14.0874 136.711 13.7498 136.746 14.2049 136.696L14.2636 136.687C14.2979 136.677 14.3419 136.662 14.3761 136.642L14.4887 136.564C14.5376 136.495 14.4887 136.564 14.474 136.574C14.3957 136.687 14.3076 136.834 14.1706 137.075C14.1413 137.138 13.9553 137.438 13.8624 137.546L13.7547 137.678C13.5932 137.855 13.7009 137.737 13.6569 137.782L13.6373 137.796L13.5981 137.826L13.5247 137.885L12.9229 138.366C12.1253 138.994 11.2152 139.461 10.2268 139.814C9.74235 139.996 9.3558 140.045 8.92031 140.168L8.76373 140.207C8.60715 140.246 8.65119 140.232 8.60225 140.242L8.51907 140.256L8.19123 140.305L7.54045 140.399L6.88477 140.482L6.54225 140.516L6.34652 140.531L6.20952 140.536C6.17526 140.536 6.15569 140.536 6.06762 140.531C5.96975 140.487 6.17037 140.615 5.67127 140.399C5.24068 139.805 5.25046 140.35 5.28472 139.323C5.5098 138.896 5.71042 138.425 5.96486 138.057C6.47375 137.291 6.97774 136.711 7.46216 136.088L7.81935 135.621L7.86339 135.562L7.88786 135.533C7.92211 135.479 7.85361 135.592 7.86339 135.577L7.87318 135.562L7.95147 135.439L8.10805 135.199C8.31845 134.875 8.52396 134.556 8.72458 134.246C9.13561 133.623 9.52706 133.024 9.90383 132.444C10.0947 132.155 10.2806 131.875 10.4616 131.6C10.6084 131.359 10.7503 131.05 10.8873 130.785C11.1858 130.245 11.3669 129.685 11.5528 129.164C11.7387 128.644 11.8317 128.133 11.954 127.672C12.0519 127.2 12.0959 126.754 12.1596 126.356C12.2917 125.57 12.3161 124.893 12.4629 124.495C12.5657 124.063 12.6244 123.842 12.6244 123.837Z" fill="#3E266D"/>
<path d="M57.837 150.945C57.837 150.945 58.6541 151.24 60.0878 151.76C60.8071 152.021 61.6732 152.335 62.6714 152.693C63.6696 153.042 64.7901 153.499 66.033 153.847C67.266 154.23 68.6067 154.638 70.0257 155.08C71.435 155.551 72.9567 155.9 74.5372 156.273C76.1177 156.612 77.7226 157.137 79.4108 157.353C81.094 157.623 82.7968 157.898 84.5045 158.173C86.2269 158.306 87.9493 158.438 89.6472 158.571C91.3451 158.767 93.0234 158.62 94.6479 158.635C96.2725 158.605 97.848 158.64 99.3258 158.438C100.808 158.291 102.213 158.148 103.509 158.021C104.811 157.937 105.98 157.657 107.023 157.491C108.065 157.304 108.975 157.142 109.724 157.009C111.221 156.744 112.082 156.587 112.082 156.587C112.082 156.587 111.231 156.769 109.743 157.088C108.999 157.245 108.094 157.441 107.057 157.662C106.015 157.869 104.855 158.188 103.553 158.32C102.262 158.497 100.857 158.684 99.3698 158.885C97.8872 159.14 96.3067 159.16 94.6724 159.248C93.0381 159.293 91.3451 159.504 89.6276 159.361C87.9052 159.288 86.1584 159.214 84.4115 159.14C82.6745 158.919 80.9374 158.703 79.2297 158.487C77.5073 158.33 75.8681 157.854 74.2534 157.569C72.6436 157.245 71.0827 156.946 69.6392 156.518C68.181 156.126 66.8061 155.752 65.5339 155.409C64.2519 155.09 63.1362 154.677 62.1233 154.363C61.1154 154.039 60.2346 153.754 59.5104 153.523C58.0621 153.057 57.2302 152.787 57.2302 152.787L57.837 150.945Z" fill="#3E266D"/>
<path d="M56.8876 139.132C56.8876 139.132 59.4027 139.927 63.1704 141.116C66.9332 142.289 71.978 143.752 77.1305 144.715C82.2829 145.672 87.5577 145.986 91.4673 145.441C92.4459 145.338 93.3365 145.191 94.1096 144.994C94.8974 144.828 95.5824 144.685 96.1207 144.484C97.2216 144.13 97.8431 143.924 97.8431 143.924C97.8431 143.924 97.2314 144.155 96.1451 144.562C95.6118 144.793 94.9316 144.965 94.1536 145.166C93.3805 145.402 92.49 145.589 91.5065 145.736C89.5541 146.104 87.2299 146.242 84.7442 146.256C82.2536 146.232 79.6064 146.021 76.9788 145.667C71.7236 144.936 66.5564 143.693 62.7202 142.687C58.8938 141.665 56.3445 140.988 56.3445 140.988L56.8876 139.132Z" fill="#3E266D"/>
<path d="M56.9562 124.245C56.9562 124.245 58.8939 124.834 61.7466 125.845C64.5943 126.837 68.3621 128.182 72.2227 129.179C76.0785 130.186 80.0566 130.775 83.0512 130.569C84.5436 130.515 85.7865 130.269 86.6281 130.053C87.4746 129.813 87.959 129.675 87.959 129.675C87.959 129.675 87.4844 129.842 86.6526 130.132C85.8158 130.402 84.5828 130.726 83.0757 130.868C80.0615 131.261 75.9806 130.908 72.0123 130.122C68.0391 129.341 64.1589 128.217 61.2572 127.402C58.3752 126.572 56.4326 126.105 56.4326 126.105L56.9562 124.245Z" fill="#3E266D"/>
<path d="M55.7035 109.357C55.7035 109.357 56.1194 109.47 56.8534 109.667C57.6069 109.887 58.6639 110.216 59.892 110.624C62.3582 111.439 65.6023 112.583 68.9247 113.442C72.2325 114.307 75.6479 114.866 78.2168 114.69C78.8529 114.645 79.445 114.621 79.9539 114.503C80.4627 114.395 80.9276 114.351 81.2701 114.203C81.9845 113.963 82.3955 113.825 82.3955 113.825C82.3955 113.825 81.9992 113.992 81.2995 114.287C80.9569 114.459 80.5019 114.537 79.993 114.68C79.4841 114.842 78.8871 114.91 78.2413 114.999C75.6381 115.362 72.1297 115.033 68.7143 114.39C65.2892 113.757 61.9374 112.829 59.4321 112.195C58.1746 111.871 57.1568 111.631 56.4473 111.473C55.7035 111.331 55.2827 111.248 55.2827 111.248L55.7035 109.357Z" fill="#3E266D"/>
<path d="M56.0507 100.102L72.0121 103.475L72.0366 103.48H72.0414L75.6085 104.545C76.2104 104.712 76.8073 104.874 77.4141 104.987C77.5609 105.012 77.7175 105.041 77.8594 105.036C78.0355 105.071 77.83 104.933 77.7224 104.855C77.4679 104.683 77.189 104.54 76.9101 104.393C77.1988 104.516 77.4875 104.634 77.7615 104.786C77.83 104.82 77.8985 104.864 77.9621 104.923C77.9915 104.928 78.0404 105.022 78.0208 105.076C77.9768 105.12 77.9083 105.154 77.874 105.149C77.7028 105.174 77.5511 105.149 77.3896 105.139C76.7682 105.071 76.1517 104.958 75.54 104.845L71.8849 104.074L71.9142 104.079L55.7327 102.017L56.0507 100.102Z" fill="#3E266D"/>
<path d="M116.804 5.91162C116.804 5.91162 131.062 10.8119 145.316 15.717C159.741 20.0576 174.171 24.3981 174.171 24.3981C174.171 24.3981 159.545 20.6664 144.92 16.9397C130.465 12.6482 116.006 8.35684 116.006 8.35684L116.804 5.91162Z" fill="#3E266D"/>
<path d="M96.7714 16.9496C96.7714 16.9496 113.379 23.3867 129.991 29.8189C146.809 35.6422 163.626 41.4656 163.626 41.4656C163.626 41.4656 146.583 36.2462 129.541 31.0268C112.703 25.1936 95.8711 19.3653 95.8711 19.3653L96.7714 16.9496Z" fill="#3E266D"/>
<path d="M26.188 53.5295C26.188 53.5295 30.2591 55.4887 36.3657 58.4298C39.419 59.9028 42.9763 61.6361 46.8321 63.3595C50.683 65.1173 54.7884 66.9832 58.8937 68.8588C63.0724 70.5528 67.2511 72.2517 71.1705 73.8376C73.1425 74.5987 74.997 75.4874 76.8514 76.0472C78.6864 76.6609 80.4283 77.2403 82.0333 77.7755C88.4579 79.9212 92.7443 81.35 92.7443 81.35C92.7443 81.35 88.4139 80.0734 81.9109 78.1634C80.2864 77.6871 78.5249 77.1666 76.6557 76.6167C74.7719 76.1159 72.8929 75.2959 70.8867 74.6085C66.9037 73.1551 62.6467 71.6035 58.3995 70.0519C54.2159 68.3236 50.0371 66.5953 46.1177 64.9749C42.1788 63.3841 38.5725 61.7736 35.4654 60.4135C29.2609 57.6933 25.1213 55.8815 25.1213 55.8815L26.188 53.5295Z" fill="#3E266D"/>
<path d="M130.348 48.2217C116.51 45.7863 102.986 50.0188 89.8965 54.1088C83.0804 56.2398 76.2447 58.3168 69.179 59.4559C62.2112 60.5803 55.6398 59.8831 48.7062 58.9796C42.5017 58.1695 36.1896 57.8061 30.1613 59.7849C24.7837 61.5476 20.7371 65.8734 18.4373 70.9406C14.014 80.6822 15.066 92.8003 16.2208 103.126C16.5731 106.274 17.033 109.406 17.4979 112.539C17.8649 114.999 21.6619 114.429 21.2998 111.969C19.7487 101.516 18.3003 90.8068 19.8319 80.2648C20.6295 74.7852 22.5574 69.5314 26.9024 65.9176C32.1136 61.582 39.5561 61.8766 45.878 62.5296C52.5473 63.217 58.9084 64.3414 65.6462 63.7817C72.4917 63.2072 79.1855 61.3512 85.7423 59.397C99.2766 55.3609 113.002 49.9893 127.378 51.6636C128.215 51.7618 129.051 51.9091 129.878 52.0564C132.335 52.4836 132.78 48.6488 130.348 48.2217Z" fill="white"/>
<path d="M130.333 48.3837C130.333 48.3837 129.066 48.2315 126.693 47.9516C126.101 47.9025 125.44 47.7552 124.706 47.7651C123.977 47.7552 123.18 47.7454 122.318 47.7356C121.457 47.7454 120.532 47.6669 119.544 47.7454C118.556 47.824 117.508 47.9025 116.398 47.986C115.845 48.04 115.272 48.0548 114.695 48.1382C114.118 48.2266 113.521 48.3199 112.914 48.4132C111.705 48.6194 110.418 48.752 109.112 49.0466C107.801 49.3412 106.44 49.6456 105.026 49.9648C103.627 50.3429 102.178 50.7357 100.681 51.1383C94.7065 52.8126 88.1106 55.1645 80.7513 57.3348C78.9164 57.8896 77.0032 58.3365 75.0802 58.8569C73.1279 59.3136 71.1461 59.6966 69.0812 60.1041C67.0653 60.4085 64.9172 60.6589 62.7593 60.7031C60.6063 60.7964 58.4191 60.6933 56.2172 60.5705C54.0153 60.4036 51.7938 60.1974 49.5577 59.9126C48.442 59.7849 47.3215 59.6573 46.1961 59.5247C45.0805 59.4363 43.9599 59.3136 42.8296 59.2792C40.569 59.1564 38.2888 59.181 36.0233 59.4707C34.8832 59.5689 33.7725 59.8389 32.6421 60.0501L30.9932 60.5264L30.5772 60.6442L30.4745 60.6737C30.5479 60.6442 30.4353 60.6884 30.4256 60.6933L30.2201 60.7768L29.3882 61.1156L28.5613 61.4544L27.842 61.8619C27.3625 62.1369 26.8732 62.3676 26.4132 62.731C25.459 63.3595 24.6027 64.1304 23.7611 64.9209C22.1268 66.5608 20.791 68.5249 19.7537 70.6411C17.6594 74.9522 16.7444 79.7493 16.4557 84.6888C16.1915 89.6235 16.5389 94.6367 17.0722 99.6695C17.2092 100.917 17.3462 102.213 17.5126 103.431L18.0509 107.221L18.5891 111.017L18.7212 111.964L18.7506 112.2L18.7701 112.318C18.7995 112.495 18.7457 112.215 18.7652 112.283L18.824 112.514C18.8435 112.603 18.868 112.681 18.8729 112.642C18.8631 112.583 18.9218 112.706 18.9854 112.73C19.0539 112.765 19.142 112.819 19.2741 112.819C19.5286 112.858 19.8222 112.72 19.92 112.598C19.9641 112.529 20.0032 112.495 20.0032 112.401C20.0179 112.367 20.0179 112.313 20.0032 112.244C20.013 112.22 19.9934 112.048 19.9641 111.886L19.3867 108.095L18.8484 104.28L18.3836 100.45C17.8258 95.3388 17.5371 90.1734 17.8404 85.0325C17.86 83.7461 18.0753 82.4695 18.1781 81.188L18.2808 80.2305C18.32 79.823 18.3787 79.5873 18.4276 79.2534C18.5402 78.6298 18.6087 78.0455 18.7701 77.3728C19.3328 74.7558 20.1549 72.2614 21.4956 69.9242C22.8021 67.6018 24.6566 65.5346 26.741 63.9585C29.031 62.3136 31.5363 61.4102 34.0709 60.9339C39.1451 60.0403 44.0284 60.6393 48.5742 61.1745C50.8495 61.4347 53.1003 61.69 55.3267 61.9405C56.4374 62.0632 57.5139 62.1074 58.6002 62.1958C59.6815 62.2645 60.7629 62.3824 61.8198 62.3234C62.8768 62.3038 63.9288 62.2891 64.9759 62.2694L65.3674 62.2645C65.4016 62.2645 65.5582 62.2596 65.4995 62.2645L65.7001 62.24L66.5026 62.1467C67.0359 62.0878 67.5644 62.0239 68.0928 61.965C69.14 61.8275 70.2262 61.7784 71.2146 61.5722C72.2128 61.3856 73.2061 61.2039 74.1946 61.0223C75.1781 60.8602 76.1567 60.6344 77.1353 60.3938C78.1139 60.1679 79.0779 59.947 80.0369 59.7211C81.9502 59.2448 83.834 58.7342 85.6689 58.2481C93.0135 56.2251 99.7416 54.1334 105.858 52.8372C111.969 51.5262 117.425 50.9713 121.907 51.0352C124.153 51.1039 126.145 51.2463 127.877 51.4869C128.724 51.6146 129.531 51.7864 130.231 51.8502C130.877 51.8944 131.41 51.4624 131.61 50.9664C132.046 49.9206 131.547 49.0073 131.106 48.7078C130.647 48.3788 130.319 48.3886 130.328 48.3641L130.333 48.3837ZM130.377 48.0597C130.363 48.0891 130.739 48.0646 131.302 48.4525C131.845 48.8158 132.457 49.8862 131.958 51.1383C131.733 51.7422 131.048 52.3413 130.196 52.2922C129.433 52.2332 128.67 52.081 127.804 51.9681C126.962 51.8404 126.023 51.811 125.044 51.7226C124.06 51.6637 123.008 51.6735 121.903 51.6588C119.686 51.7275 117.234 51.8699 114.592 52.2676C111.955 52.6751 109.127 53.2742 106.137 54.0549C100.157 55.6163 93.586 57.9977 86.3001 60.3938C82.6352 61.5624 78.843 62.7948 74.7279 63.7326C73.6955 63.9585 72.6483 64.1893 71.5963 64.42C70.5345 64.6655 69.5069 64.749 68.45 64.9209C67.9216 64.9945 67.3931 65.0731 66.8647 65.1467L66.0671 65.2548L65.8665 65.2842C65.6756 65.3039 65.6952 65.294 65.5973 65.299L65.1814 65.3186C64.0707 65.3579 62.9502 65.4021 61.815 65.4462C60.6797 65.5297 59.5641 65.4315 58.4289 65.3824C57.3035 65.3137 56.1438 65.3039 55.0184 65.1811C52.7725 64.9405 50.5069 64.695 48.2121 64.4495C43.6615 63.9241 39.057 63.4528 34.6875 64.2629C32.5296 64.641 30.406 65.4413 28.7325 66.6148C26.9368 67.9553 25.4493 69.5854 24.3043 71.5544C23.1593 73.489 22.3911 75.7623 21.8675 78.0013C21.7109 78.5365 21.6277 79.1945 21.5103 79.7984C21.4614 80.0832 21.3782 80.4564 21.3586 80.6724L21.251 81.5808C21.1335 82.7935 20.9084 84.0014 20.8742 85.2339C20.5121 90.139 20.7078 95.1424 21.1776 100.165L21.5788 103.936L22.0534 107.707L22.577 111.503C22.5966 111.655 22.621 111.797 22.6357 112.097C22.6602 112.352 22.6406 112.617 22.5819 112.892C22.4938 113.437 22.2051 113.977 21.8283 114.385C21.0454 115.19 20.013 115.509 19.0001 115.401C17.9726 115.303 16.9156 114.689 16.4361 113.472C16.3627 113.29 16.348 113.216 16.3334 113.148L16.2795 112.912C16.2746 112.907 16.2061 112.549 16.2306 112.642L16.211 112.524L16.1817 112.288L16.0593 111.336L15.5651 107.535L15.0758 103.735C14.9144 102.424 14.8018 101.182 14.6746 99.9003C14.1951 94.8036 13.8917 89.6578 14.2293 84.5366C14.4006 81.9785 14.7529 79.4252 15.3401 76.9309C15.6434 75.6788 15.9713 74.4562 16.4263 73.2238C16.627 72.5953 16.8667 72.0159 17.1065 71.4513L17.4686 70.5969C17.63 70.2483 17.7671 70.0077 17.9138 69.7033C19.0735 67.4152 20.5512 65.2891 22.3764 63.5068C23.311 62.6377 24.27 61.803 25.3367 61.1156C25.8358 60.7326 26.4328 60.4429 27.0004 60.1335L27.8567 59.6769L28.6934 59.3479L29.5252 59.0239L29.7356 58.9404L29.8971 58.8815L30.0096 58.852L30.4549 58.7293L32.2311 58.2432C33.4348 58.0271 34.6239 57.762 35.8227 57.6687C38.2203 57.3986 40.5984 57.4035 42.9275 57.5558C47.6249 57.8307 51.9993 58.6998 56.3395 59.0533C58.5023 59.2203 60.6357 59.3627 62.7349 59.3136C64.834 59.3136 66.8598 59.1221 68.9247 58.852C70.9064 58.4985 72.9126 58.1597 74.8453 57.762C76.7683 57.2955 78.6718 56.9076 80.5116 56.397C87.8806 54.4575 94.55 52.2381 100.564 50.662C106.567 49.0319 111.935 48.094 116.373 47.6521C117.489 47.5638 118.546 47.4852 119.534 47.4066C120.528 47.3281 121.467 47.4066 122.333 47.3968C123.204 47.4066 124.007 47.4214 124.745 47.4312C125.489 47.4263 126.14 47.5687 126.737 47.6178C129.11 47.8976 130.373 48.0498 130.373 48.0498H130.377V48.0597Z" fill="#3E266D"/>
</svg>
