<svg width="237" height="304" viewBox="0 0 237 304" fill="none" xmlns="http://www.w3.org/2000/svg">
<g clip-path="url(#clip0_283_123)">
<path d="M0 147.061V247.938L169.682 304H191.955L200.665 213.261L0 147.061Z" fill="white"/>
<path d="M0 248.535L169.196 304H170.163L0 247.346V248.535Z" fill="#3E266D"/>
<path d="M200.927 212.485L200.92 212.481L149.687 195.38L124.058 186.872L98.4105 178.416L47.111 161.522L0 146.104V148.018L46.469 163.472L97.749 180.42L123.393 188.884L149.052 197.298L199.784 213.838L195.713 259.054L191.779 303.996H192.12L196.802 259.16L201.472 213.34C201.518 212.967 201.295 212.606 200.927 212.485Z" fill="#3E266D"/>
<path d="M0 141.232V242.086L187.661 304H191.928L201.182 207.602L0 141.232Z" fill="white"/>
<path d="M0 242.69L187.285 304H188.025L0 241.486V242.69Z" fill="#3E266D"/>
<path d="M201.444 206.829H201.436L150.203 189.728C141.666 186.876 133.128 184.025 124.579 181.216L98.9312 172.756L47.6316 155.862L0 140.275V142.193L46.9858 157.82L98.2696 174.764L123.914 183.228C132.459 186.06 141.016 188.849 149.577 191.638L200.309 208.182L195.964 256.434L191.811 304H192.045L197.013 256.536L201.992 207.684C202.031 207.311 201.812 206.95 201.444 206.829Z" fill="#3E266D"/>
<path d="M61.8373 262.486L74.485 266.66L103.331 175.321L92.7892 171.846L61.8373 262.486Z" fill="white"/>
<path d="M61.9782 262.42L74.5516 266.46L74.2854 266.597L88.362 220.82L102.517 175.066L103.061 176.137L92.4996 172.74L93.6779 172.152L86.0837 194.862C84.8232 198.651 83.4962 202.416 82.2044 206.19L80.2511 211.849L78.2547 217.494L74.2658 228.782C72.9467 232.547 71.5883 236.301 70.2222 240.055L66.1276 251.308C64.7458 255.01 63.3874 258.725 61.9782 262.42ZM61.7355 262.455C62.8903 258.631 64.1038 254.83 65.286 251.018L68.9304 239.611C70.1439 235.811 71.3652 232.01 72.6257 228.221L76.3758 216.85L78.2469 211.163L80.165 205.491C81.4489 201.714 82.7016 197.925 84.0208 194.156L91.9007 171.544L91.9046 171.532C92.0729 171.05 92.5975 170.795 93.0789 170.955L103.593 174.509L103.605 174.513C104.043 174.662 104.282 175.141 104.141 175.584L89.4502 221.169L74.6808 266.73C74.6455 266.84 74.5281 266.903 74.4185 266.868H74.4107L61.7981 262.596C61.7512 262.569 61.7199 262.51 61.7355 262.455Z" fill="#3E266D"/>
<path d="M43.1887 138.671C10.0094 140.95 1.19392 137.816 1.19392 137.816L0 140.067V229.5L52.4113 247.264L78.1687 236.266L101.288 165.904C101.288 165.904 88.8357 135.541 43.1887 138.671Z" fill="white"/>
<path d="M101.687 165.743C100.72 163.574 99.4912 161.613 98.1446 159.714C96.7863 157.828 95.2831 156.051 93.6625 154.388C92.0419 152.725 90.3117 151.168 88.4641 149.76C86.6203 148.351 84.7061 147.03 82.6784 145.892C81.692 145.28 80.635 144.794 79.6134 144.241C78.5564 143.766 77.5191 143.233 76.4426 142.813C75.37 142.374 74.2936 141.931 73.1936 141.574C72.6455 141.385 72.1014 141.185 71.5495 141.009L69.878 140.519C67.6546 139.868 65.3881 139.365 63.1098 138.958C60.8277 138.557 58.5259 138.267 56.2203 138.079C55.0694 137.95 53.9108 137.938 52.756 137.875C51.6012 137.8 50.4425 137.808 49.2877 137.812H47.5536C46.9743 137.82 46.3988 137.855 45.8195 137.879L42.3669 138.036L35.4891 138.389L32.0483 138.565L28.6152 138.64C26.3213 138.663 24.0353 138.758 21.7492 138.738C19.4631 138.691 17.1732 138.679 14.891 138.605L11.4736 138.408L9.76692 138.306L8.07195 138.126C6.94065 138.001 5.80545 137.914 4.69765 137.706C4.14179 137.608 3.5781 137.538 3.03398 137.424C2.50944 137.298 1.90661 137.193 1.46818 137.047L1.45644 137.043C1.08456 136.918 0.665709 137.079 0.473899 137.436L0.000244141 138.322V141.844L1.62476 138.758C2.58773 138.993 3.50372 139.165 4.4432 139.303C5.59798 139.511 6.75276 139.593 7.90754 139.711L9.63774 139.879L11.3719 139.973L14.8323 140.15C17.1379 140.213 19.4436 140.209 21.7492 140.24C24.0549 140.244 26.3605 140.138 28.6622 140.091L32.1187 139.993L35.5557 139.793L42.4334 139.397L45.8664 139.216C46.4341 139.193 47.0056 139.15 47.5732 139.138L49.2838 139.126C50.4229 139.114 51.562 139.099 52.7012 139.165C53.8364 139.22 54.9794 139.22 56.1146 139.342C58.385 139.511 60.6515 139.785 62.8945 140.162C65.1375 140.55 67.3688 141.025 69.5531 141.652L71.1933 142.123C71.7374 142.292 72.2698 142.484 72.81 142.664C73.8943 143.009 74.9473 143.441 76.0042 143.86C77.0689 144.268 78.0789 144.782 79.1241 145.241C80.1262 145.775 81.1635 146.249 82.1343 146.837C84.1268 147.936 86.0097 149.222 87.8299 150.583C89.6501 151.948 91.3608 153.458 92.9618 155.074C94.5628 156.69 96.0504 158.42 97.4009 160.256C98.7005 162.048 99.914 163.958 100.83 165.939L78.0867 236.192L65.161 241.463L52.3998 246.707L34.0799 240.283C27.9185 238.11 21.7414 235.98 15.5643 233.846L0.000244141 228.465V230.532L14.9967 235.513C21.1973 237.572 27.3978 239.643 33.6141 241.663L52.2432 247.762L52.2549 247.766C52.3684 247.805 52.4976 247.802 52.6151 247.747L65.4194 242.071L78.2081 236.36C78.2355 236.348 78.2589 236.325 78.2707 236.297L101.699 166.037L101.703 166.025C101.73 165.935 101.73 165.833 101.687 165.743Z" fill="#3E266D"/>
<path d="M29.3118 220.38C18.9227 221.106 8.89766 219.874 0 217.827V234.618L64.0647 255.756L73.6239 250.096L78.1687 236.27C78.1687 236.266 62.9608 218.035 29.3118 220.38Z" fill="white"/>
<path d="M78.3722 236.097C76.6851 234.203 74.7709 232.587 72.7588 231.096C71.7685 230.324 70.7037 229.668 69.6625 228.974C68.5977 228.311 67.5056 227.699 66.4213 227.08C65.2978 226.527 64.19 225.942 63.0548 225.417L59.5905 223.965L56.04 222.746C54.8461 222.369 53.6287 222.083 52.4191 221.749C51.2213 221.385 49.9804 221.204 48.7512 220.953C47.5181 220.722 46.2968 220.447 45.0481 220.341L41.3176 219.898C40.0688 219.812 38.8162 219.78 37.5675 219.722L35.6924 219.639C35.0661 219.616 34.4398 219.663 33.8174 219.674L30.0634 219.784C27.6129 219.843 25.0998 219.953 22.6258 219.969L18.9384 219.82L17.0946 219.745C16.4801 219.702 15.8655 219.623 15.2509 219.565L11.5635 219.188C10.3382 219.055 9.1208 218.815 7.89948 218.635C5.449 218.302 3.04158 217.733 0.626337 217.227C0.414954 217.184 0.203571 217.125 -0.0078125 217.078V218.553C0.097879 218.572 0.203571 218.604 0.313177 218.623C2.76757 219.114 5.2063 219.663 7.69201 219.98C8.92899 220.153 10.1621 220.38 11.4069 220.506L15.1452 220.855C15.7676 220.906 16.3861 220.981 17.0124 221.02L18.8953 221.079L22.6611 221.192C25.1585 221.153 27.6168 221.02 30.1338 220.934L33.837 220.788C34.4515 220.773 35.07 220.718 35.6846 220.737L37.5362 220.8C38.7692 220.847 40.0062 220.867 41.2354 220.937L44.9189 221.326C46.152 221.416 47.3616 221.671 48.579 221.883C49.7886 222.114 51.0177 222.279 52.2038 222.62C53.3977 222.934 54.6034 223.205 55.7856 223.561L59.3047 224.722L62.7377 226.111C63.8651 226.617 64.9651 227.178 66.0807 227.707C67.1572 228.311 68.2454 228.9 69.3023 229.539C70.3358 230.214 71.4005 230.849 72.3831 231.598C74.3481 233.006 76.2349 234.571 77.8594 236.336L73.4713 249.978L64.0452 255.638L51.2056 251.08C46.9114 249.551 42.5976 248.084 38.2956 246.585L25.3856 242.118L12.4403 237.725L1.65012e-05 233.505V235.725L11.8531 239.525L24.8688 243.695L37.908 247.797C42.257 249.155 46.5982 250.539 50.959 251.865L64.0334 255.854C64.0608 255.862 64.0961 255.858 64.1195 255.846L73.714 250.245C73.7492 250.225 73.7766 250.19 73.7923 250.147L78.4231 236.348L78.427 236.34C78.4505 236.262 78.4349 236.168 78.3722 236.097Z" fill="#3E266D"/>
<path d="M75.1154 220.039C74.8179 219.325 74.3677 218.686 73.9841 218.007L73.3852 216.999C73.1738 216.674 72.935 216.364 72.7119 216.046C72.2499 215.419 71.8272 214.76 71.3105 214.171L69.7838 212.394C69.2514 211.826 68.6878 211.281 68.1319 210.731C67.5878 210.163 66.981 209.672 66.386 209.162C65.791 208.657 65.2078 208.131 64.5658 207.68C63.9355 207.213 63.3171 206.735 62.679 206.28L60.71 205.005L60.2168 204.687L60.1541 204.648L60.0445 204.589L59.9154 204.522L59.6609 204.389L58.6314 203.856C57.9346 203.514 57.2926 203.118 56.545 202.82L54.3489 201.898C53.6169 201.577 52.8614 201.381 52.1177 201.122C51.3739 200.871 50.6302 200.616 49.8668 200.435L47.5925 199.835L47.5612 199.827L47.4986 199.82C45.326 199.545 43.1495 199.286 40.9731 199.035L34.3693 198.576L34.338 198.572L34.291 198.576L30.9754 198.788L27.6716 199.086C25.4717 199.314 23.2835 199.557 21.0992 199.82L14.5619 200.655C12.3855 200.922 10.2129 201.161 8.03647 201.392L4.77178 201.679L1.50317 201.875L0 201.918V203.255L1.53448 203.291L4.85398 203.228L8.16956 203.067L11.4734 202.828L14.7655 202.518L21.3262 201.836C23.5066 201.589 25.687 201.361 27.8634 201.153L31.1281 200.886L34.3458 200.686L40.7734 201.083C42.9186 201.314 45.0676 201.553 47.2128 201.765L49.3736 202.283C50.1174 202.44 50.8376 202.671 51.5579 202.891C52.2743 203.126 53.0258 203.303 53.7109 203.585L55.809 204.381C56.5097 204.624 57.2065 205.013 57.9033 205.323L58.9524 205.817L59.2147 205.942L59.3478 206.005L59.3791 206.021H59.3869L59.43 206.044L59.9193 206.338L61.8843 207.503L63.7829 208.766C64.4327 209.17 65.0199 209.653 65.6266 210.112C66.2294 210.575 66.8479 211.022 67.4038 211.543C67.9675 212.053 68.5586 212.54 69.1144 213.061L70.7194 214.697C71.2635 215.234 71.7097 215.858 72.2186 216.431C72.4613 216.725 72.7197 217.011 72.9546 217.313L73.62 218.247C74.0467 218.878 74.5438 219.47 74.9157 220.153L76.1057 222.145L75.1154 220.039Z" fill="#3E266D"/>
<path d="M78.6345 211.826C78.3057 211.155 77.7733 210.206 77.0609 209.002C76.6812 208.417 76.2701 207.762 75.8004 207.064C75.3033 206.386 74.7983 205.625 74.172 204.875C72.9859 203.33 71.4984 201.691 69.729 200.051C67.9636 198.408 65.9045 196.768 63.5284 195.325C61.1602 193.873 58.4944 192.587 55.5898 191.669C54.8539 191.457 54.1336 191.226 53.3703 191.03C52.6344 190.853 51.9102 190.661 51.1508 190.496C50.3835 190.343 49.6124 190.163 48.8373 190.033C48.0583 189.916 47.2793 189.771 46.4925 189.684C43.3414 189.288 40.0884 189.171 36.855 189.422L35.6415 189.531L34.5024 189.614C33.7156 189.673 32.9288 189.727 32.1381 189.782C30.5488 189.928 28.9673 190.069 27.4172 190.245C24.3051 190.567 21.2636 191.006 18.3238 191.367C15.384 191.728 12.5499 192.089 9.8528 192.332C9.1795 192.395 8.51404 192.453 7.86032 192.512C7.2066 192.555 6.5607 192.595 5.92655 192.638C4.65826 192.748 3.43302 192.755 2.25084 192.814C1.46794 192.834 0.739841 192.826 0 192.826V193.916C0.739841 193.96 1.46402 194.007 2.24692 194.034C4.63868 194.089 7.234 194.093 9.96632 193.913C12.6986 193.771 15.5758 193.536 18.5312 193.222C21.4789 192.916 24.5283 192.603 27.6246 192.281C29.1709 192.116 30.721 191.991 32.2751 191.861C33.058 191.81 33.8487 191.759 34.6355 191.712L35.2266 191.673L35.8647 191.63L37.0155 191.532C40.0923 191.265 43.2004 191.351 46.2342 191.708C47.753 191.893 49.2523 192.132 50.7124 192.41C51.4483 192.552 52.196 192.732 52.9319 192.889C53.6247 193.054 54.3372 193.261 55.034 193.442C57.8093 194.266 60.4007 195.376 62.726 196.682C65.0512 197.992 67.1259 199.459 68.9265 200.957C70.7155 202.467 72.2813 203.958 73.5535 205.389C74.2189 206.08 74.7513 206.801 75.3033 207.425C75.8239 208.072 76.2819 208.684 76.7046 209.229C77.4993 210.355 78.1413 211.237 78.5288 211.873C78.932 212.496 79.1512 212.83 79.1512 212.83C79.1512 212.83 78.9751 212.485 78.6345 211.826Z" fill="#3E266D"/>
<path d="M81.7348 202.522C81.5782 202.189 81.3864 201.781 81.1593 201.302C81.0458 201.063 80.9245 200.804 80.7914 200.53C80.6309 200.267 80.4665 199.988 80.2864 199.694C79.9302 199.102 79.5309 198.447 79.1003 197.733C78.6032 197.066 78.0669 196.348 77.4875 195.576C76.2819 194.077 74.8061 192.469 73.0133 190.904C72.5866 190.485 72.0973 190.128 71.608 189.747C71.1186 189.367 70.6215 188.978 70.1165 188.586C69.5959 188.206 69.04 187.872 68.4842 187.504C67.9205 187.158 67.3803 186.743 66.7736 186.437C65.5718 185.79 64.3622 185.068 63.043 184.507C62.3893 184.217 61.7395 183.887 61.0545 183.628C60.3655 183.373 59.6726 183.118 58.9759 182.86C56.1613 181.899 53.1785 181.063 50.0782 180.628C48.5398 180.345 46.9623 180.247 45.3886 180.09C44.5979 180.047 43.8033 180.032 43.0086 180.004C42.6133 179.992 42.214 179.973 41.8186 179.973L40.6247 180.008C39.83 180.043 39.0393 180.051 38.2408 180.114L35.9155 180.298C34.3615 180.443 32.7957 180.593 31.2729 180.765C28.2079 181.087 25.2172 181.522 22.3166 181.875C19.4198 182.236 16.6249 182.585 13.9748 182.844C12.6478 182.973 11.356 183.083 10.1033 183.166C8.8546 183.275 7.64893 183.315 6.48241 183.369C5.32372 183.428 4.20809 183.405 3.15117 183.432C2.09426 183.428 1.08823 183.393 0.144837 183.373C0.093948 183.369 0.0508885 183.366 0 183.366V184.174C0.0274015 184.177 0.054803 184.181 0.0822045 184.185C1.03343 184.268 2.04728 184.378 3.11986 184.456C4.19243 184.499 5.31981 184.578 6.49807 184.585C8.8546 184.629 11.4108 184.589 14.1 184.417C16.7893 184.264 19.6195 184.036 22.5319 183.723C25.4403 183.42 28.4428 183.111 31.4922 182.793C33.0188 182.628 34.5337 182.499 36.076 182.365L38.4052 182.201C39.1607 182.146 39.9279 182.15 40.6912 182.118L41.8382 182.075C42.2179 182.071 42.6015 182.091 42.9851 182.099C43.7485 182.122 44.5118 182.126 45.2712 182.165C46.7861 182.307 48.3049 182.385 49.7885 182.648C51.2839 182.836 52.7401 183.166 54.1884 183.456C54.9165 183.597 55.6133 183.828 56.3179 184.005C57.0186 184.197 57.7232 184.37 58.3965 184.621C59.0737 184.852 59.747 185.084 60.4125 185.315C61.074 185.55 61.7121 185.844 62.3502 186.099C63.6498 186.586 64.832 187.237 66.0181 187.813C66.6209 188.084 67.1493 188.465 67.7091 188.774C68.2571 189.108 68.8091 189.414 69.3297 189.747C69.8386 190.1 70.3397 190.449 70.8329 190.79C71.3222 191.136 71.8193 191.453 72.2539 191.838C74.0623 193.265 75.6047 194.721 76.8847 196.101C77.5032 196.811 78.0786 197.478 78.6188 198.094C79.1003 198.753 79.5387 199.357 79.938 199.902C80.1377 200.177 80.3295 200.439 80.5056 200.683C80.6622 200.941 80.8109 201.185 80.948 201.416C81.222 201.871 81.4568 202.259 81.6447 202.573C82.0244 203.201 82.2241 203.538 82.2241 203.538C82.2241 203.538 82.0479 203.185 81.7348 202.522Z" fill="#3E266D"/>
<path d="M84.7998 193.238C84.6472 192.912 84.4554 192.508 84.2361 192.038C84.1265 191.802 84.0052 191.548 83.8799 191.277C83.7351 191.014 83.5629 190.743 83.3906 190.453C83.0383 189.873 82.6508 189.229 82.228 188.527C81.77 187.849 81.2181 187.162 80.6544 186.398C80.5135 186.209 80.3647 186.017 80.2199 185.821C80.0672 185.633 79.895 185.452 79.7266 185.264C79.39 184.891 79.0416 184.507 78.6854 184.111C78.0003 183.291 77.1313 182.581 76.278 181.781C76.0627 181.581 75.8435 181.381 75.6242 181.181C75.3894 180.997 75.1506 180.812 74.9118 180.624C74.4303 180.251 73.941 179.871 73.4439 179.486C72.9585 179.079 72.3948 178.769 71.8507 178.404C71.3026 178.055 70.7507 177.686 70.1792 177.333C67.8383 176.031 65.3134 174.709 62.5341 173.776C61.1719 173.23 59.7235 172.873 58.283 172.43C57.551 172.238 56.8111 172.085 56.0674 171.909L54.9478 171.661C54.5721 171.591 54.1923 171.54 53.8126 171.477C53.0532 171.355 52.2899 171.238 51.5266 171.12C50.7554 171.046 49.9803 170.971 49.2092 170.893C48.4341 170.799 47.659 170.771 46.8801 170.744C46.1011 170.724 45.3182 170.661 44.5392 170.677C41.3919 170.704 38.3543 170.983 35.3088 171.285C32.2868 171.579 29.3431 172.018 26.4933 172.379C23.6436 172.756 20.8995 173.124 18.2925 173.426C16.9889 173.564 15.7206 173.709 14.4954 173.807C13.2662 173.932 12.0801 174.011 10.941 174.078C8.65888 174.211 6.56462 174.242 4.70523 174.223C2.89673 174.16 1.31136 174.097 0 173.96V174.399C1.2957 174.646 2.8615 174.854 4.66217 175.031C5.60165 175.093 6.59985 175.192 7.65285 175.231C8.70585 175.254 9.81757 175.317 10.9763 175.293C13.2936 175.305 15.7989 175.192 18.4412 175.003C21.0796 174.803 23.8628 174.56 26.7165 174.234C29.5741 173.921 32.5256 173.611 35.5124 173.321C38.4756 173.05 41.5524 172.799 44.5431 172.799C45.2947 172.775 46.0463 172.834 46.7939 172.846C47.5455 172.866 48.2971 172.885 49.0409 172.968C49.7885 173.034 50.5323 173.101 51.276 173.168C52.012 173.273 52.7518 173.387 53.4799 173.493C53.8479 173.552 54.2119 173.595 54.576 173.662L55.6564 173.889C56.3727 174.042 57.093 174.168 57.7976 174.336C59.1912 174.733 60.6004 175.039 61.9235 175.533C64.6167 176.38 67.0945 177.541 69.4041 178.706C69.9678 179.02 70.5119 179.357 71.056 179.671C71.5923 180 72.1482 180.279 72.6414 180.644C73.1424 180.989 73.6357 181.33 74.1211 181.663C74.3638 181.832 74.6026 181.997 74.8413 182.161C75.0645 182.346 75.2837 182.526 75.5029 182.707C76.3719 183.432 77.2488 184.083 77.9651 184.829C78.3409 185.186 78.701 185.535 79.0573 185.876C79.2334 186.048 79.4135 186.209 79.5779 186.382C79.7345 186.562 79.8871 186.739 80.0398 186.911C80.6426 187.613 81.2259 188.257 81.7348 188.876C82.2084 189.524 82.639 190.12 83.0344 190.657C83.2262 190.928 83.4219 191.179 83.5863 191.43C83.739 191.685 83.8838 191.928 84.0208 192.152C84.2909 192.599 84.5219 192.979 84.7098 193.285C85.0817 193.901 85.2774 194.23 85.2774 194.23C85.2774 194.23 85.1052 193.889 84.7998 193.238Z" fill="#3E266D"/>
<path d="M88.3268 184.935C88.3268 184.935 88.1311 184.613 87.7671 184.009C87.5831 183.707 87.356 183.334 87.0938 182.899C86.8315 182.456 86.5301 181.95 86.1308 181.432C85.7472 180.906 85.3205 180.322 84.8586 179.69C84.381 179.067 83.7938 178.451 83.2067 177.761C82.6391 177.055 81.9149 176.411 81.1907 175.705C80.8149 175.364 80.4704 174.972 80.0555 174.638C79.6445 174.301 79.2217 173.96 78.7911 173.607C77.9573 172.873 76.9865 172.242 76.004 171.567C75.7613 171.399 75.5147 171.226 75.2641 171.053C75.0019 170.901 74.7396 170.744 74.4734 170.591C73.945 170.277 73.4048 169.959 72.8606 169.641C72.3204 169.312 71.7215 169.065 71.1422 168.771C70.555 168.496 69.9796 168.171 69.3611 167.923C68.1202 167.445 66.8949 166.853 65.5718 166.453C62.9804 165.488 60.1737 164.899 57.3357 164.331C55.8991 164.131 54.4625 163.852 52.9945 163.762C52.2625 163.703 51.5344 163.605 50.7946 163.585L48.5868 163.511C47.8509 163.464 47.115 163.511 46.379 163.511L45.2752 163.527C45.099 163.53 44.8954 163.527 44.7349 163.538L44.1752 163.57C43.4314 163.613 42.6838 163.656 41.9439 163.703C41.2119 163.766 40.4838 163.825 39.7557 163.884C36.8394 164.162 33.9505 164.456 31.1595 164.786C25.5696 165.437 20.3085 165.97 15.7676 166.037C13.5011 166.1 11.4186 166.021 9.58273 165.903C7.74683 165.77 6.14971 165.59 4.8501 165.358C3.54266 165.182 2.53663 164.919 1.84768 164.77C1.15873 164.613 0.794678 164.531 0.794678 164.531C0.794678 164.531 1.17047 164.574 1.87117 164.656C2.56795 164.739 3.58963 164.868 4.90099 164.939C6.20452 165.052 7.79772 165.08 9.61405 165.092C11.4343 165.072 13.4855 164.997 15.7168 164.817C17.948 164.66 20.3554 164.358 22.9077 164.052C25.4599 163.695 28.1453 163.319 30.9285 162.93C33.7195 162.55 36.6084 162.13 39.5756 161.84C40.3233 161.773 41.071 161.703 41.8186 161.636C42.5624 161.585 43.3062 161.534 44.0538 161.483L44.6136 161.448C44.8289 161.432 45.0011 161.436 45.1969 161.428L46.3438 161.401C47.1071 161.397 47.8744 161.334 48.6338 161.381L50.9238 161.475C51.6871 161.507 52.4426 161.612 53.202 161.679C54.7248 161.789 56.2162 162.087 57.7037 162.307C58.4435 162.448 59.1755 162.621 59.9036 162.781C60.6357 162.942 61.3559 163.111 62.0605 163.334C62.7691 163.542 63.4737 163.75 64.1704 163.954C64.8633 164.186 65.5366 164.448 66.2099 164.688C67.5721 165.143 68.8404 165.774 70.1009 166.331C70.7311 166.613 71.3144 166.974 71.9133 167.284C72.5005 167.618 73.1073 167.9 73.6553 168.265C75.8905 169.649 77.9143 171.112 79.5897 172.673C80.0124 173.062 80.4235 173.438 80.8266 173.807C81.2298 174.176 81.5704 174.595 81.9266 174.976C82.6195 175.752 83.3084 176.462 83.8369 177.227C84.381 177.976 84.9408 178.639 85.3675 179.322C85.7824 180.008 86.1621 180.64 86.5066 181.208C86.671 181.495 86.8511 181.754 86.9802 182.016C87.1055 182.283 87.219 182.53 87.3286 182.762C87.5439 183.224 87.7318 183.621 87.8806 183.938C88.1663 184.593 88.3268 184.935 88.3268 184.935Z" fill="#3E266D"/>
<path d="M91.384 175.635C91.384 175.635 91.1843 175.325 90.8125 174.744C90.6246 174.454 90.3975 174.097 90.1274 173.674C89.9904 173.462 89.8456 173.234 89.689 172.995C89.5207 172.767 89.3367 172.524 89.1449 172.265C88.7613 171.756 88.3385 171.191 87.8766 170.575C87.3755 169.994 86.8275 169.367 86.2442 168.696C85.0425 167.394 83.6059 166.005 81.9344 164.617C81.1006 163.919 80.165 163.279 79.2334 162.577C78.744 162.264 78.243 161.942 77.7341 161.616C77.2291 161.287 76.7242 160.946 76.1683 160.663C75.6242 160.365 75.0762 160.059 74.5203 159.753C73.9644 159.443 73.3655 159.2 72.7823 158.918C71.6197 158.337 70.3709 157.878 69.1183 157.372C66.5739 156.478 63.8963 155.678 61.1014 155.188C58.3182 154.682 55.4528 154.333 52.5756 154.329L51.4952 154.293L50.4344 154.329L48.2344 154.403C47.5024 154.427 46.7743 154.454 46.0462 154.478C45.3338 154.541 44.6213 154.603 43.9089 154.67C43.2004 154.733 42.4919 154.799 41.7912 154.862C41.0866 154.917 40.3859 154.976 39.6852 155.066C38.2838 155.231 36.898 155.388 35.5358 155.549C32.8152 155.878 30.1494 156.227 27.6363 156.459C26.3876 156.596 25.135 156.666 23.9449 156.753C22.7471 156.812 21.5923 156.843 20.4845 156.874C19.3728 156.866 18.312 156.89 17.302 156.855C16.2882 156.804 15.333 156.772 14.4327 156.71C13.5363 156.631 12.6986 156.557 11.9235 156.49C11.1484 156.4 10.4399 156.294 9.80577 156.208C8.52573 156.058 7.53536 155.811 6.85424 155.702C6.17703 155.572 5.81689 155.505 5.81689 155.505C5.81689 155.505 6.18486 155.533 6.8699 155.588C7.55885 155.631 8.56096 155.749 9.841 155.792C10.483 155.819 11.1915 155.847 11.9587 155.878C12.7338 155.886 13.5637 155.894 14.4523 155.902C15.3448 155.898 16.2921 155.855 17.2864 155.831C18.2846 155.792 19.3298 155.717 20.4219 155.658C22.6101 155.478 24.9471 155.239 27.4406 154.89C28.0669 154.803 28.6972 154.709 29.3391 154.619C29.9733 154.517 30.6192 154.415 31.269 154.309C32.5803 154.109 33.9152 153.909 35.2774 153.701C38.0098 153.317 40.8282 152.874 43.768 152.634C44.4961 152.564 45.2281 152.489 45.964 152.419C46.6921 152.387 47.4202 152.356 48.1522 152.324L50.3483 152.23L51.4874 152.183L52.6069 152.211C55.6054 152.246 58.5883 152.63 61.485 153.179C62.2053 153.332 62.9256 153.489 63.638 153.642C64.3426 153.842 65.0394 154.042 65.7362 154.239C66.4369 154.423 67.1141 154.658 67.7834 154.905C68.4528 155.152 69.1261 155.364 69.7759 155.635C71.0638 156.2 72.3556 156.69 73.5378 157.357C74.1328 157.678 74.7434 157.957 75.3032 158.302C75.8669 158.647 76.4228 158.985 76.9747 159.318C77.5306 159.636 78.0434 160.012 78.5522 160.373C79.0611 160.734 79.5583 161.091 80.0515 161.444C80.9714 162.228 81.8991 162.942 82.7134 163.711C83.1165 164.099 83.508 164.484 83.8955 164.856C84.2831 165.225 84.6589 165.586 84.9799 165.982C85.6375 166.762 86.3108 167.453 86.8471 168.186C87.3834 168.912 87.8883 169.594 88.3541 170.222C88.7652 170.889 89.1449 171.501 89.4854 172.054C89.6538 172.328 89.8143 172.591 89.9669 172.834C90.0961 173.089 90.2175 173.328 90.331 173.552C90.5541 173.999 90.7459 174.38 90.8986 174.689C91.2196 175.305 91.384 175.635 91.384 175.635Z" fill="#3E266D"/>
<path d="M67.9753 237.662C67.6935 237.411 67.3216 237.133 66.8832 236.799C66.4487 236.458 65.9319 236.093 65.3409 235.705C64.1626 234.924 62.6868 234.026 60.9136 233.155C59.1442 232.281 57.1008 231.367 54.7952 230.563C52.4895 229.763 49.9451 229.017 47.1737 228.507C45.7879 228.249 44.3474 228.06 42.852 227.946C42.12 227.903 41.3841 227.86 40.6443 227.821C39.8927 227.794 39.1372 227.77 38.3739 227.743C35.3362 227.695 32.2281 227.739 29.0887 227.711C25.9492 227.719 22.7824 227.644 19.6351 227.386C16.4879 227.142 13.3524 226.762 10.2951 226.201C8.76848 225.899 7.25749 225.601 5.76997 225.256C5.40593 225.173 5.03796 225.091 4.67391 225.013C4.30204 224.915 3.93407 224.816 3.5622 224.718C2.82236 224.526 2.09034 224.334 1.36225 224.142C0.900335 224.012 0.461911 223.887 0 223.754V226.315C0.23487 226.389 0.461911 226.468 0.700696 226.542C1.42096 226.754 2.14906 226.97 2.88107 227.189C3.24512 227.295 3.61308 227.405 3.98496 227.515C4.36858 227.617 4.75612 227.715 5.13974 227.817C5.90307 228.005 6.66248 228.225 7.43755 228.394C8.21654 228.558 8.99552 228.723 9.78234 228.888C12.9335 229.492 16.1708 229.959 19.4198 230.194C22.6689 230.425 25.9257 230.465 29.1043 230.425C32.2829 230.355 35.3871 230.202 38.3699 230.151C39.1098 230.139 39.8457 230.127 40.5738 230.112C41.3019 230.116 42.0613 230.104 42.7464 230.119C44.1438 230.159 45.5217 230.276 46.8566 230.461C49.5341 230.814 52.055 231.355 54.345 231.994C56.635 232.634 58.7058 233.332 60.5025 234.057C61.4107 234.407 62.2327 234.787 63.0078 235.116C63.7594 235.489 64.4718 235.795 65.0786 236.14C65.6932 236.47 66.249 236.76 66.707 237.042C67.1768 237.317 67.5799 237.548 67.8892 237.768C68.5155 238.188 68.8483 238.411 68.8483 238.411C68.8483 238.411 68.5468 238.152 67.9753 237.662Z" fill="#3E266D"/>
<path d="M66.0455 242.851C65.7675 242.6 65.3917 242.322 64.9533 241.988C64.5188 241.647 64.0021 241.282 63.411 240.894C62.2327 240.113 60.757 239.215 58.9837 238.345C57.2143 237.47 55.171 236.556 52.8653 235.752C50.5636 234.956 48.0153 234.206 45.2399 233.697C43.8542 233.442 42.4136 233.249 40.9183 233.136C40.1863 233.093 39.4543 233.053 38.7066 233.006C37.955 232.983 37.1995 232.955 36.4401 232.932C33.4063 232.885 30.2943 232.928 27.1549 232.9C24.0155 232.908 20.8486 232.834 17.7014 232.575C14.5541 232.332 11.4186 231.951 8.36137 231.39C6.83472 231.088 5.32372 230.79 3.83621 230.445C3.47216 230.363 3.1042 230.28 2.74407 230.202C2.37219 230.104 2.00031 230.006 1.63235 229.908C1.08432 229.766 0.544116 229.621 0 229.48V232.096C0.317075 232.19 0.634149 232.285 0.951224 232.379C1.31527 232.485 1.68324 232.594 2.05511 232.704C2.43873 232.806 2.82627 232.904 3.20989 233.006C3.97322 233.195 4.73263 233.418 5.5077 233.583C6.28277 233.748 7.06567 233.912 7.85249 234.077C11.0037 234.681 14.241 235.148 17.49 235.383C20.7429 235.615 23.9959 235.654 27.1745 235.611C30.353 235.54 33.4572 235.387 36.4401 235.34C37.1799 235.328 37.9159 235.316 38.644 235.301C39.376 235.305 40.1315 235.293 40.8165 235.309C42.214 235.348 43.5919 235.466 44.9306 235.65C47.6042 236.003 50.1252 236.544 52.4152 237.184C54.7012 237.823 56.7759 238.521 58.5766 239.247C59.4808 239.596 60.3029 239.976 61.078 240.306C61.8295 240.678 62.542 240.984 63.1487 241.329C63.7633 241.659 64.3192 241.949 64.7811 242.232C65.2469 242.506 65.654 242.738 65.9593 242.957C66.5857 243.377 66.9184 243.6 66.9184 243.6C66.9184 243.6 66.617 243.342 66.0455 242.851Z" fill="#3E266D"/>
<path d="M1.44445 224.86C1.44445 224.86 -1.80067 230.288 2.94762 231.857C2.94762 231.857 7.371 232.865 7.96992 226.789L1.44445 224.86Z" fill="white"/>
<path d="M8.29483 225.734L8.28308 225.73C7.73505 225.581 7.18311 225.456 6.62334 225.346C6.06748 225.221 5.50379 225.134 4.9401 225.036C3.80489 224.875 2.66578 224.734 1.47968 224.758H1.44445C1.41313 224.758 1.3779 224.777 1.35833 224.805C0.959053 225.397 0.62632 226.032 0.375792 226.715C0.250528 227.056 0.152666 227.409 0.0743755 227.77L0 228.26V229.202C0.0117435 229.3 0.0195725 229.394 0.0274015 229.492C0.039145 229.688 0.12135 229.88 0.176153 230.072C0.223127 230.272 0.317075 230.453 0.422766 230.633C0.524543 230.814 0.622406 230.998 0.771157 231.143C0.908164 231.292 1.04126 231.457 1.19392 231.594L1.68324 231.955C1.84373 232.088 2.0238 232.159 2.19995 232.249L2.74015 232.504L2.75972 232.512L2.79887 232.524C3.04157 232.579 3.21772 232.61 3.42127 232.626C3.62091 232.645 3.82055 232.645 4.01628 232.645C4.41164 232.622 4.81484 232.575 5.20629 232.453C5.40201 232.394 5.60165 232.332 5.78563 232.238C5.97353 232.155 6.16534 232.065 6.32975 231.943C6.5059 231.83 6.68597 231.72 6.83472 231.579C6.98738 231.437 7.16354 231.316 7.29272 231.155L7.69199 230.684L8.02081 230.178C8.25568 229.841 8.37703 229.476 8.5571 229.119C8.68236 228.755 8.80371 228.386 8.89375 228.017C8.96029 227.648 9.01118 227.276 9.06207 226.907C9.13253 226.378 8.81154 225.876 8.29483 225.734ZM6.58028 228.456C6.49024 228.719 6.44327 229.025 6.318 229.264L6.14577 229.645L5.92655 229.982C5.86001 230.104 5.75823 230.182 5.67603 230.288C5.59382 230.394 5.48813 230.473 5.38635 230.555C5.28849 230.645 5.17888 230.712 5.06145 230.778C4.95184 230.853 4.83049 230.904 4.70523 230.955C4.45862 231.065 4.1846 231.124 3.91059 231.171C3.76966 231.182 3.63266 231.202 3.49173 231.198C3.36647 231.202 3.20989 231.194 3.11986 231.186L2.73624 231.053C2.5914 231.002 2.43482 230.967 2.31738 230.88L1.92593 230.665C1.8085 230.582 1.71064 230.476 1.59712 230.386C1.47577 230.304 1.40139 230.178 1.31527 230.065C1.22132 229.955 1.13521 229.833 1.08432 229.696C1.0256 229.563 0.935566 229.437 0.912079 229.28C0.876848 229.131 0.818131 228.986 0.802473 228.829L0.751584 228.351L0.755499 227.86C0.7829 227.531 0.822045 227.197 0.896421 226.864C1.03734 226.236 1.23307 225.605 1.50317 225.009C2.46614 225.644 3.46825 226.138 4.47819 226.605C5.00273 226.829 5.52336 227.064 6.05573 227.26C6.28669 227.354 6.52547 227.429 6.76034 227.515C6.75643 227.535 6.75251 227.558 6.7486 227.582L6.58028 228.456Z" fill="#3E266D"/>
<path d="M77.9729 236.203L101.096 165.841C101.096 165.841 129.12 148.83 163.978 178.522C189.321 200.102 198.265 202.832 198.265 202.832L187.164 277.607L166.832 284.345L92.1708 260.388L77.9729 236.203Z" fill="white"/>
<path d="M77.8712 236.168L100.685 165.703V165.692C100.716 165.594 100.787 165.515 100.869 165.468C102.932 164.299 105.081 163.452 107.296 162.726C109.508 162.02 111.771 161.487 114.061 161.11C116.351 160.738 118.668 160.514 120.989 160.479C123.307 160.444 125.632 160.522 127.934 160.812C129.089 160.91 130.232 161.146 131.378 161.31C132.51 161.558 133.661 161.746 134.78 162.048C135.904 162.334 137.027 162.617 138.131 162.985C138.683 163.162 139.243 163.323 139.787 163.511L141.419 164.111C143.596 164.911 145.713 165.86 147.792 166.888C149.863 167.923 151.887 169.057 153.852 170.285C154.858 170.865 155.793 171.548 156.76 172.183C157.735 172.811 158.663 173.505 159.586 174.195L160.984 175.227C161.446 175.58 161.884 175.952 162.338 176.313L165.02 178.494L170.343 182.875L173.005 185.064L175.722 187.166C177.546 188.551 179.331 189.986 181.183 191.332C183.046 192.654 184.894 194.011 186.777 195.309L189.642 197.184L191.075 198.117L192.547 198.984C193.529 199.557 194.496 200.161 195.51 200.655C196.011 200.906 196.512 201.189 197.017 201.42C197.51 201.628 198.058 201.902 198.497 202.044L198.508 202.048C198.892 202.173 199.119 202.557 199.064 202.946L188.237 277.76C188.174 278.179 187.876 278.513 187.501 278.638L167.165 285.361C166.942 285.436 166.707 285.432 166.499 285.365C160.275 283.369 154.063 281.345 147.855 279.301L129.226 273.198C123.013 271.166 116.801 269.139 110.604 267.064L92.0025 260.878L91.9908 260.874C91.8655 260.835 91.7716 260.749 91.7089 260.643L84.7764 248.452L77.8751 236.246C77.8634 236.227 77.8633 236.195 77.8712 236.168ZM78.0865 236.187L85.3557 248.123L92.621 260.117L92.3274 259.886L111.054 265.679C117.302 267.597 123.534 269.562 129.766 271.523L148.469 277.399C154.705 279.348 160.933 281.321 167.157 283.314L166.492 283.318L186.82 276.564L186.084 277.442L197.459 202.71L198.027 203.613C196.813 203.161 195.815 202.648 194.774 202.091C193.725 201.569 192.742 200.949 191.744 200.357L190.249 199.463L188.804 198.506L185.911 196.588C184.021 195.266 182.169 193.889 180.298 192.54C178.443 191.171 176.654 189.712 174.826 188.304L172.105 186.17L169.459 183.962L164.162 179.549L161.504 177.364C161.062 177.008 160.628 176.631 160.177 176.286L158.811 175.258C157.899 174.568 156.991 173.878 156.04 173.254C155.093 172.622 154.173 171.94 153.19 171.363C151.264 170.144 149.28 169.018 147.252 167.982C145.22 166.959 143.145 166.013 141.012 165.217L139.415 164.617C138.879 164.429 138.331 164.268 137.79 164.091C136.714 163.723 135.614 163.44 134.514 163.15C133.418 162.844 132.294 162.652 131.183 162.405C130.059 162.236 128.944 162.001 127.812 161.899C125.558 161.597 123.283 161.511 121.009 161.522C118.739 161.534 116.464 161.734 114.221 162.079C111.974 162.424 109.755 162.934 107.582 163.605C105.425 164.288 103.272 165.119 101.323 166.202L101.511 165.97L78.0865 236.187Z" fill="#3E266D"/>
<path d="M76.8025 260.105L73.4282 250.029L77.973 236.203C77.973 236.203 101.014 230.59 126.689 252.508C152.368 274.426 187.16 277.607 187.16 277.607L181.602 294.532L76.8025 260.105Z" fill="white"/>
<path d="M76.7007 260.137L73.2638 250.084C73.2521 250.049 73.2521 250.01 73.2638 249.974L77.7224 236.121L77.7263 236.113C77.7537 236.027 77.8281 235.964 77.9103 235.944C80.3882 235.426 82.8896 235.262 85.3909 235.266C86.6436 235.234 87.8923 235.34 89.141 235.399C90.3858 235.497 91.6267 235.658 92.8715 235.803C94.1007 236.027 95.3416 236.219 96.5629 236.47L100.207 237.364L103.789 238.498C104.971 238.905 106.122 239.4 107.293 239.851C108.475 240.27 109.579 240.863 110.714 241.392C111.841 241.937 112.984 242.447 114.053 243.102L117.314 244.969C118.367 245.64 119.392 246.358 120.434 247.056L121.992 248.107C122.508 248.46 122.982 248.872 123.479 249.253L126.431 251.575C128.368 253.081 130.325 254.665 132.298 256.152L135.356 258.231L136.882 259.27C137.407 259.6 137.943 259.906 138.472 260.223L141.658 262.114C142.727 262.737 143.842 263.267 144.934 263.847C147.103 265.036 149.377 266.013 151.624 267.044C152.74 267.574 153.906 267.985 155.049 268.46C156.2 268.915 157.332 269.405 158.506 269.794L162.002 271.029L165.54 272.139C166.715 272.524 167.913 272.83 169.103 273.163C170.293 273.496 171.486 273.814 172.692 274.092C173.89 274.379 175.092 274.681 176.305 274.92C177.511 275.175 178.72 275.434 179.938 275.642C182.357 276.093 184.819 276.465 187.231 276.713H187.235C187.728 276.764 188.088 277.207 188.037 277.701C188.029 277.764 188.017 277.827 187.998 277.885L182.533 294.845C182.365 295.367 181.805 295.657 181.284 295.485H181.273L168.151 291.245C163.783 289.817 159.402 288.425 155.046 286.965L141.952 282.631L128.889 278.223L115.826 273.81L102.787 269.327C98.4458 267.821 94.089 266.346 89.7556 264.812L76.7516 260.215C76.736 260.196 76.7125 260.168 76.7007 260.137ZM76.8847 260.019L90.0335 264.012C94.4334 265.342 98.8138 266.738 103.202 268.099L116.359 272.225L129.496 276.414L142.629 280.611L155.738 284.883C160.115 286.295 164.468 287.77 168.829 289.209L181.907 293.575L180.646 294.214L186.307 277.321L187.078 278.493C184.545 278.203 182.091 277.799 179.633 277.313C178.399 277.085 177.178 276.815 175.957 276.544C174.732 276.289 173.522 275.975 172.309 275.669C171.091 275.379 169.889 275.046 168.688 274.697C167.486 274.351 166.276 274.03 165.09 273.63L161.52 272.476L157.997 271.194C156.815 270.79 155.668 270.284 154.509 269.813C153.358 269.319 152.184 268.895 151.057 268.346C148.794 267.279 146.504 266.267 144.316 265.048C143.216 264.448 142.092 263.902 141.016 263.259L137.806 261.314C137.274 260.984 136.734 260.67 136.205 260.333L134.655 259.258L131.559 257.109C129.574 255.587 127.675 254.022 125.702 252.453L122.81 250.135C122.324 249.759 121.858 249.347 121.35 248.994L119.823 247.942C118.801 247.248 117.795 246.527 116.766 245.848L113.571 243.969C112.526 243.306 111.403 242.792 110.299 242.239C109.187 241.702 108.103 241.106 106.944 240.674C105.797 240.219 104.666 239.713 103.507 239.298L99.9881 238.137L96.4024 237.211C95.1968 236.948 93.9754 236.744 92.7659 236.509C91.5406 236.352 90.3154 236.176 89.0901 236.066C87.8571 235.991 86.624 235.87 85.387 235.885C82.9248 235.85 80.4273 235.987 78.0317 236.458L78.2196 236.285L73.5887 250.084V249.978L76.8847 260.019Z" fill="#3E266D"/>
<path d="M88.0098 226.072L90.0453 224.969C90.7069 224.569 91.4506 224.322 92.1631 224.008L93.2435 223.553C93.6075 223.416 93.9794 223.306 94.3513 223.185C95.095 222.957 95.827 222.679 96.5904 222.514L98.8725 221.992C99.6397 221.851 100.415 221.749 101.19 221.635C101.965 221.502 102.744 221.471 103.523 221.412C104.302 221.361 105.085 221.282 105.864 221.302C106.643 221.302 107.43 221.286 108.213 221.302L110.553 221.451L111.141 221.49L111.215 221.494L111.336 221.514L111.481 221.533L111.767 221.581L112.91 221.765C113.673 221.906 114.425 221.969 115.2 222.173L117.513 222.738C118.292 222.918 119.017 223.208 119.772 223.44C120.52 223.683 121.271 223.922 121.992 224.228L124.176 225.099L124.203 225.111L124.262 225.142C126.172 226.213 128.075 227.299 129.977 228.394L135.559 231.959L135.587 231.975L135.622 232.006L138.166 234.148L140.648 236.352C142.28 237.842 143.897 239.345 145.498 240.855L150.262 245.42C151.855 246.93 153.46 248.417 155.073 249.9L157.527 252.073L160.041 254.175L162.616 256.199L165.274 258.109L168.014 259.909L170.845 261.561L173.769 263.059L176.783 264.396L173.639 263.361L170.574 262.102C169.576 261.631 168.59 261.125 167.595 260.639L164.699 259.003L161.896 257.211L159.179 255.297L156.545 253.273L153.973 251.17L151.456 249.013L148.99 246.805L144.116 242.345C142.507 240.851 140.891 239.368 139.262 237.909L136.792 235.748L134.291 233.642L134.354 233.689L128.92 230.163C127.041 229.064 125.162 227.974 123.295 226.852L123.377 226.895L121.283 226.005C120.59 225.691 119.878 225.448 119.165 225.197C118.453 224.962 117.744 224.652 117.02 224.475L114.863 223.867C114.155 223.644 113.364 223.546 112.62 223.377L111.485 223.149L111.203 223.095L111.062 223.067L111.027 223.059L111.007 223.055H110.996C110.949 223.047 111.054 223.063 111.039 223.063L110.972 223.055L110.405 222.996L108.138 222.765L105.864 222.651C105.1 222.592 104.341 222.628 103.582 222.636C102.822 222.651 102.055 222.64 101.303 222.734C100.548 222.808 99.7846 222.847 99.0291 222.938L96.7704 223.295C96.011 223.404 95.2829 223.64 94.5352 223.797C94.1634 223.887 93.7837 223.965 93.4196 224.067L92.3314 224.424C91.6111 224.679 90.8595 224.86 90.1588 225.185L88.0098 226.072Z" fill="#3E266D"/>
<path d="M91.0669 216.768C91.0669 216.768 91.4231 216.591 92.0886 216.266C92.7462 215.925 93.7444 215.474 95.0284 214.932C95.6821 214.689 96.3984 214.407 97.1931 214.128C97.9956 213.877 98.8528 213.563 99.8001 213.332C101.671 212.795 103.844 212.367 106.232 212.096C108.627 211.826 111.254 211.736 114.022 211.987C116.785 212.23 119.698 212.783 122.579 213.771C123.291 214.038 124.011 214.281 124.743 214.579C125.44 214.873 126.137 215.148 126.845 215.47C127.55 215.803 128.278 216.121 128.983 216.478C129.676 216.846 130.388 217.192 131.077 217.592C133.848 219.149 136.534 220.992 138.984 223.118L139.892 223.926L140.758 224.671C141.36 225.189 141.959 225.703 142.558 226.217C143.752 227.276 144.938 228.331 146.081 229.398C148.395 231.512 150.579 233.673 152.732 235.713C154.881 237.756 156.952 239.733 158.972 241.533C159.477 241.984 159.978 242.428 160.467 242.863C160.968 243.287 161.465 243.706 161.947 244.118C162.902 244.961 163.884 245.699 164.797 246.448C165.724 247.174 166.652 247.825 167.509 248.476C168.398 249.084 169.239 249.656 170.03 250.198C170.848 250.7 171.616 251.17 172.32 251.602C173.029 252.041 173.714 252.379 174.317 252.716C175.514 253.402 176.517 253.83 177.182 254.163C177.851 254.485 178.208 254.657 178.208 254.657C178.208 254.657 177.836 254.524 177.139 254.273C176.446 254.002 175.393 253.692 174.133 253.1C173.502 252.81 172.778 252.528 172.031 252.147C171.287 251.763 170.476 251.343 169.615 250.896C168.778 250.406 167.885 249.88 166.942 249.331C166.03 248.731 165.063 248.115 164.08 247.432C162.127 246.052 160.033 244.51 157.942 242.741C155.828 241 153.656 239.098 151.464 237.089C149.272 235.089 147.005 233.018 144.703 230.92C143.556 229.868 142.386 228.845 141.212 227.813C140.609 227.303 140.006 226.793 139.399 226.283L138.945 225.903L138.46 225.487L137.591 224.722C135.273 222.679 132.721 220.898 130.071 219.38C128.74 218.623 127.39 217.925 126.055 217.282C125.381 216.956 124.669 216.654 123.988 216.344C123.326 216.062 122.633 215.807 121.964 215.536C119.243 214.552 116.499 213.897 113.857 213.563C111.211 213.234 108.674 213.183 106.337 213.312C104.004 213.457 101.859 213.728 99.988 214.124C99.0446 214.285 98.1835 214.544 97.3692 214.717C96.5668 214.924 95.8348 215.148 95.1693 215.332C93.8618 215.768 92.8206 216.093 92.1316 216.376C91.4388 216.631 91.0669 216.768 91.0669 216.768Z" fill="#3E266D"/>
<path d="M94.1243 207.468C94.1243 207.468 94.4687 207.28 95.1146 206.935C95.4356 206.762 95.831 206.546 96.3007 206.295C96.5356 206.17 96.7861 206.037 97.0562 205.891C97.342 205.774 97.6395 205.652 97.9566 205.519C98.5946 205.256 99.3032 204.966 100.07 204.648C100.865 204.409 101.726 204.15 102.65 203.871C104.509 203.385 106.651 202.969 109.019 202.777C109.61 202.695 110.213 202.699 110.835 202.679C111.454 202.663 112.084 202.648 112.726 202.636C113.368 202.64 114.018 202.703 114.679 202.734C115.341 202.793 116.018 202.781 116.691 202.899C118.042 203.095 119.439 203.232 120.837 203.569C121.534 203.726 122.25 203.844 122.955 204.044C123.655 204.248 124.368 204.456 125.08 204.664C127.914 205.566 130.807 206.668 133.563 208.166C134.968 208.857 136.295 209.716 137.657 210.528C138.323 210.959 138.965 211.426 139.623 211.873C139.947 212.1 140.28 212.32 140.601 212.555L141.541 213.293C142.159 213.795 142.793 214.269 143.396 214.799L145.158 216.329C146.32 217.372 147.495 218.419 148.614 219.47C150.888 221.557 153.037 223.687 155.159 225.695C157.273 227.707 159.316 229.657 161.297 231.441C162.284 232.339 163.262 233.195 164.217 234.003C165.157 234.838 166.104 235.583 167.008 236.321C167.909 237.058 168.817 237.701 169.651 238.356C170.504 238.984 171.334 239.553 172.105 240.102C173.686 241.133 175.072 242.035 176.266 242.69C177.437 243.393 178.403 243.855 179.049 244.197C179.699 244.534 180.048 244.71 180.048 244.71C180.048 244.71 179.684 244.569 179.002 244.303C178.325 244.024 177.303 243.679 176.074 243.063C174.822 242.506 173.346 241.729 171.678 240.788C170.86 240.29 169.983 239.772 169.075 239.2C168.187 238.599 167.231 237.988 166.28 237.293C164.362 235.924 162.327 234.375 160.268 232.634C158.193 230.908 156.056 229.041 153.895 227.056C151.738 225.083 149.507 223.048 147.24 220.973C146.109 219.933 144.966 218.925 143.807 217.901L142.03 216.384C141.458 215.889 140.836 215.434 140.241 214.956L139.345 214.242C139.039 214.011 138.722 213.799 138.409 213.579C137.783 213.144 137.164 212.693 136.53 212.269C135.227 211.481 133.958 210.641 132.608 209.967C131.292 209.225 129.926 208.621 128.591 207.998C127.922 207.68 127.229 207.449 126.552 207.174C125.875 206.911 125.205 206.629 124.516 206.433C123.831 206.217 123.154 206.001 122.485 205.785C121.812 205.585 121.126 205.44 120.457 205.264C119.126 204.883 117.787 204.703 116.492 204.46C115.846 204.319 115.196 204.307 114.562 204.228C113.924 204.169 113.297 204.087 112.679 204.048C112.061 204.028 111.45 204.009 110.855 203.989C110.256 203.973 109.669 203.934 109.093 203.985C106.792 204.056 104.686 204.311 102.838 204.656C101.918 204.86 101.057 205.052 100.262 205.229C99.4871 205.472 98.7708 205.695 98.1288 205.899C97.8039 206.001 97.4986 206.099 97.2089 206.189C96.931 206.307 96.6648 206.413 96.4182 206.515C95.9289 206.719 95.5139 206.892 95.1734 207.029C94.4844 207.319 94.1243 207.468 94.1243 207.468Z" fill="#3E266D"/>
<path d="M97.1775 198.168C97.1775 198.168 97.5181 197.984 98.1483 197.643C98.4654 197.474 98.8568 197.262 99.3148 197.011C99.5458 196.886 99.7924 196.756 100.055 196.611C100.325 196.486 100.626 196.372 100.935 196.242C101.566 195.984 102.259 195.697 103.014 195.384C103.785 195.113 104.639 194.885 105.543 194.607C105.774 194.54 106.001 194.47 106.236 194.399C106.471 194.336 106.717 194.297 106.96 194.246C107.453 194.144 107.962 194.042 108.483 193.94C109.52 193.685 110.639 193.63 111.798 193.497C112.088 193.465 112.385 193.434 112.679 193.403C112.976 193.395 113.278 193.387 113.579 193.379C114.186 193.364 114.808 193.352 115.439 193.336C116.069 193.297 116.707 193.379 117.361 193.411C118.01 193.454 118.672 193.489 119.341 193.548C121.995 193.897 124.81 194.332 127.601 195.238C129.022 195.611 130.396 196.184 131.817 196.686C132.518 196.964 133.207 197.286 133.903 197.588L134.952 198.055C135.297 198.219 135.634 198.404 135.978 198.58C136.659 198.937 137.34 199.294 138.029 199.655C138.691 200.055 139.356 200.451 140.026 200.851C140.703 201.236 141.345 201.679 141.987 202.122C142.625 202.569 143.29 202.985 143.909 203.463C146.426 205.358 148.704 207.39 150.971 209.445C153.225 211.481 155.335 213.583 157.41 215.576C159.481 217.572 161.469 219.502 163.383 221.298C164.35 222.185 165.286 223.055 166.214 223.863C167.126 224.695 168.034 225.464 168.915 226.197C170.672 227.664 172.336 228.931 173.843 230.021C175.374 231.08 176.712 231.994 177.867 232.669C178.998 233.383 179.938 233.869 180.568 234.218C181.198 234.563 181.535 234.748 181.535 234.748C181.535 234.748 181.179 234.599 180.517 234.32C179.856 234.034 178.861 233.665 177.667 233.038C176.446 232.461 175.013 231.665 173.397 230.7C172.61 230.194 171.745 229.676 170.872 229.084C170.011 228.476 169.079 227.864 168.163 227.154C166.296 225.785 164.342 224.205 162.33 222.479C160.326 220.749 158.236 218.894 156.13 216.933C154.016 214.979 151.828 212.975 149.597 210.963C147.373 208.982 145.048 206.946 142.644 205.17C142.053 204.703 141.415 204.303 140.805 203.864C140.19 203.432 139.572 203.001 138.922 202.624C138.284 202.232 137.646 201.844 137.008 201.455C136.35 201.102 135.692 200.753 135.039 200.404C134.71 200.231 134.389 200.051 134.056 199.886L133.05 199.427C132.381 199.121 131.727 198.796 131.061 198.514C129.703 198 128.392 197.407 127.037 197.019C124.368 196.097 121.686 195.556 119.138 195.117C118.496 195.034 117.862 194.98 117.235 194.909C116.609 194.854 115.994 194.752 115.384 194.752C114.777 194.732 114.178 194.709 113.587 194.689C113.293 194.681 113 194.674 112.71 194.666C112.421 194.681 112.139 194.693 111.853 194.709C110.726 194.776 109.633 194.776 108.612 194.952C108.099 195.015 107.598 195.081 107.112 195.144C106.87 195.18 106.631 195.199 106.396 195.246C106.165 195.297 105.934 195.348 105.711 195.399C104.811 195.607 103.957 195.776 103.182 195.972C102.415 196.211 101.714 196.435 101.08 196.631C100.767 196.733 100.462 196.819 100.18 196.921C99.902 197.035 99.6436 197.141 99.4009 197.243C98.9194 197.443 98.5084 197.611 98.1757 197.749C97.5337 198.019 97.1775 198.168 97.1775 198.168Z" fill="#3E266D"/>
<path d="M100.235 188.865C100.235 188.865 100.568 188.684 101.186 188.351C101.495 188.182 101.879 187.974 102.329 187.731C102.552 187.609 102.795 187.48 103.053 187.339C103.312 187.202 103.609 187.1 103.914 186.966C104.529 186.715 105.21 186.433 105.946 186.127C106.694 185.833 107.535 185.629 108.42 185.35C109.301 185.048 110.272 184.887 111.289 184.679C111.802 184.585 112.323 184.448 112.863 184.393C113.411 184.338 113.967 184.279 114.535 184.217C116.809 183.958 119.302 183.985 121.921 184.205C122.579 184.236 123.233 184.374 123.902 184.452C124.567 184.558 125.252 184.617 125.926 184.766C127.272 185.064 128.666 185.315 130.028 185.758C130.717 185.966 131.414 186.158 132.107 186.382C132.792 186.633 133.481 186.884 134.174 187.139C134.87 187.378 135.551 187.672 136.233 187.978C136.914 188.284 137.607 188.578 138.284 188.904C139.611 189.614 140.985 190.261 142.277 191.077C142.926 191.477 143.596 191.842 144.23 192.269L146.128 193.556C146.77 193.971 147.35 194.477 147.96 194.936L148.865 195.638C149.017 195.76 149.158 195.862 149.323 195.999L149.749 196.36C150.317 196.846 150.889 197.329 151.456 197.811C152.024 198.313 152.583 198.815 153.143 199.314C155.359 201.31 157.434 203.365 159.45 205.334C161.458 207.307 163.399 209.21 165.239 211.014C167.106 212.779 168.868 214.454 170.571 215.909C172.258 217.384 173.863 218.662 175.319 219.761C176.787 220.831 178.083 221.757 179.198 222.443C180.29 223.165 181.191 223.667 181.805 224.02C182.416 224.373 182.741 224.561 182.741 224.561C182.741 224.561 182.396 224.408 181.75 224.126C181.108 223.836 180.142 223.448 178.987 222.812C177.805 222.224 176.415 221.416 174.857 220.431C173.307 219.435 171.588 218.258 169.799 216.858C166.19 214.105 162.272 210.539 158.162 206.691C156.11 204.766 153.961 202.808 151.781 200.847C151.233 200.365 150.681 199.882 150.125 199.4C149.558 198.921 148.982 198.443 148.411 197.964L147.98 197.603C147.859 197.501 147.694 197.384 147.553 197.274L146.677 196.603C146.085 196.164 145.522 195.685 144.899 195.285L143.079 194.03C142.472 193.611 141.826 193.254 141.208 192.865C139.971 192.065 138.652 191.434 137.376 190.739C134.757 189.508 132.146 188.312 129.492 187.543C128.188 187.076 126.853 186.825 125.57 186.472C124.924 186.303 124.27 186.221 123.636 186.091C122.998 185.986 122.367 185.829 121.737 185.774C121.107 185.707 120.485 185.64 119.874 185.578C119.569 185.546 119.263 185.515 118.962 185.48C118.66 185.472 118.359 185.46 118.062 185.452C116.868 185.413 115.713 185.338 114.609 185.433C114.057 185.456 113.513 185.484 112.98 185.511C112.452 185.531 111.939 185.64 111.438 185.691C110.436 185.825 109.473 185.911 108.596 186.142C107.719 186.35 106.878 186.499 106.126 186.715C105.379 186.947 104.69 187.162 104.071 187.358C103.441 187.531 102.897 187.762 102.427 187.962C101.953 188.155 101.55 188.323 101.229 188.457C100.583 188.723 100.235 188.865 100.235 188.865Z" fill="#3E266D"/>
<path d="M103.296 179.565C103.296 179.565 103.621 179.396 104.239 179.082C104.549 178.925 104.924 178.729 105.371 178.502C105.594 178.388 105.832 178.27 106.087 178.141C106.357 178.035 106.639 177.917 106.94 177.8C107.543 177.557 108.209 177.29 108.937 177C109.684 176.768 110.491 176.521 111.36 176.258C112.221 175.988 113.176 175.835 114.166 175.599C114.664 175.474 115.18 175.407 115.709 175.34C116.237 175.27 116.781 175.195 117.333 175.121C118.445 174.987 119.612 174.968 120.817 174.885C121.42 174.897 122.035 174.909 122.657 174.917C123.283 174.929 123.914 174.933 124.556 175.007C125.194 175.066 125.843 175.125 126.501 175.184C127.159 175.242 127.812 175.38 128.482 175.478C129.828 175.646 131.159 176.019 132.525 176.329C133.207 176.498 133.876 176.729 134.561 176.933C135.246 177.133 135.931 177.349 136.6 177.615C137.278 177.87 137.959 178.125 138.644 178.384C139.309 178.686 139.979 178.992 140.652 179.294C143.306 180.573 145.937 182.04 148.367 183.797L149.287 184.444L150.172 185.158L151.883 186.543C152.45 187.005 153.022 187.464 153.585 187.919C154.134 188.414 154.682 188.908 155.226 189.398C157.445 191.34 159.449 193.371 161.422 195.309C162.393 196.286 163.348 197.247 164.288 198.184C164.75 198.655 165.204 199.121 165.658 199.58C166.116 200.035 166.574 200.486 167.02 200.93C168.817 202.695 170.555 204.279 172.207 205.727C173.052 206.421 173.847 207.107 174.63 207.731C175.417 208.343 176.153 208.943 176.865 209.476C177.589 210.002 178.266 210.488 178.889 210.943C179.527 211.379 180.118 211.775 180.646 212.136C181.703 212.869 182.576 213.371 183.156 213.744C183.743 214.109 184.056 214.305 184.056 214.305C184.056 214.305 183.723 214.144 183.105 213.846C182.494 213.532 181.551 213.144 180.431 212.5C179.867 212.187 179.233 211.853 178.56 211.465C177.895 211.057 177.178 210.618 176.411 210.147C175.652 209.665 174.865 209.115 174.019 208.555C173.185 207.982 172.344 207.331 171.447 206.676C170.574 205.989 169.662 205.276 168.735 204.519C167.83 203.738 166.86 202.938 165.94 202.083C164.057 200.404 162.119 198.533 160.127 196.65C159.125 195.713 158.103 194.76 157.073 193.795C156.561 193.305 156.032 192.842 155.5 192.379C154.975 191.908 154.443 191.438 153.91 190.963C153.378 190.488 152.842 190.014 152.305 189.535C151.738 189.084 151.162 188.629 150.591 188.17L148.869 186.805L148.035 186.143L147.15 185.527C144.829 183.821 142.316 182.389 139.775 181.142C137.242 179.875 134.608 178.922 132.032 178.125C130.729 177.788 129.449 177.411 128.173 177.188C127.534 177.066 126.908 176.909 126.278 176.827C125.648 176.745 125.025 176.658 124.415 176.576C123.8 176.474 123.189 176.451 122.59 176.411C121.988 176.372 121.397 176.333 120.813 176.294C119.647 176.309 118.515 176.262 117.435 176.329C115.266 176.454 113.286 176.709 111.548 177.043C110.683 177.235 109.872 177.415 109.121 177.584C108.389 177.804 107.715 178.008 107.101 178.192C106.795 178.282 106.506 178.372 106.232 178.455C105.962 178.557 105.711 178.651 105.476 178.741C105.01 178.918 104.615 179.071 104.29 179.192C103.636 179.431 103.296 179.565 103.296 179.565Z" fill="#3E266D"/>
<path d="M84.1931 243.475C84.1931 243.475 84.5924 243.447 85.344 243.393C85.7198 243.357 86.1817 243.357 86.7336 243.349C87.2856 243.33 87.9197 243.349 88.6243 243.389C90.0335 243.463 91.7559 243.62 93.6975 243.977C95.643 244.326 97.8234 244.808 100.156 245.534C102.482 246.268 104.975 247.178 107.508 248.417C108.776 249.037 110.048 249.739 111.317 250.539C111.927 250.939 112.55 251.343 113.172 251.751C113.791 252.178 114.413 252.606 115.039 253.041C117.509 254.81 119.987 256.697 122.528 258.54C125.045 260.415 127.64 262.239 130.326 263.906C133.003 265.581 135.747 267.142 138.542 268.511C139.947 269.174 141.341 269.837 142.742 270.445C143.087 270.598 143.427 270.747 143.768 270.9C144.124 271.041 144.48 271.186 144.837 271.327C145.545 271.614 146.25 271.896 146.946 272.174C148.344 272.7 149.714 273.218 151.057 273.724C152.415 274.218 153.738 274.704 155.03 275.171C156.33 275.63 157.59 276.073 158.807 276.509C160.025 276.952 161.207 277.368 162.346 277.756C166.895 279.325 170.688 280.631 173.342 281.545C176.008 282.443 177.53 282.953 177.53 282.953C177.53 282.953 177.135 282.878 176.395 282.737C175.659 282.584 174.567 282.396 173.193 282.086C171.823 281.772 170.144 281.427 168.245 280.945C166.339 280.486 164.194 279.952 161.869 279.309C159.536 278.697 157.018 277.975 154.372 277.179C153.049 276.771 151.687 276.356 150.297 275.928C148.908 275.481 147.487 274.995 146.054 274.5C145.349 274.241 144.637 273.983 143.917 273.72C143.56 273.59 143.2 273.457 142.836 273.324C142.468 273.175 142.1 273.026 141.728 272.876C141 272.574 140.261 272.3 139.536 271.974C138.812 271.641 138.088 271.311 137.356 270.978C134.463 269.59 131.582 268.04 128.83 266.291C126.078 264.542 123.44 262.635 120.907 260.709C118.39 258.76 115.983 256.791 113.614 254.975C113.027 254.524 112.444 254.077 111.865 253.634C111.274 253.202 110.671 252.739 110.111 252.347C108.964 251.547 107.786 250.821 106.6 250.174C104.239 248.864 101.887 247.801 99.6671 246.95C97.4476 246.103 95.3651 245.432 93.4861 244.942C92.5506 244.683 91.662 244.499 90.8439 244.306C90.0179 244.157 89.2624 243.981 88.5695 243.898C87.8806 243.797 87.2621 243.698 86.7258 243.655C86.1856 243.6 85.7237 243.545 85.3479 243.538C84.5963 243.494 84.1931 243.475 84.1931 243.475Z" fill="#3E266D"/>
<path d="M82.6704 248.797C82.6704 248.797 83.0697 248.77 83.8213 248.715C84.1971 248.676 84.659 248.676 85.2109 248.672C85.7629 248.652 86.3931 248.668 87.0977 248.711C88.5108 248.782 90.2293 248.943 92.1709 249.299C94.1164 249.649 96.2968 250.127 98.6259 250.853C100.951 251.586 103.445 252.496 105.977 253.736C107.246 254.351 108.518 255.057 109.786 255.858C110.397 256.258 111.015 256.662 111.642 257.07C112.256 257.497 112.883 257.929 113.509 258.36C115.979 260.129 118.457 262.016 120.993 263.859C123.514 265.734 126.106 267.558 128.791 269.225C131.469 270.904 134.213 272.461 137.008 273.83C138.413 274.492 139.806 275.155 141.208 275.759C141.552 275.912 141.893 276.065 142.233 276.214C142.59 276.359 142.946 276.501 143.302 276.642C144.015 276.924 144.715 277.207 145.416 277.489C146.81 278.015 148.184 278.529 149.526 279.034C150.881 279.529 152.208 280.015 153.499 280.486C154.799 280.945 156.056 281.388 157.277 281.823C158.494 282.266 159.676 282.682 160.816 283.071C165.364 284.639 169.157 285.946 171.811 286.859C174.477 287.758 176.004 288.272 176.004 288.272C176.004 288.272 175.608 288.197 174.869 288.056C174.133 287.903 173.041 287.715 171.667 287.405C170.297 287.091 168.617 286.746 166.719 286.263C164.812 285.8 162.667 285.271 160.342 284.628C158.009 284.016 155.496 283.294 152.846 282.498C151.523 282.09 150.164 281.674 148.775 281.247C147.381 280.8 145.964 280.317 144.531 279.819C143.823 279.564 143.11 279.301 142.394 279.038C142.034 278.909 141.674 278.776 141.31 278.642C140.942 278.493 140.574 278.344 140.202 278.195C139.474 277.893 138.734 277.619 138.01 277.293C137.286 276.964 136.561 276.63 135.829 276.297C132.937 274.904 130.055 273.355 127.304 271.61C124.552 269.86 121.909 267.954 119.381 266.028C116.867 264.079 114.46 262.11 112.088 260.294C111.501 259.843 110.914 259.396 110.338 258.952C109.747 258.521 109.144 258.058 108.584 257.666C107.437 256.866 106.259 256.14 105.073 255.493C102.713 254.183 100.36 253.12 98.1405 252.273C95.921 251.425 93.8385 250.751 91.9595 250.264C91.024 250.006 90.1393 249.821 89.3211 249.625C88.4952 249.48 87.7397 249.303 87.0468 249.217C86.3579 249.115 85.7394 249.017 85.1992 248.974C84.659 248.919 84.201 248.864 83.8213 248.856C83.0697 248.817 82.6704 248.797 82.6704 248.797Z" fill="#3E266D"/>
<path d="M106.314 247.801C106.314 247.801 105.707 254.101 100.955 252.532C100.955 252.532 96.8016 250.712 99.9215 245.468L106.314 247.801Z" fill="white"/>
<path d="M106.42 247.813C106.392 248.527 106.283 249.237 106.075 249.931C105.973 250.28 105.844 250.621 105.692 250.963L105.429 251.461L105.104 251.931C104.995 252.088 104.842 252.222 104.709 252.367C104.584 252.52 104.404 252.622 104.243 252.747C104.087 252.877 103.903 252.971 103.715 253.049C103.527 253.132 103.335 253.226 103.135 253.253C102.932 253.292 102.728 253.347 102.529 253.367H101.922C101.714 253.379 101.523 253.328 101.331 253.296L100.748 253.183L100.724 253.175L100.685 253.159C100.454 253.061 100.297 252.979 100.121 252.869C99.9529 252.767 99.7924 252.649 99.6319 252.528C99.3266 252.277 99.033 251.994 98.7903 251.665C98.669 251.5 98.5476 251.335 98.4537 251.147C98.348 250.967 98.254 250.782 98.1875 250.582C98.1131 250.386 98.0348 250.194 97.9996 249.99C97.9605 249.786 97.8939 249.582 97.8861 249.378L97.843 248.762L97.8782 248.158C97.89 247.746 98.0074 247.382 98.074 246.985C98.1914 246.621 98.3088 246.252 98.4615 245.899C98.622 245.562 98.8021 245.232 98.9861 244.907C99.2444 244.436 99.8042 244.244 100.293 244.432L100.305 244.436C100.83 244.644 101.354 244.871 101.867 245.111C102.388 245.342 102.893 245.609 103.402 245.868C104.408 246.413 105.41 246.981 106.353 247.703L106.381 247.727C106.408 247.746 106.424 247.778 106.42 247.813ZM106.185 247.891C105.034 247.829 103.934 247.633 102.842 247.405C102.286 247.272 101.726 247.15 101.182 246.989C100.63 246.844 100.086 246.683 99.5497 246.499L100.869 246.028C100.732 246.299 100.591 246.57 100.434 246.832L100.055 247.633C99.9725 247.899 99.8238 248.17 99.7846 248.441L99.6985 248.848L99.675 249.249C99.6554 249.386 99.6946 249.511 99.6985 249.645C99.6985 249.778 99.7376 249.904 99.7729 250.029C99.7964 250.159 99.8472 250.28 99.9021 250.402C99.9451 250.527 100.012 250.641 100.086 250.759C100.219 250.99 100.399 251.202 100.595 251.406C100.701 251.5 100.802 251.594 100.916 251.68C101.022 251.763 101.159 251.853 101.233 251.9L101.17 251.877L101.609 252.014C101.754 252.057 101.902 252.12 102.047 252.124L102.49 252.182C102.634 252.186 102.775 252.163 102.92 252.155C103.069 252.159 103.202 252.104 103.339 252.065C103.484 252.029 103.621 251.986 103.746 251.904C103.871 251.829 104.02 251.782 104.13 251.673C104.247 251.571 104.38 251.488 104.486 251.374L104.811 251.021L105.101 250.621C105.273 250.343 105.437 250.049 105.578 249.739C105.829 249.158 106.044 248.531 106.185 247.891Z" fill="#3E266D"/>
<path d="M78.5875 234.246C78.5875 234.246 79.6562 229.857 81.5273 223.369C81.9892 221.745 82.4942 219.984 83.0579 218.133C83.6098 216.281 84.1853 214.324 84.8194 212.312C85.4536 210.3 86.076 208.209 86.7649 206.103C87.446 203.993 88.135 201.851 88.8279 199.71C89.5442 197.576 90.2567 195.442 90.9613 193.34C91.6541 191.238 92.3901 189.182 93.0751 187.19C94.4608 183.205 95.7996 179.498 96.9818 176.333C99.3305 169.998 101.072 165.833 101.072 165.833C101.072 165.833 100.004 170.222 98.1366 176.713C97.2127 179.965 96.0893 183.742 94.8445 187.77C94.2103 189.786 93.5918 191.873 92.899 193.979C92.2178 196.086 91.5289 198.231 90.836 200.373C90.1236 202.506 89.4072 204.64 88.7026 206.742C88.0097 208.845 87.2699 210.9 86.5888 212.893C85.9037 214.889 85.207 216.807 84.5532 218.627C83.9073 220.451 83.2693 222.165 82.6821 223.75C80.3295 230.08 78.5875 234.246 78.5875 234.246Z" fill="white"/>
<path d="M78.4858 234.218L80.7327 225.495L81.2964 223.314L81.9031 221.137C82.3102 219.698 82.7017 218.239 83.1284 216.799C83.9543 213.916 84.8038 211.026 85.6767 208.154C86.5262 205.276 87.4422 202.412 88.3229 199.541C89.2624 196.678 90.1588 193.818 91.1257 190.975L92.5623 186.692L94.0498 182.44L95.5374 178.188L96.2889 176.043L97.0875 173.936L100.286 165.515C100.45 165.076 100.939 164.856 101.374 165.025C101.773 165.178 101.992 165.601 101.898 166.009L101.894 166.029C101.206 168.963 100.45 171.877 99.7259 174.807L99.1544 176.992L98.528 179.165L97.2754 183.491L96.0032 187.813L94.6488 192.136C94.2025 193.567 93.7289 194.995 93.2552 196.419L91.8381 200.706C90.836 203.534 89.877 206.386 88.8396 209.202L87.2856 213.442L85.6767 217.65C85.1404 219.051 84.5689 220.459 84.0209 221.851L83.1832 223.957L82.3024 226.032C81.0968 228.782 79.9263 231.547 78.6854 234.285V234.289C78.6619 234.344 78.5993 234.367 78.5445 234.344C78.4975 234.32 78.474 234.269 78.4858 234.218ZM78.4897 234.206C79.4292 231.351 80.4352 228.519 81.4021 225.675L82.1576 223.553L82.87 221.431C83.3437 220 83.8291 218.596 84.2871 217.164L87.0742 208.606L88.4599 204.322L89.83 200.035L92.5154 191.449L93.8463 187.174L95.1459 182.863L96.4651 178.557L97.1227 176.411L97.7256 174.25C98.5672 171.379 99.3736 168.5 100.25 165.633L101.863 166.143L98.5202 174.505L97.6864 176.596L96.9113 178.686L95.3495 182.911L93.7876 187.135L92.2883 191.363C91.2745 194.187 90.3193 197.043 89.3368 199.867C88.3895 202.718 87.4108 205.554 86.487 208.409C85.5475 211.265 84.6394 214.112 83.739 216.984C83.281 218.411 82.8583 219.847 82.4159 221.286L81.7622 223.436L81.1516 225.601L78.7011 234.269L78.4897 234.206Z" fill="#3E266D"/>
</g>
<g clip-path="url(#clip1_283_123)">
<path d="M99.5426 146.091C105.14 136.917 109.297 126.934 112.657 116.743C116.03 106.495 118.647 95.9669 120.284 85.306C121.202 79.3508 121.809 73.4028 121.883 67.3749C121.894 66.2784 120.063 66.0373 119.926 67.165C118.647 77.7258 117.318 88.2807 115.017 98.681C112.747 108.946 109.631 118.983 105.945 128.821C103.791 134.55 101.445 140.205 99.1202 145.867C99.0063 146.146 99.386 146.356 99.5426 146.091Z" fill="#4F3E7F"/>
<path d="M112.387 156.315C115.714 147.143 119.027 137.985 123.003 129.06C126.925 120.25 131.369 111.661 135.978 103.188C136.378 102.451 135.275 101.868 134.832 102.578C129.597 110.895 125.186 119.653 121.318 128.682C117.497 137.589 114.071 146.749 111.762 156.173C111.665 156.579 112.255 156.7 112.387 156.315Z" fill="#4F3E7F"/>
<path d="M120.987 156.91C125.623 148.38 130.973 140.464 137.564 133.318C144.093 126.223 151.564 120.111 159.941 115.294C162.217 113.983 164.545 112.763 166.916 111.626C169.393 110.438 172.017 109.487 174.442 108.208C175.525 107.638 174.712 106.115 173.635 106.345C171.256 106.852 168.952 107.874 166.733 108.851C164.457 109.858 162.226 110.948 160.054 112.165C155.717 114.591 151.572 117.367 147.668 120.455C140.005 126.522 133.097 133.724 127.904 142.04C125.005 146.697 122.436 151.601 120.616 156.777C120.529 156.984 120.879 157.111 120.987 156.91Z" fill="#4F3E7F"/>
<path d="M131.261 157.072C134.365 153.606 138.079 150.543 142.113 148.202C146.204 145.831 150.554 144.317 155.111 143.137C156.046 142.897 155.846 141.282 154.852 141.425C145.245 142.882 136.451 148.946 131.023 156.886C130.907 157.037 131.137 157.202 131.261 157.072Z" fill="#4F3E7F"/>
<path d="M90.9424 137.142C93.3929 131.407 94.6132 125.381 94.7465 119.147C94.8112 116.097 94.6076 113.067 94.1284 110.051C93.6332 106.95 92.9739 103.789 91.6075 100.949C91.3109 100.347 90.4512 100.799 90.5851 101.397C91.2245 104.303 92.1098 107.14 92.5945 110.093C93.0875 113.095 93.327 116.145 93.3186 119.179C93.2997 125.163 92.2435 131.249 90.4072 136.935C90.3012 137.249 90.8151 137.449 90.9424 137.142Z" fill="#4F3E7F"/>
<path d="M89.7548 92.6099C89.1523 91.3152 88.5429 90.0277 87.9404 88.733C87.3382 87.4524 86.8331 86.0848 86.0003 84.9297C85.7519 84.5817 85.1626 84.7932 85.2861 85.2431C85.6712 86.6206 86.4286 87.8834 87.059 89.1634C87.7039 90.4571 88.342 91.7581 88.9941 93.0588C89.2536 93.5833 89.993 93.1279 89.7548 92.6099Z" fill="#4F3E7F"/>
<path d="M141.265 95.3227C143.59 91.1814 146.61 87.4698 149.79 83.9526C153.005 80.3992 156.769 77.6891 160.507 74.7462C161.466 73.9887 160.648 72.5575 159.529 73.1065C155.171 75.2219 151.377 78.8309 148.199 82.4329C144.931 86.1431 142.612 90.4964 140.785 95.0578C140.658 95.379 141.089 95.6379 141.265 95.3227Z" fill="#4F3E7F"/>
<path d="M186.388 61.8124L182.554 66.4338L185.223 71.8048L179.642 69.5841L175.352 73.7845L175.739 67.792L170.42 65.0066L176.243 63.5296L177.239 57.608L180.453 62.6837L186.388 61.8124Z" stroke="#4F3E7F" stroke-width="1.4577" stroke-miterlimit="10" stroke-linecap="round" stroke-linejoin="round"/>
<path d="M119.635 36.7794L119.064 42.7478L124.295 45.6979L118.433 46.9989L117.252 52.8823L114.205 47.718L108.237 48.4061L112.209 43.9159L109.708 38.4562L115.215 40.8412L119.635 36.7794Z" stroke="#4F3E7F" stroke-width="1.4577" stroke-miterlimit="10" stroke-linecap="round" stroke-linejoin="round"/>
<path d="M66.4983 96.6002L66.0489 101.385L70.2263 103.743L65.5395 104.784L64.5934 109.495L62.1576 105.357L57.3819 105.911L60.5602 102.309L58.5579 97.9487L62.9654 99.8496L66.4983 96.6002Z" stroke="#4F3E7F" stroke-width="1.1664" stroke-miterlimit="10" stroke-linecap="round" stroke-linejoin="round"/>
<path d="M187.149 139.045L183.544 142.212L184.971 146.798L180.841 144.346L176.922 147.116L177.982 142.431L174.133 139.569L178.911 139.128L180.448 134.58L182.346 138.992L187.149 139.045Z" stroke="#4F3E7F" stroke-width="1.1664" stroke-miterlimit="10" stroke-linecap="round" stroke-linejoin="round"/>
<path d="M185.892 106.921L185.407 106.458C184.821 105.898 183.759 106.128 183.298 106.725C182.763 107.417 182.966 108.275 183.552 108.834L184.036 109.297C184.622 109.857 185.685 109.627 186.145 109.03C186.681 108.338 186.477 107.48 185.892 106.921Z" fill="#4F3E7F"/>
<path d="M193.962 108.186C193.03 107.295 191.807 108.879 192.732 109.763C193.665 110.654 194.888 109.07 193.962 108.186Z" fill="#4F3E7F"/>
<path d="M166.355 127.921C165.895 127.564 165.325 127.697 164.952 128.088L164.489 128.572C164.116 128.963 164.266 129.673 164.663 129.983C165.123 130.34 165.693 130.207 166.066 129.816L166.529 129.332C166.909 128.934 166.751 128.23 166.355 127.921Z" fill="#4F3E7F"/>
<path d="M167.753 157.829C166.82 156.938 165.598 158.522 166.523 159.406C167.449 160.29 168.672 158.706 167.753 157.829Z" fill="#4F3E7F"/>
<path d="M82.2196 68.9818C81.5283 68.4459 80.6701 68.6494 80.1106 69.2351L79.6478 69.7196C79.0882 70.3053 79.3176 71.3681 79.9152 71.8283C80.6065 72.3642 81.4647 72.1607 82.0242 71.575L82.487 71.0905C83.0466 70.5048 82.8171 69.442 82.2196 68.9818Z" fill="#4F3E7F"/>
<path d="M59.7194 79.7518C58.3238 78.4187 56.4826 80.7948 57.8709 82.1211C59.2664 83.4543 61.1004 81.0712 59.7194 79.7518Z" fill="#4F3E7F"/>
<path d="M57.2856 69.8205C56.8247 69.4633 56.2549 69.5965 55.8818 69.987L55.419 70.4715C55.046 70.8619 55.1967 71.5729 55.5927 71.8821C56.0536 72.2393 56.6303 72.0989 57.0033 71.7084L57.4593 71.2312C57.8392 70.8335 57.6816 70.1298 57.2856 69.8205Z" fill="#4F3E7F"/>
<path d="M89.4056 51.6444C88.4728 50.7534 87.25 52.3374 88.1756 53.2215C89.1011 54.1057 90.3239 52.5217 89.4056 51.6444Z" fill="#4F3E7F"/>
<path d="M100.842 77.3124C99.9093 76.4213 98.6866 78.0053 99.6121 78.8895C100.538 79.7737 101.76 78.1897 100.842 77.3124Z" fill="#4F3E7F"/>
<path d="M141.509 61.7561L141.025 61.2932C140.634 60.9202 139.923 61.0709 139.614 61.4669C139.257 61.9278 139.39 62.4976 139.781 62.8706L140.265 63.3335C140.656 63.7065 141.367 63.5558 141.676 63.1598C142.04 62.7058 141.907 62.136 141.509 61.7561Z" fill="#4F3E7F"/>
<path d="M154.905 49.6735C153.972 48.7824 152.75 50.3664 153.675 51.2506C154.601 52.1348 155.823 50.5508 154.905 49.6735Z" fill="#4F3E7F"/>
<path d="M155.532 66.8675C155.071 66.5103 154.501 66.6435 154.128 67.034L153.665 67.5185C153.292 67.9089 153.443 68.6199 153.839 68.9291C154.3 69.2863 154.87 69.1531 155.243 68.7626L155.705 68.2781C156.085 67.8805 155.928 67.1768 155.532 66.8675Z" fill="#4F3E7F"/>
<path d="M159.529 96.9492L159.045 96.4864C158.654 96.1133 157.943 96.264 157.634 96.6601C157.277 97.1209 157.41 97.6907 157.801 98.0638L158.285 98.5266C158.676 98.8996 159.387 98.749 159.696 98.3529C160.053 97.892 159.92 97.3222 159.529 96.9492Z" fill="#4F3E7F"/>
<path d="M178.344 89.8777C178.267 89.2924 177.766 89.0068 177.214 89.0194L176.267 89.041C175.73 89.0533 175.341 89.6775 175.409 90.1711C175.486 90.7564 175.987 91.042 176.539 91.0294C176.85 91.0223 177.161 91.0151 177.486 91.0077C178.03 90.9882 178.412 90.3712 178.344 89.8777Z" fill="#4F3E7F"/>
<path d="M76.242 125.256L75.7575 124.793C75.3671 124.42 74.6561 124.571 74.3469 124.967C73.9896 125.428 74.1229 125.998 74.5134 126.371L74.9978 126.834C75.3883 127.207 76.0992 127.056 76.4085 126.66C76.7729 126.206 76.6324 125.629 76.242 125.256Z" fill="#4F3E7F"/>
<path d="M37.0255 91.0285C36.0927 90.1374 34.8699 91.7214 35.7955 92.6056C36.7282 93.4966 37.951 91.9127 37.0255 91.0285Z" fill="#4F3E7F"/>
<path d="M179.272 166.994C178.34 166.103 177.117 167.687 178.042 168.571C178.975 169.462 180.198 167.878 179.272 166.994Z" fill="#4F3E7F"/>
</g>
<defs>
<clipPath id="clip0_283_123">
<rect width="202" height="167" fill="white" transform="translate(0 137)"/>
</clipPath>
<clipPath id="clip1_283_123">
<rect width="157.3" height="127.02" fill="white" transform="translate(122.741) rotate(43.6906)"/>
</clipPath>
</defs>
</svg>
