<svg width="26" height="26" viewBox="0 0 26 26" fill="none" xmlns="http://www.w3.org/2000/svg">
<path d="M13 25.9999C10.4288 25.9999 7.91543 25.2374 5.77759 23.809C3.63975 22.3805 1.97351 20.3502 0.989572 17.9748C0.0056327 15.5993 -0.251811 12.9855 0.249797 10.4637C0.751405 7.94196 1.98953 5.62558 3.80762 3.8075C5.6257 1.98941 7.94208 0.751283 10.4638 0.249675C12.9856 -0.251933 15.5995 0.00551063 17.9749 0.98945C20.3503 1.97339 22.3807 3.63963 23.8091 5.77747C25.2376 7.91531 26 10.4287 26 12.9999C26 16.4477 24.6304 19.7543 22.1924 22.1923C19.7544 24.6302 16.4478 25.9999 13 25.9999V25.9999ZM13 1.99988C10.8244 1.99988 8.69767 2.64502 6.88873 3.85372C5.07979 5.06241 3.66989 6.78038 2.83733 8.79037C2.00477 10.8004 1.78693 13.0121 2.21137 15.1459C2.63581 17.2797 3.68345 19.2397 5.22183 20.7781C6.76021 22.3164 8.72022 23.3641 10.854 23.7885C12.9878 24.213 15.1995 23.9951 17.2095 23.1626C19.2195 22.33 20.9375 20.9201 22.1462 19.1112C23.3549 17.3022 24 15.1755 24 12.9999C24 10.0825 22.8411 7.28461 20.7782 5.22171C18.7153 3.15881 15.9174 1.99988 13 1.99988Z" fill="black"/>
<path d="M13 19.9999C12.7348 19.9999 12.4804 19.8945 12.2929 19.707C12.1054 19.5194 12 19.2651 12 18.9999L12 6.99988C12 6.73466 12.1054 6.48031 12.2929 6.29277C12.4804 6.10523 12.7348 5.99988 13 5.99988C13.2652 5.99988 13.5196 6.10523 13.7071 6.29277C13.8946 6.48031 14 6.73466 14 6.99988L14 18.9999C14 19.2651 13.8946 19.5194 13.7071 19.707C13.5196 19.8945 13.2652 19.9999 13 19.9999Z" fill="black"/>
<path d="M19 13.9999L7 13.9999C6.73478 13.9999 6.48043 13.8945 6.29289 13.707C6.10536 13.5194 6 13.2651 6 12.9999C6 12.7347 6.10536 12.4803 6.29289 12.2928C6.48043 12.1052 6.73478 11.9999 7 11.9999L19 11.9999C19.2652 11.9999 19.5196 12.1052 19.7071 12.2928C19.8946 12.4803 20 12.7347 20 12.9999C20 13.2651 19.8946 13.5194 19.7071 13.707C19.5196 13.8945 19.2652 13.9999 19 13.9999Z" fill="black"/>
</svg>
