<svg width="56" height="76" viewBox="0 0 56 76" fill="none" xmlns="http://www.w3.org/2000/svg">
<path d="M18.0997 15.3227C17.3416 12.7664 16.2802 10.3211 14.8995 8.02677C13.6066 5.87529 12.1302 3.56503 10.1271 2.00105C8.37934 0.635533 6.18467 0.0798011 4.05385 0.857826C2.12254 1.57234 0.518432 3.14427 0.11142 5.20047C-0.311553 7.33607 0.454587 10.0274 2.40186 11.2262C2.94454 11.5596 3.52712 10.7975 3.08021 10.3529C2.21032 9.48755 1.55591 8.64601 1.30053 7.4234C1.07707 6.33576 1.20476 5.16078 1.76341 4.20016C2.92858 2.15983 5.64997 1.35798 7.77281 2.32655C10.1111 3.39038 11.7392 6.01819 13.064 8.09028C14.5883 10.472 15.8891 13.0204 16.9745 15.6244C17.2538 16.2992 18.3232 16.0611 18.0997 15.3227Z" fill="#737081"/>
<path d="M1.12521 9.72512C2.02702 11.4876 2.8171 13.2897 3.77478 15.0363C4.66062 16.6559 5.53849 18.2754 6.4403 19.8791C8.33969 23.2612 10.2471 26.6511 12.1464 30.0331C13.8463 33.0659 15.4185 36.2335 17.3578 39.1154C18.8581 41.3383 20.8373 43.4183 23.6146 43.8629C24.5962 44.0217 25.0192 42.5292 24.0296 42.3704C21.1805 41.9099 19.4008 39.5282 17.9962 37.21C16.2166 34.2646 14.6045 31.2081 12.9126 28.2072C11.1409 25.0554 9.36121 21.8956 7.58951 18.7438C6.6877 17.1402 5.76195 15.5444 4.8362 13.9487C3.91045 12.345 2.84104 10.8525 1.87539 9.27259C1.58011 8.81213 0.86983 9.2329 1.12521 9.72512Z" fill="#737081"/>
<path d="M22.617 43.1405C24.7478 44.1647 27.1659 43.6089 28.8419 41.9814C30.8769 39.9967 30.7253 37.2022 29.624 34.7649C28.4748 32.2164 26.8547 29.8427 25.5379 27.3736C24.3408 25.1348 23.1836 22.8801 22.0504 20.6096C21.4199 19.3552 20.7974 18.0929 20.1909 16.8306C19.736 15.8779 18.3154 16.7115 18.7703 17.6563C20.0073 20.2285 21.2922 22.7849 22.601 25.3174C23.6944 27.4371 24.8117 29.5569 26.0008 31.629C27.2218 33.7646 29.3925 36.3924 28.778 39.0122C28.2114 41.4178 25.3144 42.9579 22.9681 42.3387C22.4893 42.2117 22.1541 42.9183 22.617 43.1405Z" fill="#737081"/>
<path d="M20.2228 17.4817C19.5125 15.5763 17.661 13.798 15.5142 13.8536C13.2557 13.9091 12.0187 15.9733 12.2821 18.0533C12.4337 19.2362 12.9844 20.308 13.551 21.3401C14.2692 22.6579 14.9955 23.9679 15.7217 25.2778C17.238 28.0247 18.7384 30.7796 20.2387 33.5344C20.7335 34.4395 22.1381 33.6297 21.6274 32.7246C19.3529 28.6837 17.0784 24.6427 14.8359 20.5938C14.0777 19.2283 12.7689 16.5528 14.6523 15.4414C16.6634 14.2585 18.1957 16.5846 19.1614 17.9183C19.5205 18.4026 20.4702 18.1406 20.2228 17.4817Z" fill="#737081"/>
<path d="M29.2809 55.7797C26.3201 57.4548 23.6865 59.5825 21.3801 62.0674C19.3371 64.2585 16.9429 67.0451 17.4217 70.2605C17.8128 72.8803 20.0154 75.1588 22.6889 75.4685C25.147 75.7543 28.0519 74.3173 28.8819 71.9038C29.0894 71.2846 28.1796 70.9511 27.8524 71.4751C26.6234 73.4281 24.5085 74.881 22.0824 74.1268C19.7122 73.3884 18.3794 70.7685 19.0179 68.4265C19.6882 65.9496 21.859 63.8219 23.6306 62.0515C25.554 60.1302 27.6609 58.3757 29.8715 56.7959C30.478 56.3592 29.9513 55.4065 29.2809 55.7797Z" fill="#737081"/>
<path d="M27.7088 73.4914C29.2331 72.2133 30.8132 71.0303 32.3136 69.7125C33.6943 68.4898 35.0749 67.2672 36.4476 66.0208C39.2328 63.4962 42.0101 60.9716 44.7953 58.447C47.397 56.0811 50.1503 53.8185 52.5844 51.278C54.5157 49.2615 56.1996 46.8004 56.0001 43.8947C55.9282 42.9023 54.372 42.8944 54.4439 43.8947C54.6434 46.8322 52.5924 49.1424 50.5972 51.0557C48.0673 53.4771 45.4098 55.7874 42.8161 58.1453C40.1825 60.5429 37.5489 62.9325 34.9153 65.3301C33.5985 66.5289 32.2976 67.7436 30.9968 68.9583C29.6401 70.2206 28.4191 71.594 27.1023 72.8881C26.6873 73.2691 27.2858 73.8408 27.7088 73.4914Z" fill="#737081"/>
<path d="M55.5052 45.038C56.0479 42.5531 54.6992 40.1079 52.4247 38.9964C49.807 37.7183 47.1814 38.917 45.1224 40.6478C43.1193 42.3388 41.2678 44.2124 39.2806 45.9351C37.3732 47.5944 35.4339 49.2219 33.4787 50.8335C32.4173 51.7068 31.3558 52.5722 30.2864 53.4296C29.4565 54.0885 30.6296 55.2397 31.4516 54.5887C34.6838 52.0085 37.868 49.3569 40.9805 46.6338C42.0499 45.697 43.1113 44.7443 44.1488 43.7757C45.3219 42.6801 46.4392 41.4575 47.8677 40.6795C49.3761 39.8539 51.0281 39.8539 52.4566 40.8462C53.7734 41.7592 54.6672 43.3232 54.6273 44.9348C54.6193 45.4112 55.3935 45.5303 55.5052 45.038Z" fill="#737081"/>
<path d="M30.9169 53.231C29.1452 54.3901 27.8125 56.7321 28.5228 58.8519C29.249 61.0271 31.707 61.4955 33.6303 60.6381C34.7636 60.138 35.6893 59.2726 36.6071 58.4549C37.6925 57.4863 38.7778 56.5178 39.8632 55.5413C42.1217 53.5248 44.3882 51.5241 46.6547 49.5156C47.4288 48.8328 46.2796 47.6896 45.5135 48.3803C42.1137 51.4686 38.714 54.5568 35.2983 57.6213C34.1331 58.6693 31.8826 60.5984 30.2865 59.1456C29.5922 58.5105 29.5123 57.4387 29.7917 56.5892C30.1348 55.5572 30.9169 54.9062 31.6113 54.1123C32.0183 53.6677 31.4915 52.8579 30.9169 53.231Z" fill="#737081"/>
</svg>
