<svg width="52" height="55" viewBox="0 0 52 55" fill="none" xmlns="http://www.w3.org/2000/svg">
<path d="M24.36 14.53C24.22 15.7 24.04 16.87 23.85 18.04C23.64 19.34 23.57 20.66 23.44 21.97C23.33 23.04 23.22 24.1 23.19 25.17C23.18 25.5 23.22 25.83 23.25 26.16C23.26 26.25 23.26 26.33 23.27 26.42C23.28 26.56 23.25 26.96 23.28 26.53C23.22 27.56 24.81 27.55 24.88 26.53C24.85 26.96 24.91 26.46 24.93 26.34C25.01 25.95 25.09 25.57 25.13 25.17C25.21 24.1 25.22 23.04 25.22 21.97C25.22 20.67 25.26 19.36 25.15 18.06C25.05 16.88 24.94 15.7 24.8 14.53C24.77 14.24 24.4 14.24 24.36 14.53Z" fill="#4F3E7F"/>
<path d="M24.0799 26.32C22.4499 26.44 20.8099 26.48 19.1799 26.61C18.3299 26.68 17.4799 26.74 16.6399 26.82C16.2199 26.86 15.7699 26.86 15.3499 26.96C14.9499 27.05 14.5999 27.26 14.2599 27.48C13.8299 27.76 13.8399 28.54 14.4099 28.66C14.7799 28.74 15.1399 28.81 15.5299 28.79C15.9599 28.76 16.3799 28.63 16.7999 28.54C17.6499 28.35 18.5099 28.16 19.3699 27.98C20.9799 27.63 22.5699 27.22 24.1399 26.74C24.3499 26.66 24.3199 26.3 24.0799 26.32Z" fill="#4F3E7F"/>
<path d="M14.5099 29.16C15.9299 30.03 17.1199 31.2 18.3499 32.31C19.5799 33.41 20.8199 34.53 22.2399 35.36C23.1499 35.89 23.9699 34.39 23.0499 33.98C20.0299 32.65 17.6899 30.15 14.6299 28.88C14.4599 28.81 14.3599 29.07 14.5099 29.16Z" fill="#4F3E7F"/>
<path d="M22.3899 34.67C22.3499 36.23 22.3099 37.79 22.2599 39.36C22.2199 40.66 22.2499 41.97 22.2299 43.27C22.2199 43.86 22.2199 44.45 22.1999 45.04C22.1899 45.59 22.0499 46.36 22.3699 46.83C22.7299 47.35 23.4199 47.36 23.7799 46.83C24.1099 46.35 23.9499 45.59 23.9099 45.04C23.8699 44.45 23.8299 43.86 23.7899 43.27C23.6899 41.97 23.6099 40.66 23.4599 39.36C23.2799 37.8 23.0799 36.23 22.8899 34.67C22.8599 34.35 22.3999 34.33 22.3899 34.67Z" fill="#4F3E7F"/>
<path d="M23.6099 46.61C24.2799 45.83 24.9999 45.08 25.6099 44.25C26.2399 43.39 26.8699 42.53 27.4999 41.67C28.1299 40.81 28.7099 39.93 29.2999 39.04C29.5899 38.6 29.8899 38.16 30.1799 37.71C30.4899 37.25 30.7199 36.84 30.5999 36.27C30.5199 35.91 30.1299 35.75 29.8099 35.82C29.2599 35.93 28.9799 36.4 28.6899 36.84C28.3999 37.28 28.1099 37.73 27.8199 38.17C27.2599 39.03 26.6899 39.89 26.1699 40.77C25.6499 41.65 25.1299 42.54 24.6099 43.42C24.0699 44.33 23.6499 45.32 23.1899 46.27C23.0599 46.54 23.3999 46.86 23.6099 46.61Z" fill="#4F3E7F"/>
<path d="M29.9699 36.65C30.6599 37.24 31.3199 37.86 32.0399 38.42C32.8099 39.02 33.6799 39.5 34.4999 40.02C36.0999 41.04 37.7299 42.01 39.3599 42.99C40.0399 43.39 41.2799 44.25 42.0099 43.56C42.8099 42.8 41.7099 41.95 41.0999 41.58C39.4899 40.59 37.7499 39.76 36.0599 38.92C35.0699 38.43 34.0899 37.92 33.0899 37.45C32.1299 37 31.0899 36.75 30.0899 36.42C29.9799 36.38 29.8699 36.56 29.9699 36.65Z" fill="#4F3E7F"/>
<path d="M42.3999 42.96C41.4999 40.93 40.9799 38.76 40.2999 36.65C39.9399 35.54 39.5699 34.43 39.1799 33.33C38.8499 32.42 38.5299 31.47 37.8699 30.74C37.5799 30.42 37.1099 30.76 37.1899 31.14C37.3899 32.12 37.8499 33.02 38.2199 33.93C38.6699 35.03 39.0599 36.14 39.5099 37.24C40.3199 39.22 41.0999 41.24 42.1599 43.1C42.2599 43.25 42.4699 43.12 42.3999 42.96Z" fill="#4F3E7F"/>
<path d="M24.4699 14.59C25.6099 16.51 26.7899 18.4 27.9699 20.3C28.5699 21.26 29.1699 22.22 29.7599 23.19C30.0399 23.65 30.3099 24.12 30.6099 24.57C30.8899 25 31.1499 25.49 31.5999 25.75C31.8799 25.91 32.3299 25.71 32.2899 25.35C32.1899 24.39 31.2899 23.47 30.7399 22.72C30.0499 21.78 29.3599 20.83 28.6699 19.89C27.3399 18.08 26.0099 16.28 24.7099 14.45C24.5999 14.32 24.3699 14.44 24.4699 14.59Z" fill="#4F3E7F"/>
<path d="M31.86 25.48C33.74 25.18 35.65 25.2 37.53 24.95C38.45 24.83 39.37 24.71 40.27 24.49C41.16 24.28 42.58 24.14 43.02 23.23C43.25 22.76 43.18 22.09 42.65 21.84C41.68 21.36 40.61 21.98 39.65 22.24C38.73 22.49 37.82 22.77 36.91 23.04C35.14 23.56 33.38 24.37 31.77 25.27C31.65 25.33 31.74 25.49 31.86 25.48Z" fill="#4F3E7F"/>
<path d="M42.7399 23.7099C41.7399 24.7899 40.7399 25.8699 39.7299 26.9399C39.1799 27.5199 38.6399 28.1099 38.1099 28.7099C37.6199 29.2599 36.8599 29.8899 36.6699 30.6199C36.4499 31.4699 37.4199 32.2999 38.1999 31.7999C38.8599 31.3799 39.2199 30.5099 39.5999 29.8599C40.0099 29.1599 40.4099 28.4699 40.7999 27.7599C41.5099 26.4599 42.2299 25.1699 42.9599 23.8799C43.0199 23.7399 42.8399 23.5999 42.7399 23.7099Z" fill="#4F3E7F"/>
<path d="M32.3899 15.71C32.9699 14.94 33.5999 14.19 34.1299 13.38C34.3799 12.99 34.6499 12.61 34.8899 12.21C35.1999 11.68 35.2399 11.13 35.2799 10.53C35.2999 10.26 35.0899 9.99003 34.8499 9.89003C34.5799 9.78003 34.3099 9.84003 34.0899 10.03C33.9099 10.19 33.7199 10.34 33.5599 10.51C33.3099 10.78 33.1499 11.08 33.0099 11.41C32.8399 11.83 32.6899 12.27 32.5299 12.7C32.2099 13.59 31.9899 14.52 31.7299 15.43C31.6199 15.85 32.1599 16.01 32.3899 15.71Z" fill="#4F3E7F"/>
<path d="M20.05 8.89006C19.86 7.81006 19.66 6.73006 19.47 5.65006C19.38 5.12006 19.29 4.59006 19.19 4.06006C19.14 3.79006 19.08 3.51006 18.99 3.25006C18.87 2.90006 18.6 2.63006 18.37 2.34006C18.15 2.07006 17.68 2.02006 17.39 2.15006C17.06 2.30006 16.85 2.60006 16.84 2.97006C16.83 3.30006 16.8 3.63006 16.89 3.94006C16.98 4.24006 17.15 4.56006 17.29 4.85006C17.52 5.33006 17.77 5.80006 18 6.27006C18.49 7.23006 18.97 8.18006 19.46 9.14006C19.64 9.48006 20.11 9.23006 20.05 8.89006Z" fill="#4F3E7F"/>
<path d="M12.3699 19C12.0299 18.76 11.7399 18.48 11.4299 18.21C11.0799 17.92 10.6599 17.7 10.2799 17.47C9.92989 17.25 9.56989 17.04 9.20989 16.84C9.10989 16.78 8.99989 16.73 8.88989 16.68C8.65989 16.57 8.46989 16.54 8.21989 16.51C7.94989 16.48 7.68989 16.54 7.42989 16.61C6.89989 16.74 6.69989 17.36 6.93989 17.81C7.05989 18.04 7.17989 18.26 7.37989 18.43C7.50989 18.54 7.63989 18.65 7.78989 18.73C7.95989 18.82 8.13989 18.87 8.31989 18.93C8.70989 19.06 9.10989 19.18 9.49989 19.3C9.93989 19.43 10.3799 19.59 10.8299 19.64C11.2299 19.69 11.6299 19.72 12.0199 19.81C12.5299 19.93 12.7799 19.29 12.3699 19Z" fill="#4F3E7F"/>
<path d="M14.38 37.8601C13.22 38.0801 12.06 38.2601 10.91 38.5401C10.35 38.6701 9.79004 38.8101 9.23004 38.9401C8.94004 39.0001 8.64004 39.0601 8.36004 39.1401C7.97004 39.2501 7.70004 39.4701 7.42004 39.7601C7.00004 40.1901 7.14004 41.1001 7.80004 41.2101C8.19004 41.2701 8.54004 41.3401 8.93004 41.2101C9.21004 41.1101 9.49004 40.9801 9.76004 40.8601C10.32 40.6301 10.87 40.3901 11.43 40.1601C12.54 39.6901 13.62 39.1501 14.71 38.6301C15.17 38.4101 14.83 37.7701 14.38 37.8601Z" fill="#4F3E7F"/>
<path d="M33.7399 49.0299C33.6799 49.5199 33.6199 50.0099 33.5599 50.4999C33.4999 50.9499 33.4999 51.4099 33.4899 51.8699C33.4699 52.3199 33.4199 52.7899 33.4399 53.2399C33.4499 53.5399 33.5399 53.9599 33.6899 54.2299C33.8799 54.5499 34.2999 54.7899 34.6799 54.7399C35.0499 54.6899 35.4299 54.3599 35.5099 53.9899C35.5799 53.6599 35.5899 53.2799 35.5299 52.9499C35.4399 52.5099 35.3199 52.0699 35.2099 51.6299C35.0999 51.1899 35.0099 50.7399 34.8699 50.3099C34.7199 49.8499 34.5599 49.3899 34.4099 48.9299C34.2799 48.5499 33.7899 48.6499 33.7399 49.0299Z" fill="#4F3E7F"/>
<path d="M47.9001 36.21C48.2301 36.59 48.5401 37.03 48.9401 37.34C49.1301 37.49 49.3301 37.65 49.5201 37.8C49.6501 37.91 49.7801 38.01 49.9401 38.08C50.0401 38.12 50.1301 38.16 50.2301 38.19C50.3601 38.24 50.4901 38.28 50.6201 38.33C50.8301 38.41 51.1701 38.35 51.3501 38.23C51.5301 38.12 51.6601 37.97 51.7401 37.78C51.9301 37.33 51.7501 36.85 51.3501 36.59C51.2301 36.51 51.1201 36.44 51.0001 36.36C50.8201 36.25 50.6401 36.17 50.4401 36.12C50.1901 36.06 49.9501 35.99 49.7001 35.93C49.1901 35.8 48.6201 35.81 48.0901 35.77C47.8501 35.75 47.7701 36.05 47.9001 36.21Z" fill="#4F3E7F"/>
<path d="M48.08 18.59C48.8 18.59 48.8 17.47 48.08 17.47C47.36 17.47 47.36 18.59 48.08 18.59Z" fill="#4F3E7F"/>
<path d="M31.7099 0.15C31.6599 0.19 31.6199 0.23 31.5699 0.27C31.5099 0.32 31.4699 0.36 31.4299 0.43C31.4199 0.45 31.3999 0.48 31.3899 0.51C31.3299 0.61 31.2699 0.71 31.2199 0.81C31.2099 0.84 31.1899 0.88 31.1799 0.91C31.1599 0.97 31.1599 1.02 31.1699 1.08C31.1699 1.12 31.1799 1.15 31.1999 1.19C31.2199 1.24 31.2499 1.29 31.2899 1.33C31.3199 1.35 31.3499 1.37 31.3799 1.4C31.4099 1.41 31.4499 1.43 31.4799 1.44C31.5399 1.46 31.5899 1.46 31.6499 1.45C31.7099 1.45 31.7599 1.43 31.8099 1.4C31.9099 1.34 32.0099 1.28 32.1099 1.23C32.1299 1.22 32.1599 1.2 32.1799 1.19C32.1799 1.19 32.1899 1.19 32.1899 1.18C32.2299 1.15 32.2599 1.12 32.2999 1.1L32.3099 1.09C32.3199 1.08 32.3299 1.07 32.3399 1.06C32.3799 1.01 32.4199 0.97 32.4599 0.92C32.5099 0.87 32.5499 0.82 32.5699 0.75C32.5999 0.69 32.6199 0.62 32.6199 0.55C32.6199 0.48 32.6099 0.41 32.5699 0.35C32.5499 0.28 32.5099 0.23 32.4599 0.18C32.4199 0.15 32.3899 0.13 32.3499 0.1C32.2699 0.02 32.1799 0 32.0799 0C32.0299 0.01 31.9899 0.01 31.9399 0.02C31.8499 0.04 31.7799 0.09 31.7099 0.15Z" fill="#4F3E7F"/>
<path d="M15.58 54.88C15.75 54.87 15.91 54.87 16.08 54.86C16.17 54.86 16.26 54.82 16.32 54.76C16.38 54.7 16.42 54.6 16.42 54.52C16.42 54.43 16.39 54.34 16.32 54.28C16.25 54.22 16.17 54.18 16.08 54.18C15.91 54.17 15.75 54.17 15.58 54.16C15.49 54.16 15.39 54.2 15.33 54.26C15.3 54.29 15.27 54.33 15.26 54.37C15.24 54.41 15.23 54.46 15.23 54.51C15.23 54.6 15.26 54.7 15.33 54.76C15.4 54.84 15.49 54.89 15.58 54.88Z" fill="#4F3E7F"/>
<path d="M43.33 50.1001C43.22 50.0501 43.12 50.0001 43.01 49.9501C43.09 50.0301 43.17 50.1101 43.25 50.1901C43.27 50.2401 43.29 50.3001 43.32 50.3501V50.3401C43.31 50.3101 43.3 50.3001 43.28 50.2501C43.26 50.1901 43.23 50.1401 43.19 50.0901C43.16 50.0401 43.11 49.9901 43.06 49.9601C43.01 49.9201 42.96 49.8801 42.9 49.8701C42.84 49.8401 42.78 49.8201 42.72 49.8201C42.66 49.8001 42.59 49.8001 42.53 49.8201C42.46 49.8201 42.4 49.8401 42.35 49.8701C42.29 49.8901 42.24 49.9201 42.19 49.9601C42.14 49.9901 42.09 50.0401 42.06 50.0901C42.02 50.1401 41.98 50.1901 41.97 50.2501C41.92 50.3401 41.9 50.4301 41.91 50.5301C41.92 50.5901 41.93 50.6601 41.94 50.7201C41.96 50.7801 41.99 50.8401 42.01 50.8901C42.05 50.9401 42.09 50.9901 42.12 51.0401C42.17 51.0801 42.22 51.1201 42.27 51.1501C42.33 51.1701 42.39 51.2001 42.44 51.2201C42.5 51.2301 42.57 51.2401 42.63 51.2501C42.69 51.2401 42.76 51.2301 42.82 51.2201C42.88 51.2001 42.94 51.1701 42.99 51.1501C43.04 51.1101 43.09 51.0701 43.14 51.0401C43.18 50.9901 43.22 50.9401 43.25 50.8901C43.33 50.7701 43.31 50.7801 43.32 50.7101V50.7001C43.3 50.7501 43.28 50.8101 43.25 50.8601C43.17 50.9401 43.09 51.0201 43.01 51.1001C43.12 51.0501 43.22 51.0001 43.33 50.9501C43.4 50.9101 43.46 50.8501 43.51 50.7701C43.55 50.6901 43.58 50.6101 43.58 50.5201C43.58 50.4301 43.56 50.3501 43.51 50.2701C43.46 50.2001 43.4 50.1401 43.33 50.1001Z" fill="#4F3E7F"/>
<path d="M1.08 29.65C2.52 29.65 2.52 27.41 1.08 27.41C-0.36 27.41 -0.36 29.65 1.08 29.65Z" fill="#4F3E7F"/>
</svg>
