<svg width="248" height="285" viewBox="0 0 248 285" fill="none" xmlns="http://www.w3.org/2000/svg">
<circle cx="2.11961" cy="2.11949" r="2.11961" fill="#7854F7"/>
<circle cx="62.8745" cy="2.11949" r="2.11961" fill="#7854F7"/>
<circle cx="123.63" cy="2.11949" r="2.11961" fill="#7854F7"/>
<circle cx="184.385" cy="2.11949" r="2.11961" fill="#7854F7"/>
<circle cx="245.139" cy="2.11949" r="2.11961" fill="#7854F7"/>
<circle cx="2.11961" cy="33.2071" r="2.11961" fill="#7854F7"/>
<circle cx="62.8745" cy="33.2071" r="2.11961" fill="#7854F7"/>
<circle cx="123.63" cy="33.2071" r="2.11961" fill="#7854F7"/>
<circle cx="184.385" cy="33.2071" r="2.11961" fill="#7854F7"/>
<circle cx="245.139" cy="33.2071" r="2.11961" fill="#7854F7"/>
<circle cx="2.11961" cy="64.2948" r="2.11961" fill="#7854F7"/>
<circle cx="62.8745" cy="64.2948" r="2.11961" fill="#7854F7"/>
<circle cx="123.63" cy="64.2948" r="2.11961" fill="#7854F7"/>
<circle cx="184.385" cy="64.2948" r="2.11961" fill="#7854F7"/>
<circle cx="245.139" cy="64.2948" r="2.11961" fill="#7854F7"/>
<circle cx="2.11961" cy="95.3825" r="2.11961" fill="#7854F7"/>
<circle cx="62.8745" cy="95.3822" r="2.11961" fill="#7854F7"/>
<circle cx="123.63" cy="95.3822" r="2.11961" fill="#7854F7"/>
<circle cx="184.385" cy="95.3822" r="2.11961" fill="#7854F7"/>
<circle cx="245.139" cy="95.3822" r="2.11961" fill="#7854F7"/>
<circle cx="2.11961" cy="126.47" r="2.11961" fill="#7854F7"/>
<circle cx="62.8745" cy="126.47" r="2.11961" fill="#7854F7"/>
<circle cx="123.63" cy="126.47" r="2.11961" fill="#7854F7"/>
<circle cx="184.385" cy="126.47" r="2.11961" fill="#7854F7"/>
<circle cx="245.139" cy="126.47" r="2.11961" fill="#7854F7"/>
<circle cx="2.11961" cy="157.558" r="2.11961" fill="#7854F7"/>
<circle cx="62.8745" cy="157.558" r="2.11961" fill="#7854F7"/>
<circle cx="123.63" cy="157.558" r="2.11961" fill="#7854F7"/>
<circle cx="184.385" cy="157.558" r="2.11961" fill="#7854F7"/>
<circle cx="245.139" cy="157.558" r="2.11961" fill="#7854F7"/>
<circle cx="2.11961" cy="188.645" r="2.11961" fill="#7854F7"/>
<circle cx="62.8745" cy="188.645" r="2.11961" fill="#7854F7"/>
<circle cx="123.63" cy="188.645" r="2.11961" fill="#7854F7"/>
<circle cx="184.385" cy="188.645" r="2.11961" fill="#7854F7"/>
<circle cx="245.139" cy="188.645" r="2.11961" fill="#7854F7"/>
<circle cx="2.11961" cy="219.733" r="2.11961" fill="#7854F7"/>
<circle cx="62.8745" cy="219.733" r="2.11961" fill="#7854F7"/>
<circle cx="123.63" cy="219.733" r="2.11961" fill="#7854F7"/>
<circle cx="184.385" cy="219.733" r="2.11961" fill="#7854F7"/>
<circle cx="245.139" cy="219.733" r="2.11961" fill="#7854F7"/>
<circle cx="2.11961" cy="250.82" r="2.11961" fill="#7854F7"/>
<circle cx="62.8745" cy="250.82" r="2.11961" fill="#7854F7"/>
<circle cx="123.63" cy="250.82" r="2.11961" fill="#7854F7"/>
<circle cx="184.385" cy="250.82" r="2.11961" fill="#7854F7"/>
<circle cx="245.139" cy="250.82" r="2.11961" fill="#7854F7"/>
<circle cx="2.11961" cy="281.908" r="2.11961" fill="#7854F7"/>
<circle cx="62.8745" cy="281.908" r="2.11961" fill="#7854F7"/>
<circle cx="123.63" cy="281.908" r="2.11961" fill="#7854F7"/>
<circle cx="184.385" cy="281.908" r="2.11961" fill="#7854F7"/>
<circle cx="245.139" cy="281.908" r="2.11961" fill="#7854F7"/>
</svg>
