<svg width="450" height="325" viewBox="0 0 450 325" fill="none" xmlns="http://www.w3.org/2000/svg">
<g clip-path="url(#clip0_258_548)">
<path d="M181.126 75.3802C177.248 91.504 173.809 107.661 173.592 124.306C173.559 126.936 173.566 129.579 173.617 132.21C173.642 133.716 173.678 135.22 173.747 136.714C173.817 138.338 173.627 140.273 174.607 141.658C175.277 142.615 176.726 142.726 177.349 141.623C178.042 140.383 177.894 139.077 177.833 137.7C177.762 136.242 177.705 134.793 177.635 133.335C177.508 130.904 177.403 128.467 177.349 126.039C177.245 122.101 177.247 118.157 177.429 114.222C177.761 106.874 178.737 99.5737 179.77 92.3053C180.562 86.7003 181.119 81.0652 181.567 75.4245C181.572 75.1849 181.181 75.1504 181.126 75.3802Z" fill="#4F3E7F"/>
<path d="M317.989 72.8179C319.065 81.8481 320.762 90.7537 322.158 99.731C323.284 107.008 323.965 114.313 324.112 121.671C324.159 124.243 324.166 126.803 324.141 129.372C324.128 130.829 324.104 132.289 324.103 133.743C324.093 135.425 323.804 137.304 324.717 138.791C325.368 139.849 326.817 139.745 327.46 138.756C328.237 137.564 328.128 136.14 328.126 134.759C328.14 133.265 328.136 131.789 328.114 130.294C328.07 127.947 328.004 125.607 327.902 123.264C327.727 119.285 327.458 115.309 327.002 111.349C326.152 103.948 324.559 96.7056 322.868 89.4544C321.562 83.8478 319.985 78.2927 318.421 72.7455C318.352 72.5384 317.957 72.5764 317.989 72.8179Z" fill="#4F3E7F"/>
<path d="M180.869 76.1305C185.214 75.2582 189.661 74.6675 194.055 74.1031C199.164 73.448 204.29 72.8592 209.42 72.4124C220.725 71.4195 232.022 70.8697 243.368 70.5804C262.958 70.0761 282.584 70.4315 302.168 71.3228C305.088 71.4538 308.381 72.0291 311.256 71.3981C311.359 71.3815 311.461 71.3649 311.575 71.3453C310.896 71.4742 311.733 71.3134 311.872 71.2987C312.077 71.2655 312.3 71.2514 312.502 71.2072C312.579 71.1857 312.663 71.1864 312.743 71.1759C313.994 70.9599 312.343 71.1083 312.641 71.1925C312.77 71.2282 312.985 71.1447 313.113 71.133C313.31 71.114 313.521 71.103 313.712 71.0619C313.735 71.0557 313.771 71.0576 313.793 71.0514C314.516 70.9103 314.504 70.5206 313.87 71.0299C313.882 71.0269 313.918 71.0287 313.932 71.0367C315.57 71.1422 315.554 68.5968 313.928 68.4883C313.587 68.4636 315.105 68.7811 314.07 68.4846C313.89 68.4391 313.711 68.3936 313.52 68.3511C313.419 68.3314 313.316 68.3007 313.215 68.281C313.15 68.2632 313.075 68.2484 313.01 68.2306C311.913 68.0109 313.126 68.3891 313.155 68.3215C313.171 68.2933 311.852 67.9206 311.734 67.8818C310.196 67.5343 313.044 68.3522 311.537 67.8173C311.433 67.7865 311.329 67.7558 311.226 67.725C311.043 67.6684 310.847 67.6039 310.667 67.5583C309.975 67.3812 309.23 67.3614 308.521 67.296C307.19 67.1771 305.848 67.1086 304.51 67.0512C296.314 66.6689 288.112 66.3953 279.913 66.2165C257.53 65.7565 235.075 65.9 212.794 68.2117C201.849 69.3429 190.856 71.1188 180.682 75.4557C180.266 75.6307 180.406 76.2232 180.869 76.1305Z" fill="#4F3E7F"/>
<path d="M180.695 143.59C189.731 146.312 199.365 147.154 208.747 147.945C217.958 148.725 227.194 149.248 236.433 149.483C254.508 149.959 272.634 149.242 290.629 147.584C295.6 147.122 300.574 146.587 305.531 145.986C310.545 145.381 315.752 144.996 320.636 143.617C322.491 143.09 322.149 140.182 320.173 140.231C315.707 140.326 311.254 141.193 306.834 141.752C302.48 142.293 298.123 142.776 293.764 143.211C284.856 144.087 275.932 144.729 266.996 145.112C248.958 145.888 230.872 145.629 212.866 144.372C202.235 143.629 191.541 142.057 180.88 142.24C180.087 142.257 179.954 143.367 180.695 143.59Z" fill="#4F3E7F"/>
<path d="M180.584 142.763C179.672 144.541 179.41 146.603 179.023 148.557C178.589 150.727 178.252 152.906 177.919 155.095C177.314 159.099 176.83 163.106 176.41 167.13C175.612 174.858 175.081 182.606 174.936 190.367C174.692 204.172 175.673 218.054 178.692 231.549C179.507 235.171 180.457 238.768 181.57 242.307C182.12 244.073 182.714 245.826 183.33 247.573C183.957 249.317 184.492 251.159 185.57 252.682C186.587 254.116 188.555 253.177 188.305 251.506C188.073 249.938 187.404 248.516 186.862 247.034C186.271 245.422 185.729 243.81 185.205 242.18C184.205 239.05 183.316 235.889 182.552 232.706C181.015 226.353 179.927 219.9 179.219 213.4C177.659 198.976 177.977 184.412 179.093 169.972C179.431 165.565 179.891 161.172 180.29 156.772C180.513 154.399 180.798 152.032 180.974 149.66C181.139 147.422 181.557 145.066 181.155 142.843C181.125 142.565 180.709 142.526 180.584 142.763Z" fill="#4F3E7F"/>
<path d="M319.844 141.966C319.863 144.439 320.807 147.024 321.393 149.435C322.003 151.935 322.643 154.414 323.173 156.924C324.232 161.943 325.212 166.974 325.864 172.071C327.086 181.454 327.616 190.921 327.503 200.389C327.34 214.183 325.964 228.028 323.299 241.564C322.932 243.417 322.542 245.276 322.099 247.115C321.948 247.729 321.827 248.323 321.824 248.955C321.824 249.086 321.817 249.231 321.817 249.362C321.849 250.377 321.915 248.941 321.862 249.135C321.356 251.003 324.261 251.769 324.767 249.901C324.825 249.683 324.064 251.145 324.679 250.14C324.738 250.052 324.779 249.946 324.835 249.847C325.11 249.377 325.273 248.891 325.413 248.364C325.795 246.864 326.106 245.324 326.412 243.809C327.518 238.391 328.386 232.932 329.08 227.449C331.276 210.16 331.621 192.431 329.346 175.131C328.602 169.488 327.619 163.887 326.321 158.35C325.639 155.465 324.786 152.604 323.894 149.778C323.061 147.161 322.137 143.962 320.43 141.803C320.257 141.565 319.84 141.609 319.844 141.966Z" fill="#4F3E7F"/>
<path d="M185.874 252.705C190.042 253.812 194.14 254.843 198.423 255.466C202.804 256.096 207.192 256.666 211.598 257.087C220.776 257.96 229.97 258.506 239.175 258.703C257.571 259.09 276.042 258.372 294.316 256.22C304.158 255.061 314.218 253.746 323.528 250.245C324.273 249.967 324.232 248.703 323.328 248.752C314.645 249.232 306.112 250.813 297.472 251.793C288.488 252.821 279.499 253.66 270.474 254.151C252.171 255.132 233.79 254.884 215.499 253.586C210.493 253.236 205.491 252.813 200.499 252.34C198.137 252.114 195.788 251.896 193.432 251.692C190.979 251.479 188.517 251.495 186.045 251.347C185.256 251.292 185.128 252.507 185.874 252.705Z" fill="#4F3E7F"/>
<path d="M187.622 74.447C188.125 73.9856 188.344 73.1861 188.548 72.5458C188.759 71.8914 188.928 71.213 189.112 70.5426C189.512 69.109 189.837 67.6606 190.187 66.2172C190.526 64.7768 190.873 63.3223 191.212 61.8819C191.551 60.4415 192.081 58.96 191.917 57.4685C191.803 56.4158 190.465 55.9294 189.861 56.9309C189.087 58.2182 188.94 59.7483 188.64 61.2016C188.343 62.666 188.055 64.1162 187.758 65.5806C187.462 67.0449 187.151 68.5013 186.916 69.9724C186.808 70.6576 186.679 71.3489 186.596 72.039C186.51 72.718 186.351 73.5605 186.624 74.1997C186.81 74.6127 187.271 74.7708 187.622 74.447Z" fill="#4F3E7F"/>
<path d="M190.876 57.6263C192.98 57.2211 194.962 56.2064 197.012 55.5659C198.889 54.9856 200.835 54.5289 202.774 54.2171C204.771 53.9011 206.802 53.7904 208.836 53.8216C209.842 53.8402 210.838 53.9093 211.842 53.9642C212.969 54.0327 214.108 54.229 215.2 53.914C215.883 53.7126 216.011 52.7595 215.389 52.4078C213.588 51.3707 210.856 51.5691 208.834 51.5822C206.681 51.5958 204.53 51.7877 202.42 52.1707C200.252 52.5579 198.188 53.1904 196.163 54.0503C194.234 54.8715 192.161 55.8161 190.722 57.3712C190.611 57.4855 190.73 57.6551 190.876 57.6263Z" fill="#4F3E7F"/>
<path d="M214.099 54.5412C213.559 55.6441 213.365 56.961 213.212 58.171C213.048 59.5985 212.874 61.0291 212.76 62.4664C212.647 63.9038 212.53 65.3301 212.417 66.7675C212.363 67.39 212.321 68.0094 212.267 68.6319C212.199 69.4609 212.014 70.382 212.746 71.001C213.244 71.4227 213.984 71.5986 214.567 71.2104C215.805 70.3903 215.484 68.2873 215.533 66.963C215.591 65.541 215.635 64.111 215.693 62.689C215.748 61.2559 215.742 59.8161 215.746 58.3731C215.749 57.1809 215.706 55.8228 215.309 54.6938C215.146 54.1911 214.375 53.9881 214.099 54.5412Z" fill="#4F3E7F"/>
<path d="M215.81 54.2214C218.224 55.9223 220.19 58.2838 221.524 60.9039C222.231 62.2922 222.782 63.7599 223.086 65.284C223.225 65.96 223.296 66.6434 223.286 67.3372C223.281 68.0058 223.084 68.5846 223.043 69.2514C222.967 70.5234 224.856 70.9762 225.432 69.8751C226.189 68.4378 225.82 66.3361 225.439 64.8335C224.998 63.0733 224.241 61.3771 223.321 59.8215C221.832 57.2917 219.244 53.6734 215.934 53.7697C215.679 53.793 215.62 54.0953 215.81 54.2214Z" fill="#4F3E7F"/>
<path d="M310.519 69.8154C310.833 69.228 310.698 68.5268 310.603 67.8858C310.504 67.1865 310.35 66.5025 310.218 65.8123C309.996 64.6232 309.695 63.4555 309.417 62.2817C309.142 61.1189 308.856 59.9592 308.581 58.7965C308.248 57.4235 308.088 55.8595 307.242 54.7003C306.569 53.779 305.334 54.1812 305.206 55.2652C305.039 56.6817 305.662 58.153 306.048 59.4995C306.367 60.65 306.686 61.8005 307.017 62.9479C307.339 64.1094 307.639 65.2771 308.028 66.4202C308.249 67.0858 308.447 67.7575 308.701 68.4139C308.939 69.015 309.167 69.6664 309.723 70.0365C309.986 70.2135 310.378 70.0809 310.519 69.8154Z" fill="#4F3E7F"/>
<path d="M306.415 55.1561C304.911 53.6434 302.789 52.7789 300.817 52.0275C298.792 51.2551 296.736 50.7176 294.592 50.419C292.524 50.1353 290.451 50.0076 288.369 50.0612C287.208 50.0855 286.045 50.146 284.907 50.2951C283.758 50.4472 282.595 50.5078 281.592 51.1436C281.003 51.5097 281.103 52.4709 281.806 52.645C282.855 52.9021 283.846 52.6983 284.902 52.5959C285.947 52.4966 286.989 52.3862 288.032 52.3232C290.073 52.2093 292.132 52.2455 294.16 52.469C296.141 52.6938 298.131 53.0826 300.053 53.6097C302.125 54.1663 304.149 55.1058 306.263 55.4246C306.422 55.44 306.544 55.2754 306.415 55.1561Z" fill="#4F3E7F"/>
<path d="M281.731 53.4045C281.382 54.4664 281.382 55.7532 281.419 56.8747C281.466 58.2439 281.509 59.602 281.614 60.9669C281.717 62.2845 281.813 63.6162 281.916 64.9338C281.965 65.5397 282.006 66.1598 282.055 66.7657C282.117 67.5468 282.05 68.5067 282.724 69.0464C283.324 69.5351 284.295 69.6828 284.86 69.0137C285.749 67.9686 285.21 66.2834 285.063 65.0254C284.902 63.6286 284.73 62.2348 284.571 60.849C284.407 59.4411 284.184 58.0374 283.962 56.6338C283.779 55.5048 283.538 54.2493 282.972 53.2389C282.657 52.7066 281.91 52.8902 281.731 53.4045Z" fill="#4F3E7F"/>
<path d="M281.11 52.5403C279.583 52.5351 278.238 53.397 277.178 54.4297C275.928 55.6345 274.901 57.0871 274.075 58.6152C273.248 60.1433 272.581 61.8178 272.235 63.5341C272.069 64.3544 271.957 65.1957 271.976 66.0364C271.986 66.8439 272.043 67.7811 272.457 68.5002C273.063 69.5235 274.944 69.1325 274.825 67.8431C274.787 67.4486 274.674 67.0866 274.589 66.6933C274.577 66.6491 274.51 66.2385 274.532 66.4469C274.505 66.2637 274.489 66.0775 274.488 65.8993C274.455 65.2651 274.477 64.6156 274.57 64.006C274.785 62.5047 275.256 61.0275 275.89 59.6603C277.106 57.047 278.95 54.7601 281.225 52.997C281.407 52.8391 281.361 52.5422 281.11 52.5403Z" fill="#4F3E7F"/>
<path d="M270.127 107.928C270.331 118.88 261.62 127.934 250.668 128.138C239.716 128.342 230.662 119.631 230.458 108.679C230.254 97.7267 238.965 88.673 249.917 88.469C260.869 88.2651 269.923 96.9757 270.127 107.928Z" stroke="#4F3E7F" stroke-width="2" stroke-miterlimit="10"/>
<path d="M242.18 115.97C243.123 114.6 243.929 113.126 244.713 111.657C246.254 108.799 247.712 105.892 249.155 102.978C249.507 102.273 249.848 101.57 250.2 100.865C250.574 100.106 251.209 99.1314 250.713 98.2919C250.05 97.1893 248.766 97.8434 248.285 98.7276C247.928 99.3747 247.637 100.087 247.323 100.758C245.929 103.718 244.512 106.685 243.217 109.701C242.407 111.594 241.543 113.502 240.948 115.478C240.716 116.233 241.772 116.56 242.18 115.97Z" fill="#4F3E7F"/>
<path d="M248.711 98.5022C250.096 102.121 251.896 105.601 253.631 109.063C254.344 110.473 255.043 111.876 255.756 113.286C255.968 113.704 256.168 114.125 256.428 114.506C256.55 114.686 256.694 114.861 256.857 115.018C256.888 115.045 256.905 115.064 256.937 115.091C257.649 115.728 256.79 114.906 256.766 114.865C257.545 116.34 259.784 115.004 258.994 113.532L258.991 113.521C259.052 113.742 259.113 113.963 259.175 114.184C259.251 113.341 258.592 112.428 258.209 111.736C257.464 110.382 256.708 109.031 255.963 107.677C254.129 104.373 252.312 101.005 250.16 97.8855C249.686 97.207 248.37 97.6196 248.711 98.5022Z" fill="#4F3E7F"/>
<path d="M203.024 181.845C209.1 182.018 215.287 181.301 221.363 180.997C227.485 180.692 233.596 180.473 239.722 180.31C251.972 179.972 264.221 179.933 276.469 180.191C279.813 180.264 283.149 180.351 286.495 180.471C288.168 180.531 289.829 180.594 291.505 180.665C293.337 180.74 295.24 180.987 297.07 180.753C298.383 180.591 298.925 178.594 297.387 178.246C294.429 177.59 291.169 177.78 288.161 177.673C285.105 177.568 282.042 177.477 278.971 177.4C272.758 177.254 266.534 177.194 260.318 177.203C248.063 177.221 235.81 177.547 223.577 178.202C220.056 178.393 216.527 178.598 213.016 178.87C209.597 179.128 206.128 179.292 202.759 179.905C201.636 180.11 201.956 181.82 203.024 181.845Z" fill="#4F3E7F"/>
<path d="M205.171 208.557C217.057 210.774 229.37 211.051 241.441 211.06C253.87 211.066 266.299 210.476 278.648 209.122C285.364 208.378 292.054 207.415 298.701 206.166C300.434 205.84 299.689 203.199 297.968 203.522C274.05 208.051 249.49 208.981 225.209 208.166C218.583 207.944 211.968 207.505 205.336 207.391C204.658 207.353 204.49 208.424 205.171 208.557Z" fill="#4F3E7F"/>
<path d="M202.406 180.778C199.683 189.385 200.309 198.766 202.557 207.424C203.07 209.402 206.112 208.558 205.621 206.573C203.499 198.155 203.418 189.576 203.702 180.942C203.716 180.176 202.622 180.098 202.406 180.778Z" fill="#4F3E7F"/>
<path d="M296.486 179.378C297.107 183.59 297.877 187.785 298.037 192.053C298.115 194.093 298.112 196.143 297.986 198.179C297.923 199.198 297.824 200.214 297.703 201.237C297.568 202.382 297.171 203.529 297.85 204.556C298.4 205.38 299.33 205.384 300.054 204.814C300.982 204.079 300.94 202.769 301.076 201.671C301.208 200.514 301.3 199.345 301.348 198.187C301.442 195.993 301.408 193.81 301.196 191.629C300.768 187.209 299.863 182.789 297.83 178.814C297.414 178 296.383 178.62 296.486 179.378Z" fill="#4F3E7F"/>
<path d="M203.117 208.067C202.573 209.671 202.547 211.465 202.439 213.139C202.332 215.028 202.297 216.92 202.273 218.809C202.237 222.501 202.377 226.179 202.647 229.857C203.175 237.169 204.251 244.436 205.797 251.596C206.202 253.485 209.097 252.67 208.684 250.795C207.137 243.718 206.061 236.535 205.51 229.313C205.242 225.813 205.09 222.305 205.022 218.797C204.987 216.996 204.988 215.196 205.003 213.405C205.01 211.628 205.158 209.799 204.793 208.054C204.603 207.154 203.373 207.316 203.117 208.067Z" fill="#4F3E7F"/>
<path d="M297.289 204.509C297.256 208.342 298.17 212.235 298.572 216.043C298.977 219.91 299.2 223.804 299.3 227.684C299.392 231.578 299.328 235.468 299.096 239.357C298.991 241.209 298.838 243.062 298.66 244.911C298.464 246.907 297.999 248.967 297.994 250.969C297.99 252.543 300.284 252.824 300.714 251.323C301.234 249.463 301.294 247.361 301.476 245.44C301.665 243.505 301.805 241.56 301.911 239.624C302.129 235.644 302.168 231.665 302.055 227.694C301.941 223.806 301.624 219.914 301.17 216.049C300.714 212.172 300.371 207.931 298.874 204.295C298.558 203.501 297.305 203.539 297.289 204.509Z" fill="#4F3E7F"/>
<path d="M212.206 184.623C211.761 191.263 212.396 197.973 214.108 204.397" stroke="#4F3E7F" stroke-miterlimit="10" stroke-linecap="round"/>
<path d="M218.323 186.702C218.127 193.166 218.553 199.636 219.572 206.014" stroke="#4F3E7F" stroke-miterlimit="10" stroke-linecap="round"/>
<path d="M226.288 185.135C225.348 191.924 225.423 198.85 226.525 205.609" stroke="#4F3E7F" stroke-miterlimit="10" stroke-linecap="round"/>
<path d="M233.046 183.342C233.241 190.699 233.436 198.056 233.645 205.42" stroke="#4F3E7F" stroke-miterlimit="10" stroke-linecap="round"/>
<path d="M238.226 184.705L238.621 205.362" stroke="#4F3E7F" stroke-miterlimit="10" stroke-linecap="round"/>
<path d="M246.359 184.735C246.379 191.545 246.398 198.354 246.421 205.175" stroke="#4F3E7F" stroke-miterlimit="10" stroke-linecap="round"/>
<path d="M253.166 185.562L253.543 205.081" stroke="#4F3E7F" stroke-miterlimit="10" stroke-linecap="round"/>
<path d="M259.781 184.155C261.101 190.973 261.676 197.939 261.518 204.881" stroke="#4F3E7F" stroke-miterlimit="10" stroke-linecap="round"/>
<path d="M266.911 184.345C267.359 191.369 267.807 198.394 268.266 205.415" stroke="#4F3E7F" stroke-miterlimit="10" stroke-linecap="round"/>
<path d="M273.805 184.029L274.221 205.835" stroke="#4F3E7F" stroke-miterlimit="10" stroke-linecap="round"/>
<path d="M282.989 183.851L283.384 204.507" stroke="#4F3E7F" stroke-miterlimit="10" stroke-linecap="round"/>
<path d="M290.565 182.558C291.48 188.774 291.878 195.061 291.75 201.34" stroke="#4F3E7F" stroke-miterlimit="10" stroke-linecap="round"/>
<path d="M186.013 82.3876C185.825 84.1555 185.644 85.9094 185.456 87.6773" stroke="#4F3E7F" stroke-miterlimit="10" stroke-linecap="round"/>
<path d="M184.571 97.2398C184.382 99.2223 184.205 101.202 184.016 103.184" stroke="#4F3E7F" stroke-miterlimit="10" stroke-linecap="round"/>
<path d="M182.848 111.122L182.911 114.571" stroke="#4F3E7F" stroke-miterlimit="10" stroke-linecap="round"/>
<path d="M184.11 120.994C184.27 123.63 184.43 126.267 184.586 128.892" stroke="#4F3E7F" stroke-miterlimit="10" stroke-linecap="round"/>
<path d="M185.299 134.163C185.43 135.151 185.561 136.139 185.678 137.119" stroke="#4F3E7F" stroke-miterlimit="10" stroke-linecap="round"/>
<path d="M314.033 77.3234C314.412 80.0655 314.792 82.8076 315.18 85.5356" stroke="#4F3E7F" stroke-miterlimit="10" stroke-linecap="round"/>
<path d="M316.49 97.0387C316.752 99.2295 317.015 101.42 317.277 103.611" stroke="#4F3E7F" stroke-miterlimit="10" stroke-linecap="round"/>
<path d="M318.362 111.984L318.404 114.283" stroke="#4F3E7F" stroke-miterlimit="10" stroke-linecap="round"/>
<path d="M319.69 121.147L319.772 125.735" stroke="#4F3E7F" stroke-miterlimit="10" stroke-linecap="round"/>
<path d="M319.907 132.62L320.01 138.357" stroke="#4F3E7F" stroke-miterlimit="10" stroke-linecap="round"/>
<path d="M213.523 246.724C215.622 247.118 217.718 247.501 219.818 247.896" stroke="#4F3E7F" stroke-miterlimit="10" stroke-linecap="round"/>
<path d="M226.259 249.813L232.005 249.696" stroke="#4F3E7F" stroke-miterlimit="10" stroke-linecap="round"/>
<path d="M240.061 250.689L246.948 250.565" stroke="#4F3E7F" stroke-miterlimit="10" stroke-linecap="round"/>
<path d="M193.654 137.265C195.856 137.559 198.056 137.843 200.258 138.137" stroke="#4F3E7F" stroke-miterlimit="10" stroke-linecap="round"/>
<path d="M210.401 141.029L216.15 140.922" stroke="#4F3E7F" stroke-miterlimit="10" stroke-linecap="round"/>
<path d="M226.335 140.359C228.757 140.414 231.171 140.483 233.593 140.537" stroke="#4F3E7F" stroke-miterlimit="10" stroke-linecap="round"/>
<path d="M244.168 141.892C245.702 141.752 247.232 141.601 248.777 141.458" stroke="#4F3E7F" stroke-miterlimit="10" stroke-linecap="round"/>
<path d="M257.485 141.282L265.52 141.125" stroke="#4F3E7F" stroke-miterlimit="10" stroke-linecap="round"/>
<path d="M272.487 140.728C275.343 140.889 278.202 141.06 281.07 141.218" stroke="#4F3E7F" stroke-miterlimit="10" stroke-linecap="round"/>
<path d="M290.594 140.29C292.014 140.039 293.436 139.799 294.867 139.545" stroke="#4F3E7F" stroke-miterlimit="10" stroke-linecap="round"/>
<path d="M306.409 138.76C308.274 138.612 310.139 138.464 312.007 138.327" stroke="#4F3E7F" stroke-miterlimit="10" stroke-linecap="round"/>
<path d="M214.996 64.0383C216.869 64.2212 218.743 64.4042 220.606 64.5902" stroke="#4F3E7F" stroke-miterlimit="10" stroke-linecap="round"/>
<path d="M216.891 59.6639C218.542 59.73 220.192 59.7962 221.843 59.8623" stroke="#4F3E7F" stroke-miterlimit="10" stroke-linecap="round"/>
<path d="M275.287 62.5558C277.625 62.2645 280.031 62.5619 282.22 63.408" stroke="#4F3E7F" stroke-miterlimit="10" stroke-linecap="round"/>
<path d="M277.509 58.1981C279.692 58.1642 281.878 58.7012 283.794 59.766" stroke="#4F3E7F" stroke-miterlimit="10" stroke-linecap="round"/>
<path d="M254.983 250.408L260.718 250.294" stroke="#4F3E7F" stroke-miterlimit="10" stroke-linecap="round"/>
<path d="M269.615 248.611C271.152 248.482 272.689 248.354 274.229 248.236" stroke="#4F3E7F" stroke-miterlimit="10" stroke-linecap="round"/>
<path d="M284.424 247.623C285.853 247.488 287.278 247.343 288.706 247.209" stroke="#4F3E7F" stroke-miterlimit="10" stroke-linecap="round"/>
<path d="M213.575 210.204C215.718 214.708 211.979 219.308 212.189 223.885C212.262 225.437 212.914 226.972 213.802 228.239C214.595 229.377 215.805 230.733 217.288 230.798C217.865 230.816 218.037 230.018 217.568 229.743C216.176 228.938 215.166 228.087 214.371 226.639C213.441 224.919 213.375 223.222 213.78 221.334C214.582 217.526 216.63 213.443 214.395 209.726C214.078 209.183 213.315 209.656 213.575 210.204Z" fill="#4F3E7F"/>
<path d="M219.618 209.611C217.642 213.138 219.459 216.982 220.48 220.488C221.048 222.451 221.285 224.291 220.378 226.175C219.59 227.8 218.496 228.795 216.994 229.736C216.547 230.015 216.702 230.83 217.285 230.787C218.87 230.657 220.137 229.126 220.946 227.876C221.873 226.452 222.47 224.785 222.329 223.072C221.986 218.831 218.575 214.356 220.448 210.072C220.69 209.528 219.929 209.06 219.618 209.611Z" fill="#4F3E7F"/>
<path d="M218.063 221.397C217.996 220.939 217.402 220.603 217.01 220.95C216.98 220.971 216.956 221.013 216.926 221.033C216.659 221.06 216.404 221.214 216.36 221.572C216.352 221.669 216.346 221.778 216.337 221.876C215.999 222.673 216.067 223.607 216.62 224.311C216.636 224.366 216.648 224.411 216.663 224.466C216.89 225.154 217.783 224.894 217.932 224.316C218.178 223.355 218.217 222.379 218.063 221.397Z" fill="#4F3E7F"/>
<path d="M208.278 147.587C208.043 147.771 207.788 147.925 207.639 148.205C207.511 148.431 207.435 148.714 207.338 148.968C207.208 149.314 207.067 149.663 206.936 150.009C206.636 150.771 206.453 151.572 206.231 152.361C206.014 153.124 205.808 153.884 205.594 154.658C205.287 155.744 204.729 156.995 205.413 158.044C205.953 158.872 207.093 159.246 207.973 158.68C208.68 158.222 208.959 157.597 209.086 156.811C209.138 156.439 209.204 156.075 209.255 155.703C209.388 154.892 209.506 154.073 209.638 153.262C209.777 152.389 209.964 151.515 210.016 150.631C210.04 150.243 210.052 149.859 210.075 149.471C210.09 149.264 210.115 149.055 210.107 148.855C210.098 148.523 209.966 148.262 209.814 147.971C209.537 147.488 208.739 147.233 208.278 147.587Z" fill="#4F3E7F"/>
<path d="M217.972 149.031C218.053 146.876 215.592 146.379 214.282 147.457C213.705 147.224 213.047 147.169 212.467 147.354C211.466 146.154 209.2 146.616 208.568 147.947C208.365 148.373 208.22 148.795 208.075 149.216C207.919 148.699 207.701 148.212 207.363 147.769C207.06 147.365 206.643 147.278 206.265 147.419C205.573 146.944 204.484 147.139 204.256 148.119C203.824 150.086 203.889 152.165 203.754 154.168C203.636 155.976 202.942 157.682 204.373 159.06C204.584 159.263 204.863 159.365 205.153 159.38C205.405 159.56 205.671 159.701 205.949 159.802C209.036 160.923 212.386 160.887 215.462 159.735C216.411 159.377 217.372 158.419 217.24 157.3C217.212 157.069 217.187 156.85 217.159 156.62C217.486 156.255 217.711 155.775 217.739 155.148C217.815 153.102 217.893 151.066 217.972 149.031Z" fill="#4F3E7F"/>
<path d="M284.149 147.762C283.979 145.605 286.415 145.024 287.784 146.05C288.346 145.799 289.004 145.723 289.596 145.881C290.55 144.639 292.835 145.018 293.518 146.317C293.74 146.732 293.904 147.151 294.054 147.563C294.197 147.046 294.393 146.551 294.707 146.095C294.997 145.681 295.409 145.578 295.8 145.696C296.472 145.2 297.573 145.347 297.832 146.323C298.336 148.268 298.354 150.349 298.561 152.34C298.752 154.146 299.503 155.82 298.125 157.251C297.921 157.462 297.643 157.575 297.354 157.608C297.108 157.795 296.842 157.953 296.575 158.062C293.523 159.302 290.189 159.394 287.065 158.355C286.107 158.037 285.1 157.113 285.193 155.991C285.213 155.759 285.235 155.538 285.254 155.307C284.908 154.962 284.667 154.481 284.615 153.864C284.454 151.823 284.307 149.791 284.149 147.762Z" fill="#4F3E7F"/>
<path d="M163.094 234.805C161.566 233.419 160.161 231.878 158.494 230.637C156.768 229.353 154.955 228.188 153.055 227.179C149.203 225.15 145.099 223.668 140.817 222.795C131.687 220.932 121.969 221.723 113.357 225.376C108.306 227.528 103.697 230.452 99.6363 234.152C98.0118 235.64 100.417 237.867 102.053 236.508C108.912 230.827 117.485 227.03 126.325 225.828C134.43 224.722 142.615 225.882 150.218 228.848C152.314 229.66 154.372 230.637 156.341 231.723C158.421 232.862 160.597 233.962 162.454 235.46C162.909 235.81 163.525 235.198 163.094 234.805Z" fill="#4F3E7F"/>
<path d="M146.222 237.546C139.427 238.348 133.15 240.888 127.83 245.2C122.703 249.351 117.656 255.208 116.685 261.923C116.498 263.226 118.115 264.028 118.886 262.813C122.269 257.49 125.196 252.15 130.003 247.921C134.685 243.798 140.37 240.588 146.427 239.014C147.215 238.807 147.074 237.44 146.222 237.546Z" fill="#4F3E7F"/>
<path d="M109.211 274.362C109.162 274.269 109.112 274.176 109.062 274.082C108.983 273.926 108.901 273.758 108.772 273.638C108.612 273.492 108.453 273.346 108.293 273.2C108.147 273.061 107.93 272.967 107.73 272.975C107.661 272.982 107.591 272.989 107.511 273C107.4 273.03 107.307 273.08 107.23 273.149C107.17 273.189 107.124 273.238 107.092 273.295C107.019 273.374 106.971 273.459 106.954 273.571C106.907 273.787 106.929 273.995 107.043 274.19C107.153 274.374 107.253 274.561 107.375 274.741C107.479 274.903 107.612 274.997 107.752 275.113C107.832 275.186 107.923 275.256 107.999 275.318C108.153 275.443 108.337 275.546 108.548 275.535C108.618 275.528 108.687 275.521 108.753 275.502C108.853 275.475 108.946 275.425 109.023 275.356C109.083 275.316 109.129 275.267 109.161 275.211C109.223 275.134 109.271 275.049 109.302 274.945C109.344 274.755 109.325 274.557 109.211 274.362Z" fill="#4F3E7F"/>
<path d="M89.8565 254.035C91.7261 253.516 90.9297 250.604 89.0491 251.126C87.1796 251.644 87.987 254.554 89.8565 254.035Z" fill="#4F3E7F"/>
<path d="M164.646 248.207C160.572 248.254 156.792 250.649 154.188 253.671C151.367 256.944 149.59 260.845 149.705 265.209C149.73 266.072 150.357 266.827 151.228 266.919C152.016 267.01 153.012 266.52 153.14 265.65C153.653 262.219 154.877 258.687 156.981 255.922C159.112 253.127 161.948 251.065 164.929 249.272C165.42 248.981 165.216 248.204 164.646 248.207Z" fill="#4F3E7F"/>
<path d="M147.058 288.426C149.901 287.637 148.684 283.209 145.83 284.001C142.987 284.79 144.204 289.218 147.058 288.426Z" fill="#4F3E7F"/>
<path d="M60.9315 258.166L55.4516 258.77L53.7764 264.024L51.5106 258.994L45.994 259.036L50.0735 255.318L48.3374 250.093L53.1344 252.824L57.5622 249.546L56.4536 254.953L60.9315 258.166Z" stroke="#4F3E7F" stroke-width="1.1664" stroke-miterlimit="10" stroke-linecap="round" stroke-linejoin="round"/>
<path d="M92.3431 284.846L95.9623 289.001L101.229 287.372L98.3958 292.102L101.576 296.605L96.1962 295.381L92.8921 299.789L92.4054 294.301L87.1817 292.522L92.2509 290.352L92.3431 284.846Z" stroke="#4F3E7F" stroke-width="1.1664" stroke-miterlimit="10" stroke-linecap="round" stroke-linejoin="round"/>
<path d="M129.423 287.733C129.408 288.023 129.473 288.255 129.55 288.531C129.82 289.505 131.192 289.255 131.248 288.298C131.263 288.008 131.271 287.78 131.191 287.492C130.92 286.471 129.467 286.731 129.423 287.733Z" fill="#4F3E7F"/>
<path d="M53.9813 294.599C53.4691 293.312 51.674 293.798 51.9127 295.173C52.0017 295.708 52.1731 295.983 52.6075 296.303C52.9995 296.599 53.7849 296.381 53.9681 295.925C54.1753 295.427 54.181 295.104 53.9813 294.599Z" fill="#4F3E7F"/>
<path d="M78.114 309.776C77.5801 309.055 77.0149 308.52 76.2394 308.045C75.4781 307.577 74.3982 308.579 74.9695 309.35C75.5034 310.072 76.0717 310.617 76.844 311.082C77.6164 311.547 78.6853 310.547 78.114 309.776Z" fill="#4F3E7F"/>
<path d="M68.2903 277.212C67.6708 277.384 67.4279 278.226 67.9213 278.673C68.0626 278.753 68.097 278.791 68.0355 278.784C68.3322 279.596 69.4937 279.273 69.3298 278.425C69.2806 278.463 69.2905 278.412 69.3704 278.271C69.5518 277.637 68.9098 277.041 68.2903 277.212Z" fill="#4F3E7F"/>
<path d="M352.45 204.2C358.051 203.218 363.743 204.366 368.73 207.009C371.133 208.284 373.325 209.916 375.214 211.87C377.123 213.854 378.488 216.239 380.26 218.333C381.004 219.211 382.254 218.22 382.052 217.276C381.409 214.273 379.259 211.808 377.026 209.77C374.821 207.749 372.285 206.082 369.552 204.863C364.142 202.456 357.955 201.886 352.23 203.451C351.743 203.586 351.962 204.288 352.45 204.2Z" fill="#4F3E7F"/>
<path d="M349.948 190.335C352.207 189.029 354.116 187.153 356.354 185.769C358.64 184.349 360.987 183.102 363.537 182.203C365.969 181.35 368.497 180.672 371.048 180.333C373.749 179.977 376.461 180.046 379.155 179.62C380.558 179.397 380.201 177.507 379.141 177.122C376.34 176.089 373.468 176.302 370.552 176.742C367.669 177.172 364.881 177.946 362.201 179.107C359.636 180.212 357.137 181.596 354.937 183.327C352.778 185.034 350.36 187.099 349.283 189.698C349.123 190.111 349.506 190.589 349.948 190.335Z" fill="#4F3E7F"/>
<path d="M343.172 178.8C343.617 178.129 343.951 177.226 344.291 176.476C344.655 175.684 345.019 174.892 345.422 174.113C346.257 172.571 347.167 171.043 348.189 169.616C350.189 166.821 352.686 164.269 355.492 162.275C356.089 161.848 356.353 161.083 355.954 160.419C355.602 159.838 354.692 159.519 354.099 159.957C350.99 162.238 348.334 164.989 346.26 168.245C345.264 169.808 344.417 171.437 343.768 173.178C343.445 174.03 343.15 174.898 342.919 175.785C342.701 176.631 342.441 177.752 342.505 178.628C342.545 178.986 342.971 179.106 343.172 178.8Z" fill="#4F3E7F"/>
<path d="M368.981 154.338C372.045 153.488 370.725 148.731 367.661 149.581C364.596 150.432 365.917 155.188 368.981 154.338Z" fill="#4F3E7F"/>
<path d="M389.847 180.155C392.956 179.293 391.625 174.456 388.506 175.321C385.397 176.184 386.728 181.021 389.847 180.155Z" fill="#4F3E7F"/>
<path d="M391.371 228.962C391.336 228.877 391.308 228.777 391.272 228.692C391.182 228.324 391.009 228.002 390.758 227.739C390.555 227.438 390.301 227.21 389.979 227.037C389.665 226.851 389.336 226.739 388.977 226.732C388.61 226.655 388.257 226.67 387.895 226.782C387.672 226.88 387.449 226.977 387.214 227.078C386.795 227.325 386.472 227.665 386.232 228.089C386.148 228.303 386.054 228.52 385.97 228.734C385.84 229.211 385.845 229.698 385.977 230.174C385.99 230.265 386.018 230.365 386.031 230.456C386.121 230.824 386.294 231.146 386.549 231.421C386.752 231.722 387.009 231.96 387.342 232.13C387.656 232.317 387.995 232.425 388.358 232.444C388.725 232.521 389.089 232.503 389.451 232.39C389.674 232.293 389.908 232.192 390.132 232.094C390.551 231.847 390.874 231.507 391.114 231.083C391.209 230.866 391.292 230.652 391.384 230.424C391.507 229.925 391.503 229.438 391.371 228.962Z" fill="#4F3E7F"/>
<path d="M421.923 196.476L422.929 201.904L428.287 203.181L423.442 205.813L423.884 211.313L419.887 207.514L414.788 209.62L417.161 204.648L413.58 200.46L419.047 201.182L421.923 196.476Z" stroke="#4F3E7F" stroke-width="1.1664" stroke-miterlimit="10" stroke-linecap="round" stroke-linejoin="round"/>
<path d="M403.839 138.528L400.265 142.737L402.669 147.705L397.57 145.605L393.591 149.426L393.995 143.929L389.137 141.321L394.493 140.014L395.479 134.593L398.377 139.281L403.839 138.528Z" stroke="#4F3E7F" stroke-width="1.1664" stroke-miterlimit="10" stroke-linecap="round" stroke-linejoin="round"/>
<path d="M411.746 179.642C411.71 179.64 411.663 179.641 411.626 179.639C410.963 179.395 410.35 180.149 410.519 180.757C410.688 181.365 411.604 181.707 412.044 181.144C412.074 181.124 412.115 181.1 412.145 181.08C413.044 180.711 412.703 179.484 411.746 179.642Z" fill="#4F3E7F"/>
<path d="M417.048 160.108C415.886 160.431 416.387 162.234 417.548 161.912C418.707 161.578 418.209 159.786 417.048 160.108Z" fill="#4F3E7F"/>
<path d="M441.186 191.273C440.079 191.58 440.712 193.859 441.818 193.552C444.031 192.938 443.398 190.659 441.186 191.273Z" fill="#4F3E7F"/>
<path d="M351.475 235.722C351.021 236.574 350.999 237.355 351.199 238.288C351.297 238.726 351.764 239.037 352.193 239.037C352.68 239.033 353.028 238.698 353.185 238.274C353.468 237.492 353.543 236.732 353.253 235.943C352.986 235.195 351.901 234.936 351.475 235.722Z" fill="#4F3E7F"/>
</g>
<defs>
<clipPath id="clip0_258_548">
<rect width="404.626" height="224.108" fill="white" transform="translate(0 108.205) rotate(-15.5109)"/>
</clipPath>
</defs>
</svg>
